<?xml version="1.0" standalone="no"?>
<!DOCTYPE svg PUBLIC "-//W3C//DTD SVG 20010904//EN"
 "http://www.w3.org/TR/2001/REC-SVG-20010904/DTD/svg10.dtd">
<svg version="1.0" xmlns="http://www.w3.org/2000/svg"
 width="1024.000000pt" height="1024.000000pt" viewBox="0 0 1024.000000 1024.000000"
 preserveAspectRatio="xMidYMid meet">
<metadata>
Created by potrace 1.14, written by Peter Selinger 2001-2017
</metadata>
<g transform="translate(0.000000,1024.000000) scale(0.100000,-0.100000)"
fill="#000000" stroke="none">
<path d="M2375 10224 c-525 -33 -808 -96 -1120 -250 -619 -304 -1037 -853
-1175 -1542 -69 -347 -65 -136 -65 -3282 0 -2950 0 -2912 41 -3205 94 -659
434 -1205 973 -1557 110 -71 124 -78 115 -53 -10 25 14 17 114 -36 l95 -52 49
18 c36 13 64 16 104 11 44 -5 62 -2 97 15 45 23 77 47 77 60 0 4 -9 11 -20 14
-25 8 -50 32 -50 49 0 9 33 15 121 19 117 7 121 6 157 -18 44 -30 75 -32 109
-5 15 12 41 20 62 20 62 0 81 41 39 80 -19 18 -21 22 -8 31 17 11 294 8 306
-3 3 -4 1 -21 -6 -38 -12 -30 -11 -33 16 -61 l30 -29 33 34 33 34 -31 21 c-57
41 -33 90 49 105 29 5 58 29 146 119 90 92 125 121 199 161 165 90 377 334
313 359 -7 2 -42 0 -78 -5 -77 -10 -126 -4 -134 19 -4 8 -4 31 0 49 8 44 -16
55 -60 29 -17 -10 -84 -48 -149 -84 -66 -36 -129 -72 -140 -79 -14 -8 -39 -11
-67 -7 -43 5 -46 3 -96 -46 -53 -53 -92 -64 -86 -24 14 81 14 87 -3 105 -27
29 -40 25 -79 -26 -19 -25 -52 -58 -74 -73 -21 -16 -55 -54 -76 -86 -32 -47
-42 -56 -60 -50 -55 17 -69 17 -105 -3 -21 -12 -76 -35 -124 -51 -71 -24 -88
-27 -97 -16 -25 30 22 98 87 126 47 20 52 37 14 51 -19 6 -28 2 -49 -22 -32
-36 -36 -37 -50 -5 -8 18 -19 25 -40 25 -34 0 -54 14 -81 60 -29 49 -27 58 23
79 31 14 45 27 50 45 7 29 39 46 87 46 42 0 117 31 185 77 65 44 98 57 194 73
75 14 203 61 231 86 12 11 19 30 19 54 0 62 17 74 114 80 47 4 91 11 98 18 6
6 13 34 16 62 4 48 7 52 41 66 41 16 171 152 171 178 0 24 -38 19 -63 -7 -12
-13 -41 -47 -65 -75 -52 -63 -110 -104 -177 -125 -45 -15 -251 -57 -276 -57
-6 0 28 43 75 95 47 52 86 101 86 109 0 22 -28 39 -52 32 -13 -4 -44 -33 -70
-66 -50 -61 -85 -80 -155 -80 -37 0 -42 13 -17 48 8 12 19 36 24 51 9 31 -8
55 -58 81 -22 11 -28 8 -65 -33 -23 -24 -61 -81 -85 -125 -44 -83 -80 -122
-113 -122 -30 0 -49 28 -49 74 0 66 -19 74 -71 30 -24 -20 -59 -43 -78 -51
-30 -13 -36 -13 -49 1 -25 25 -18 69 18 115 40 50 33 61 -41 61 -33 0 -51 6
-64 20 -10 11 -26 20 -35 20 -10 0 -23 6 -29 14 -15 18 -1 23 133 46 82 14
114 24 132 41 29 28 30 39 3 73 -16 20 -29 26 -59 26 -42 0 -52 13 -37 47 16
36 44 38 88 7 37 -25 43 -26 82 -16 23 6 71 18 107 27 99 25 148 45 181 72
l29 25 -35 48 c-19 26 -35 57 -35 69 0 11 1 21 3 21 1 0 27 9 57 19 62 20 87
48 101 111 11 48 3 60 -39 60 -20 0 -23 4 -20 32 4 42 44 65 134 77 75 10 264
92 264 115 0 19 -40 53 -82 71 -22 9 -44 28 -53 45 -8 16 -29 37 -45 45 -34
18 -36 28 -15 79 9 20 13 42 9 48 -6 9 -60 8 -104 -3 -10 -3 -16 5 -18 23 -6
50 -26 53 -77 8 -74 -64 -125 -50 -125 36 0 35 -25 40 -76 15 -74 -35 -114
-22 -114 37 0 21 -51 82 -68 82 -5 0 -29 -30 -53 -66 -46 -72 -88 -108 -134
-120 -16 -4 -41 -15 -54 -26 -30 -23 -113 -25 -135 -2 -9 8 -16 31 -16 49 0
28 7 39 38 62 44 33 52 43 52 66 0 24 -27 22 -91 -8 -74 -33 -131 -42 -148
-21 -11 13 -9 18 18 33 31 18 31 19 29 86 -3 92 9 100 111 72 38 -10 59 -11
67 -4 7 6 49 14 94 18 88 9 120 27 120 68 0 37 -16 60 -51 72 -27 9 -38 8 -66
-9 -62 -37 -73 -26 -73 72 0 53 2 59 18 53 32 -14 225 -17 272 -5 25 6 72 15
105 20 71 9 100 20 155 56 63 42 50 94 -14 55 -73 -46 -201 -70 -227 -44 -15
15 34 51 88 64 25 7 61 27 86 50 l42 38 -37 1 c-26 0 -44 8 -65 28 -15 16 -58
47 -95 71 -36 23 -69 48 -72 57 -4 12 -10 13 -26 4 -31 -17 -104 -9 -108 12
-8 42 115 72 349 87 156 10 210 26 243 73 24 34 19 46 -24 58 -69 18 -60 40
26 62 28 7 52 16 55 21 2 4 -18 24 -46 45 -27 21 -50 44 -50 51 0 8 16 22 36
33 49 25 299 88 352 88 73 0 119 19 163 66 23 24 50 44 61 44 11 0 42 9 68 21
42 18 51 19 73 8 33 -18 124 -15 203 7 56 15 73 26 135 88 118 118 153 215 96
269 -36 35 -51 34 -98 -4 -46 -37 -110 -68 -141 -69 -12 0 -42 -16 -68 -36
-41 -31 -84 -54 -102 -54 -3 0 -3 7 1 15 3 9 -4 21 -19 31 -30 20 -64 15 -147
-23 -80 -36 -89 -23 -37 55 23 34 39 65 36 68 -6 6 -146 -63 -262 -130 -44
-25 -85 -46 -91 -46 -22 0 -21 25 2 72 13 26 24 49 24 51 0 2 -17 9 -38 16
-34 12 -50 10 -152 -18 -114 -30 -130 -31 -130 -6 0 20 68 75 101 82 16 3 29
9 29 14 0 19 -59 21 -145 4 -101 -20 -145 -13 -181 26 -26 29 -8 40 80 50 57
6 84 14 109 34 39 29 102 42 172 35 70 -7 237 26 312 62 42 21 95 35 165 45
125 18 137 26 118 84 -13 39 -13 42 9 60 28 23 84 39 136 39 33 0 46 7 80 43
23 23 70 62 106 87 84 59 137 107 154 140 12 24 12 30 -7 61 -30 50 -59 79
-80 79 -11 0 -40 -22 -66 -49 -26 -26 -57 -53 -69 -60 -20 -10 -24 -8 -37 17
-29 56 -34 56 -151 12 -117 -43 -132 -46 -181 -28 -28 10 -35 8 -64 -12 -40
-28 -70 -29 -108 -1 -36 25 -45 26 -62 6 -15 -18 -74 -20 -88 -2 -10 12 -15
38 -13 70 0 10 17 33 36 50 19 17 35 34 35 38 0 12 -69 29 -115 29 -66 0 -117
20 -157 60 -45 44 -47 58 -12 91 22 21 38 25 128 30 121 8 171 27 160 62 -4
12 -18 40 -32 61 -13 22 -31 54 -38 72 -12 29 -12 35 2 48 24 25 43 19 90 -24
46 -42 68 -48 97 -26 15 12 25 12 63 0 60 -18 291 -36 328 -26 47 13 42 30
-11 38 -33 5 -56 16 -77 36 l-29 29 23 24 c25 26 116 65 153 65 77 0 152 51
192 131 14 26 29 51 35 54 38 23 101 -43 115 -119 3 -21 15 -51 27 -66 29 -39
21 -79 -22 -108 -30 -21 -43 -23 -91 -18 -47 6 -60 3 -80 -13 -23 -19 -23 -20
-4 -27 11 -4 55 -20 98 -37 l78 -30 27 20 c15 11 40 38 55 60 25 35 28 45 22
87 -6 37 -13 50 -31 58 -35 16 -41 53 -16 103 11 24 26 78 33 122 11 73 10 82
-9 126 -12 26 -28 50 -37 53 -10 4 -33 -6 -59 -24 -58 -42 -88 -48 -142 -27
l-45 17 -39 -36 c-50 -45 -79 -52 -162 -38 -98 17 -128 15 -229 -14 -78 -22
-94 -24 -126 -13 -21 6 -67 11 -104 11 -47 -1 -81 4 -111 18 -24 10 -84 24
-133 30 -50 6 -94 15 -99 20 -13 13 24 68 53 79 14 5 58 9 97 9 81 -1 131 21
141 61 5 20 -1 31 -30 55 -29 24 -37 38 -37 64 0 37 18 41 77 17 40 -17 89
-20 98 -5 3 5 0 20 -8 32 -12 20 -12 32 2 88 l16 65 42 -1 c37 -1 55 -9 108
-48 24 -18 70 6 129 68 34 34 74 88 91 119 l30 56 -27 28 c-39 42 -42 65 -13
97 42 45 34 50 -67 42 -78 -5 -98 -10 -131 -34 -52 -36 -99 -62 -115 -62 -23
0 -36 46 -22 79 10 25 9 37 -5 73 -10 28 -15 65 -13 102 3 57 3 58 41 71 54
18 110 58 126 89 13 24 13 29 -7 56 -12 16 -22 42 -22 58 0 66 145 231 247
282 23 12 69 24 101 27 68 6 102 25 102 56 0 50 -47 61 -109 25 -58 -33 -74
-21 -66 47 6 45 5 55 -8 55 -15 0 -71 -56 -121 -122 -32 -43 -46 -48 -46 -17
0 42 36 94 146 210 120 125 146 164 144 207 -3 46 -1 50 45 68 37 13 51 15 71
5 46 -21 64 -15 64 22 0 18 4 37 9 43 5 5 13 36 18 68 8 57 10 61 59 95 28 20
72 55 98 79 61 56 92 56 175 0 76 -51 101 -81 101 -123 0 -35 -48 -119 -122
-214 -40 -50 -53 -61 -78 -61 -40 0 -51 24 -44 101 5 64 -4 97 -24 85 -27 -16
-72 -102 -72 -136 0 -45 14 -60 57 -60 58 0 54 -26 -14 -91 -59 -57 -63 -59
-115 -59 -48 0 -58 -4 -86 -32 -29 -31 -62 -93 -62 -118 0 -6 22 1 48 16 67
37 82 30 82 -41 l0 -55 45 0 c50 0 58 15 25 45 -23 21 -45 86 -37 108 3 9 45
27 93 42 87 27 106 39 159 110 26 34 173 96 242 102 70 6 93 -7 93 -56 0 -47
-27 -84 -81 -112 -22 -11 -59 -39 -84 -63 -74 -70 -53 -108 35 -62 l50 26 38
-38 c20 -21 48 -45 62 -54 39 -25 13 -42 -66 -44 -51 -2 -71 -7 -97 -26 -43
-33 -90 -48 -147 -48 -28 0 -52 -6 -59 -13 -23 -29 18 -36 66 -12 38 19 96 9
208 -36 44 -17 109 -36 145 -42 36 -5 71 -11 77 -13 19 -5 53 -65 59 -105 8
-50 15 -58 60 -74 51 -17 65 -39 39 -60 -43 -33 -124 -66 -185 -76 -106 -17
-117 -42 -37 -82 29 -15 69 -27 90 -27 48 0 61 -25 26 -51 -29 -22 -65 -24
-99 -4 -33 19 -69 19 -113 0 -60 -25 -148 -19 -234 15 -42 17 -78 28 -81 25
-3 -3 3 -14 13 -25 17 -19 18 -25 6 -53 -35 -85 -37 -105 -11 -132 22 -24 23
-26 7 -42 -16 -16 -19 -15 -57 22 -39 38 -40 38 -80 26 -46 -14 -84 -46 -74
-63 4 -6 23 -8 45 -5 l39 5 0 -39 c0 -42 8 -47 43 -24 12 8 55 21 95 30 41 8
93 26 116 40 65 38 125 35 174 -10 49 -43 80 -55 147 -55 30 0 66 -5 81 -10
19 -8 41 -6 85 6 82 23 93 17 87 -51 -4 -42 -13 -66 -37 -100 -34 -47 -71
-139 -71 -174 0 -31 28 -40 103 -34 62 5 70 4 107 -22 37 -26 44 -27 77 -17
39 12 53 9 53 -13 0 -26 -41 -52 -118 -74 -61 -18 -85 -31 -119 -66 -42 -42
-55 -75 -30 -75 7 0 21 16 30 35 21 44 37 44 84 1 53 -47 75 -56 132 -56 58 0
81 -7 81 -26 0 -19 -67 -84 -87 -84 -24 0 -180 -87 -237 -132 -46 -36 -52 -38
-123 -38 -49 0 -85 -6 -105 -16 -32 -16 -32 -16 -65 19 -18 20 -38 56 -44 82
-13 50 -31 65 -69 56 -22 -6 -24 -11 -22 -48 3 -33 -1 -44 -17 -52 -28 -15
-47 7 -56 66 -14 92 -41 111 -130 88 -31 -8 -78 -15 -105 -15 -59 0 -64 -13
-23 -66 34 -45 71 -64 127 -64 36 0 48 -5 65 -27 36 -45 37 -71 5 -104 -36
-38 -13 -40 54 -4 l46 25 33 -32 32 -31 12 26 c15 34 40 43 56 21 18 -25 16
-33 -11 -43 -13 -5 -26 -16 -29 -24 -8 -20 38 -81 85 -113 l39 -27 14 21 c8
11 30 24 48 27 17 4 52 19 75 33 36 21 45 23 53 11 13 -22 11 -52 -7 -78 -22
-30 -7 -41 58 -41 55 0 78 -7 78 -25 0 -18 -56 -92 -80 -105 -25 -14 -110 1
-182 32 -41 18 -52 19 -78 8 -47 -19 -75 -5 -131 65 -47 60 -54 65 -90 65 -22
0 -61 -11 -87 -24 -26 -13 -66 -29 -88 -35 -43 -11 -94 -45 -94 -62 0 -17 63
-47 114 -54 28 -4 63 -14 79 -21 15 -8 51 -19 79 -24 40 -8 62 -20 93 -50 45
-44 86 -60 156 -60 25 0 68 -7 95 -15 72 -22 97 -19 174 20 86 43 100 44 100
5 0 -22 -13 -45 -50 -85 -27 -30 -50 -59 -50 -65 0 -18 22 -21 45 -6 38 25 55
20 55 -15 0 -24 -11 -42 -44 -75 l-43 -44 -96 0 c-53 0 -99 -4 -102 -10 -13
-20 18 -50 86 -84 40 -20 80 -36 91 -36 27 0 74 -26 92 -51 14 -21 13 -23 -27
-43 -28 -14 -43 -29 -45 -43 -3 -21 0 -23 50 -23 42 0 62 -6 98 -30 57 -38 88
-38 125 0 16 16 27 31 24 33 -2 2 -23 9 -46 16 -35 10 -43 16 -43 36 0 14 8
29 20 35 17 9 27 5 64 -25 50 -41 62 -43 92 -14 22 20 25 20 66 6 24 -9 55
-18 71 -21 33 -8 35 -31 7 -83 -13 -24 -16 -39 -9 -44 15 -9 92 7 130 26 33
18 59 7 59 -24 0 -21 -113 -103 -207 -149 -61 -30 -75 -42 -81 -67 -10 -41
-83 -76 -237 -116 -135 -34 -188 -35 -318 -4 -68 16 -80 17 -88 4 -13 -20 -11
-93 3 -107 8 -8 47 -12 111 -12 84 0 103 -3 124 -20 31 -24 53 -25 145 -4 l72
16 28 -31 c44 -49 38 -65 -49 -121 -91 -60 -105 -64 -174 -52 -30 5 -68 8 -86
5 -39 -6 -77 -39 -68 -61 3 -9 11 -49 17 -90 13 -84 19 -90 112 -122 l59 -20
43 39 c27 26 56 42 81 46 69 12 107 27 145 56 40 31 62 35 120 18 42 -11 55
-38 43 -87 -10 -39 -34 -62 -66 -62 -41 0 -78 -17 -121 -56 -21 -19 -62 -45
-91 -58 -52 -23 -157 -101 -157 -116 0 -4 19 -13 43 -20 59 -16 135 -1 248 50
49 22 98 40 108 40 25 0 33 -23 17 -46 -7 -11 -16 -37 -20 -59 -4 -22 -28 -82
-53 -132 -31 -61 -44 -96 -37 -103 5 -5 67 -15 138 -21 70 -6 151 -17 179 -25
29 -8 78 -19 110 -25 l57 -11 0 -84 c0 -78 -2 -85 -22 -94 -13 -5 -61 -25
-108 -45 -75 -33 -135 -48 -271 -71 -31 -5 -44 -1 -89 30 -29 20 -58 36 -66
36 -31 0 -21 -23 39 -85 54 -55 70 -65 98 -65 56 0 162 19 201 36 40 18 68 13
68 -11 0 -8 -25 -42 -56 -76 -30 -33 -54 -65 -52 -71 2 -6 22 -16 45 -23 84
-25 161 -98 139 -133 -8 -14 -87 -32 -143 -33 -115 -2 -129 -27 -34 -63 38
-15 72 -34 75 -42 3 -8 -7 -38 -23 -67 -23 -43 -34 -53 -64 -60 -43 -10 -46
-25 -14 -55 28 -26 69 -42 111 -42 42 0 56 -15 56 -61 0 -51 20 -65 69 -50 21
6 41 11 45 11 13 0 5 -33 -20 -86 -14 -30 -23 -61 -21 -68 3 -8 25 -17 49 -21
73 -11 78 -14 78 -46 0 -53 -120 -119 -245 -134 -33 -4 -72 -14 -87 -21 -31
-16 -58 -61 -58 -98 0 -54 -20 -69 -60 -44 -16 11 -23 9 -41 -11 -27 -28 -51
-23 -124 26 -60 39 -89 40 -125 1 -27 -29 -22 -40 28 -57 28 -9 47 -22 57 -41
22 -43 69 -77 118 -84 52 -8 77 0 77 23 0 10 6 25 13 34 16 23 143 52 307 72
145 17 206 30 215 45 11 18 55 11 73 -12 45 -55 47 -57 110 -51 55 5 62 3 112
-31 29 -20 56 -36 61 -36 6 0 26 -7 46 -15 l37 -16 -44 -44 c-24 -24 -66 -55
-94 -69 -28 -13 -78 -40 -111 -60 -58 -36 -60 -38 -72 -97 -7 -34 -19 -72 -28
-85 -20 -30 -86 -48 -149 -39 -60 7 -152 49 -169 76 -7 12 -23 19 -42 19 -38
0 -175 -66 -230 -110 -50 -40 -88 -60 -115 -60 -33 0 -36 -28 -6 -59 50 -52
21 -81 -67 -67 -83 12 -81 13 -99 -24 -12 -23 -18 -58 -18 -103 0 -38 -5 -77
-10 -87 -9 -17 -6 -20 26 -26 85 -16 196 16 232 67 7 10 20 19 29 19 14 0 15
-10 10 -75 -4 -41 -5 -75 -3 -75 2 0 48 14 102 30 54 17 103 29 110 26 6 -2
14 -20 18 -40 4 -21 14 -37 25 -41 28 -8 113 13 136 35 46 44 194 87 209 61 4
-6 2 -20 -4 -32 -16 -28 -8 -33 58 -39 48 -4 57 -8 57 -25 0 -14 -11 -22 -45
-30 -38 -9 -45 -15 -48 -37 -3 -24 2 -28 37 -39 48 -14 83 -44 79 -67 -2 -9
-23 -28 -48 -42 -28 -16 -54 -42 -68 -68 -27 -49 -44 -53 -58 -14 -8 22 -21
31 -60 41 -58 16 -279 14 -309 -2 -11 -6 -55 -11 -98 -12 -69 0 -81 3 -96 21
-17 21 -18 21 -29 3 -7 -10 -24 -21 -39 -25 -16 -3 -41 -12 -58 -19 -16 -7
-66 -18 -109 -24 -124 -17 -140 -46 -48 -87 83 -37 96 -36 102 6 4 27 13 39
41 54 48 26 84 16 103 -28 16 -38 46 -62 97 -76 38 -11 69 -5 69 15 0 20 24
25 112 25 73 0 84 3 114 28 119 97 109 95 150 31 22 -36 28 -39 69 -39 25 0
96 17 164 40 132 45 149 47 191 25 37 -19 39 -49 5 -71 -23 -15 -137 -58 -240
-91 -91 -29 -103 -35 -108 -54 -6 -22 28 -69 49 -69 8 0 14 7 14 15 0 20 58
55 92 55 15 0 43 8 63 17 38 18 53 14 104 -28 l24 -19 -53 -51 c-35 -34 -49
-54 -43 -60 14 -14 79 -28 131 -29 39 0 42 -2 41 -27 0 -16 -3 -46 -7 -68 l-7
-40 -52 0 c-36 0 -57 -6 -72 -19 -29 -26 -27 -38 14 -75 46 -41 47 -74 3 -101
-18 -11 -41 -20 -50 -20 -9 0 -78 32 -153 71 l-137 71 -28 -27 c-26 -25 -34
-27 -82 -22 -31 3 -90 22 -141 46 -48 22 -107 45 -130 52 -23 6 -56 19 -73 30
-40 24 -55 24 -105 -2 -43 -22 -69 -20 -69 6 0 23 -78 104 -125 128 -30 16
-58 21 -116 22 -70 0 -80 -3 -136 -37 -70 -43 -154 -68 -233 -68 -64 0 -163
-15 -217 -33 -27 -8 -43 -22 -55 -47 -18 -35 -24 -107 -10 -125 4 -6 80 -10
192 -10 102 0 219 -2 261 -4 69 -4 78 -2 114 22 22 15 50 27 62 27 20 0 22 -5
25 -63 l3 -62 46 -3 c29 -2 65 5 98 18 28 11 63 20 77 20 14 0 48 10 75 21 27
12 53 19 57 15 4 -4 9 -43 11 -87 3 -66 0 -83 -15 -100 -23 -25 -14 -32 40
-31 29 1 72 14 118 35 40 19 84 38 98 42 14 4 47 19 74 32 26 13 54 22 62 19
23 -9 16 -43 -16 -75 l-31 -30 41 -21 c23 -12 43 -27 47 -35 7 -19 43 -19 57
0 8 11 34 16 89 17 67 3 81 0 92 -16 14 -18 48 -18 1137 -13 1104 6 1240 10
1498 43 385 49 696 160 988 353 544 359 868 889 966 1581 41 285 41 301 41
3115 0 2808 0 2827 -40 3145 -67 524 -279 971 -625 1319 -174 175 -336 292
-558 404 -259 131 -489 196 -867 244 -118 15 -389 17 -2925 18 -1537 1 -2817
0 -2845 -1z m2115 -2554 c0 -20 -5 -30 -15 -30 -15 0 -21 40 -8 53 14 15 23 6
23 -23z m-2114 -391 c3 -6 0 -15 -7 -20 -21 -14 -53 -6 -57 14 -3 13 3 17 27
17 16 0 33 -5 37 -11z m462 -665 c14 -29 1 -64 -24 -64 -25 0 -54 19 -54 36 0
53 58 74 78 28z m1298 -9 c14 -55 -46 -77 -65 -24 -13 39 -8 49 29 49 23 0 31
-5 36 -25z m-1970 -274 c-4 -6 -13 -11 -21 -11 -18 0 -28 32 -13 41 16 10 43
-15 34 -30z m188 -326 c9 -23 -6 -55 -25 -55 -15 0 -19 7 -19 33 0 19 3 36 6
40 9 8 32 -2 38 -18z m2223 -1240 c3 -9 3 -18 0 -21 -10 -10 -47 7 -47 22 0
19 39 18 47 -1z m848 -797 c36 -16 32 -66 -7 -88 -25 -13 -31 -13 -55 0 -18
10 -29 26 -31 43 -6 52 35 72 93 45z m-354 -2178 c17 0 9 -49 -10 -60 -24 -12
-88 -13 -95 -2 -14 23 52 76 82 66 8 -2 18 -4 23 -4z m-3516 -550 c8 -13 -31
-50 -54 -50 -26 0 -34 15 -21 40 11 21 64 28 75 10z m1215 -79 c0 -33 -16 -49
-33 -32 -7 7 -7 18 1 36 16 34 32 32 32 -4z m1894 -237 c23 -9 20 -31 -5 -39
-26 -9 -33 -2 -24 24 7 23 7 23 29 15z m31 -400 c53 -26 60 -33 63 -61 7 -67
-39 -98 -99 -67 -18 9 -64 20 -102 24 -103 12 -131 48 -86 112 21 29 23 30 93
26 52 -3 87 -12 131 -34z m1361 -25 c8 -13 -3 -24 -33 -34 -28 -8 -32 19 -5
34 22 13 29 13 38 0z"/>
<path d="M3626 9309 c-23 -27 -34 -59 -21 -59 12 0 75 64 75 76 0 24 -27 15
-54 -17z"/>
<path d="M3423 8473 c-16 -16 -57 -65 -90 -109 -61 -80 -87 -102 -98 -84 -4 6
-20 10 -37 10 -24 0 -44 -14 -96 -67 -68 -67 -72 -91 -11 -54 22 13 51 21 81
21 37 0 50 4 58 20 16 30 54 25 84 -11 14 -17 26 -35 26 -40 0 -18 28 -8 33
12 8 28 -1 47 -24 54 -38 12 -14 55 30 55 15 -1 37 -7 50 -14 20 -11 30 -11
67 3 24 9 46 19 48 22 3 3 10 29 16 58 5 29 19 64 30 78 25 33 17 44 -29 42
-22 -2 -47 4 -61 14 -33 23 -43 22 -77 -10z"/>
<path d="M3680 8348 c-56 -28 -63 -53 -19 -62 38 -7 239 -8 239 -1 0 3 -7 17
-16 31 -38 57 -127 71 -204 32z"/>
<path d="M4015 8305 c-22 -7 -53 -16 -68 -19 -19 -5 -33 -18 -45 -42 -16 -35
-16 -36 8 -54 14 -11 32 -21 42 -23 18 -5 125 77 151 116 14 22 15 26 1 31
-22 8 -43 6 -89 -9z"/>
<path d="M2868 8103 c-46 -25 -69 -53 -45 -53 24 0 127 54 127 67 0 20 -31 15
-82 -14z"/>
<path d="M3259 8030 c-21 -4 -44 -14 -54 -23 -9 -9 -32 -17 -50 -17 -46 0 -50
-12 -23 -60 22 -38 25 -40 58 -35 73 14 120 55 120 107 0 33 -6 36 -51 28z"/>
<path d="M3262 7693 c4 -21 33 -25 33 -3 0 8 -8 16 -18 18 -14 3 -18 -1 -15
-15z"/>
<path d="M3400 7670 c0 -5 -13 -24 -29 -43 -36 -40 -48 -81 -31 -102 18 -22
28 -19 45 14 15 31 32 141 21 141 -3 0 -6 -4 -6 -10z"/>
<path d="M4079 7581 c-13 -10 -32 -33 -42 -50 l-18 -31 26 -10 c33 -13 57 -13
89 0 22 8 26 16 26 48 0 61 -35 80 -81 43z"/>
<path d="M3645 7466 c-19 -13 -18 -16 21 -54 45 -46 86 -61 110 -41 25 21 12
52 -31 75 -58 32 -79 36 -100 20z"/>
<path d="M4116 7319 l-29 -23 34 -28 c35 -29 76 -36 110 -18 25 14 24 32 -4
58 -36 34 -77 38 -111 11z"/>
<path d="M3956 7244 c-4 -11 -1 -14 11 -12 9 2 18 9 21 16 6 18 -25 15 -32 -4z"/>
<path d="M4096 7051 c-3 -5 0 -11 8 -14 15 -6 26 1 26 15 0 11 -27 10 -34 -1z"/>
<path d="M2741 6176 c-5 -12 -31 -42 -58 -65 -54 -46 -51 -55 24 -67 55 -8 78
1 103 40 26 43 26 45 -11 84 -36 38 -47 40 -58 8z"/>
<path d="M3631 5983 c-1 -36 3 -63 9 -63 12 0 12 77 0 105 -6 14 -9 2 -9 -42z"/>
<path d="M3483 5935 c-3 -9 -3 -18 0 -21 9 -9 27 6 27 22 0 19 -19 18 -27 -1z"/>
<path d="M3935 5702 c-65 -49 -71 -72 -17 -72 56 0 150 21 163 36 6 7 8 18 4
24 -7 11 -79 50 -92 50 -4 0 -30 -17 -58 -38z"/>
<path d="M3475 5570 c-16 -31 -16 -32 7 -28 24 3 36 34 20 50 -7 7 -16 0 -27
-22z"/>
<path d="M4322 5548 c-13 -13 -17 -88 -4 -88 10 0 52 73 52 89 0 15 -33 14
-48 -1z"/>
<path d="M3126 5331 c-7 -11 22 -23 35 -15 5 3 9 9 9 15 0 12 -37 12 -44 0z"/>
<path d="M2833 5223 c9 -2 25 -2 35 0 9 3 1 5 -18 5 -19 0 -27 -2 -17 -5z"/>
<path d="M3845 4990 c-11 -5 -32 -9 -46 -9 -15 -1 -30 -8 -33 -17 -9 -23 -7
-174 2 -174 4 0 16 10 26 21 18 21 23 22 161 15 78 -4 149 -4 158 0 11 4 17
17 17 35 0 34 -19 46 -104 66 -33 7 -80 27 -105 43 -49 33 -47 32 -76 20z"/>
<path d="M2749 4645 c-52 -29 -81 -43 -249 -120 -137 -63 -156 -76 -147 -99
10 -27 53 -18 98 20 75 63 184 108 289 120 60 7 60 7 105 -35 37 -34 51 -41
85 -41 23 0 50 5 61 10 18 10 49 59 49 79 0 15 -62 45 -144 70 -86 27 -93 26
-147 -4z"/>
<path d="M3170 4595 c-10 -12 -9 -16 4 -21 22 -8 46 2 46 21 0 19 -34 20 -50
0z"/>
<path d="M3295 4550 c-4 -6 2 -21 13 -33 11 -12 25 -33 32 -46 10 -20 17 -22
48 -17 39 6 56 20 67 53 5 18 1 25 -17 32 -43 16 -136 23 -143 11z"/>
<path d="M4186 4534 c-7 -18 0 -34 15 -34 5 0 9 11 9 25 0 28 -15 34 -24 9z"/>
<path d="M3057 4396 c-6 -15 1 -26 15 -26 4 0 8 9 8 20 0 23 -15 27 -23 6z"/>
<path d="M2505 4332 c-45 -38 -49 -50 -30 -86 23 -43 16 -60 -40 -93 -69 -42
-83 -113 -22 -113 25 0 43 12 92 63 97 100 116 166 62 225 -24 26 -35 27 -62
4z"/>
<path d="M4269 4329 c-18 -18 -21 -29 -16 -70 7 -58 22 -89 43 -89 19 0 52 73
60 134 l7 46 -37 0 c-23 0 -43 -7 -57 -21z"/>
<path d="M2314 4209 c-10 -17 13 -36 27 -22 12 12 4 33 -11 33 -5 0 -12 -5
-16 -11z"/>
<path d="M2269 4123 c-10 -28 1 -50 20 -39 14 9 14 66 1 66 -6 0 -15 -12 -21
-27z"/>
<path d="M2935 4090 c-18 -19 -17 -20 1 -20 20 0 44 17 44 32 0 15 -27 8 -45
-12z"/>
<path d="M4480 4060 c-19 -11 -43 -19 -52 -20 -30 0 -29 -19 2 -35 28 -14 31
-21 28 -53 -2 -29 1 -37 15 -40 28 -6 43 14 61 79 14 47 15 63 5 75 -14 18
-16 17 -59 -6z"/>
<path d="M2786 4034 c-18 -18 -13 -34 11 -34 15 0 42 27 43 43 0 13 -38 7 -54
-9z"/>
<path d="M2128 4029 c-21 -12 -23 -37 -6 -74 17 -39 33 -25 36 33 3 54 -1 59
-30 41z"/>
<path d="M2204 3926 c-33 -34 -101 -89 -150 -123 -163 -113 -193 -147 -136
-158 15 -3 40 -10 56 -15 25 -8 32 -6 44 13 27 39 115 118 156 139 22 11 67
23 100 25 70 6 96 17 96 39 0 23 -81 144 -94 142 -6 -1 -38 -29 -72 -62z"/>
<path d="M3986 3915 c-11 -8 -32 -15 -46 -15 -15 0 -35 -9 -45 -20 -9 -10 -38
-27 -64 -36 -60 -23 -71 -32 -71 -59 0 -16 11 -30 34 -44 40 -25 63 -26 87 -5
23 21 158 67 175 60 8 -3 14 -26 16 -58 2 -42 7 -54 21 -56 30 -6 184 19 203
32 10 8 18 32 21 63 5 47 3 52 -28 81 -37 35 -50 38 -78 20 -16 -10 -29 -7
-75 16 -68 34 -124 42 -150 21z"/>
<path d="M3345 3560 c-9 -28 3 -44 21 -29 18 15 18 35 0 42 -9 4 -17 -2 -21
-13z"/>
<path d="M2009 3539 c-16 -30 3 -45 25 -20 10 11 15 25 11 30 -10 17 -23 13
-36 -10z"/>
<path d="M4562 3455 c-18 -8 -47 -24 -63 -36 -21 -15 -39 -20 -59 -16 -20 4
-36 0 -52 -12 -22 -19 -22 -19 74 -26 53 -4 101 -4 107 -1 6 4 13 22 17 41 3
20 10 38 15 41 11 6 12 24 2 24 -5 -1 -23 -7 -41 -15z"/>
<path d="M2328 3406 c-55 -44 -94 -93 -84 -103 4 -5 56 16 126 50 34 17 56 63
40 83 -18 20 -22 19 -82 -30z"/>
<path d="M3387 3365 c-35 -36 -71 -65 -80 -65 -10 0 -35 12 -57 26 -22 15 -60
29 -86 32 -35 4 -48 10 -56 28 -17 37 -37 37 -72 -1 -40 -42 -103 -72 -119
-56 -19 19 -43 12 -154 -43 -104 -53 -139 -78 -179 -128 -10 -13 -34 -34 -51
-46 -58 -41 -45 -45 110 -39 l142 6 26 -31 c34 -41 58 -34 141 36 69 58 101
71 196 80 88 8 105 2 128 -47 24 -53 45 -58 66 -14 9 19 40 62 70 96 82 97 98
123 98 156 0 35 -24 75 -46 75 -8 0 -42 -29 -77 -65z m-397 -99 c0 -15 -84
-96 -99 -96 -26 0 -41 15 -41 40 0 33 9 40 65 57 55 15 75 15 75 -1z"/>
<path d="M4230 3420 c0 -5 9 -10 20 -10 11 0 20 5 20 10 0 6 -9 10 -20 10 -11
0 -20 -4 -20 -10z"/>
<path d="M3599 3341 l-24 -19 27 -7 c31 -8 43 -2 58 26 9 16 7 19 -14 19 -13
0 -34 -9 -47 -19z"/>
<path d="M4625 3310 c-28 -31 -12 -47 75 -74 90 -29 135 -33 143 -12 6 16 -43
42 -99 52 -22 3 -48 14 -59 24 -34 29 -42 30 -60 10z"/>
<path d="M3774 3095 c-20 -51 47 -106 104 -87 38 12 40 39 5 54 -15 7 -39 20
-52 30 -29 22 -50 23 -57 3z"/>
<path d="M3940 2999 c0 -45 63 -174 106 -215 64 -63 196 -106 210 -70 14 36
-153 221 -250 276 -61 35 -66 36 -66 9z"/>
<path d="M3648 2950 c-31 -56 -35 -80 -14 -80 15 0 50 89 44 114 -2 9 -15 -7
-30 -34z"/>
<path d="M3333 2953 c-7 -3 -13 -9 -13 -14 0 -12 37 -12 44 0 7 11 -14 20 -31
14z"/>
<path d="M3075 2894 c-21 -14 -59 -41 -83 -60 -55 -42 -78 -43 -100 -4 -19 34
-46 39 -61 11 -8 -14 -5 -26 14 -51 19 -25 22 -37 14 -47 -18 -21 -102 -40
-270 -62 -179 -24 -209 -32 -209 -60 0 -21 44 -61 68 -61 8 0 41 18 74 40 65
43 112 60 170 60 53 0 88 -44 88 -111 0 -27 5 -49 10 -49 42 0 140 96 160 156
6 19 17 34 24 34 6 0 35 18 65 40 32 24 64 40 80 40 32 0 56 23 72 68 9 26 8
37 -5 57 -22 33 -62 33 -111 -1z"/>
<path d="M3650 2821 c0 -23 25 -47 35 -31 10 16 -4 50 -21 50 -8 0 -14 -8 -14
-19z"/>
<path d="M3777 2823 c-14 -13 -6 -33 18 -49 20 -13 28 -14 40 -4 19 16 19 25
-1 44 -16 16 -46 21 -57 9z"/>
<path d="M4356 2774 c-11 -29 -6 -82 9 -97 8 -9 28 -18 45 -22 35 -8 58 -41
41 -58 -17 -17 -13 -52 8 -71 11 -10 45 -24 77 -32 l58 -16 72 37 c40 21 91
53 114 72 61 53 45 63 -97 63 -132 0 -154 8 -246 89 -63 55 -72 59 -81 35z"/>
<path d="M4886 2766 c8 -22 36 -30 32 -9 -2 10 -11 19 -21 21 -12 2 -15 -1
-11 -12z"/>
<path d="M3436 2658 c-8 -47 1 -61 35 -56 32 4 36 37 9 71 -29 37 -36 34 -44
-15z"/>
<path d="M4871 2559 c-66 -55 -89 -120 -53 -152 21 -19 42 -22 42 -7 0 19 75
93 108 107 17 7 32 17 32 21 0 12 -65 52 -86 52 -10 -1 -30 -10 -43 -21z"/>
<path d="M4322 2558 c-15 -15 -15 -35 -2 -43 15 -10 50 5 50 20 0 21 -34 37
-48 23z"/>
<path d="M3117 2540 c-60 -18 -76 -55 -29 -66 15 -3 44 -18 65 -32 47 -31 133
-43 143 -19 9 24 -34 80 -55 72 -31 -12 -36 -10 -50 23 -15 33 -26 36 -74 22z"/>
<path d="M4142 2394 c4 -24 68 -73 98 -76 35 -4 41 36 8 53 -13 6 -27 18 -31
25 -4 8 -24 14 -43 14 -28 0 -35 -4 -32 -16z"/>
<path d="M3405 2328 c-13 -20 -14 -23 -1 -26 21 -5 56 16 56 33 0 23 -37 18
-55 -7z"/>
<path d="M4320 2278 c0 -30 -9 -42 -45 -61 l-30 -16 31 -1 c84 -1 113 23 93
78 -11 30 -49 30 -49 0z"/>
<path d="M5382 2267 c-18 -18 -32 -36 -32 -40 0 -4 21 -7 46 -7 l45 0 -3 37
c-2 20 -8 38 -13 40 -6 2 -25 -12 -43 -30z"/>
<path d="M2187 2144 c-36 -19 -32 -48 6 -52 35 -4 77 22 77 48 0 25 -41 27
-83 4z"/>
<path d="M3380 2120 c0 -5 -17 -21 -39 -34 -43 -27 -69 -80 -78 -158 -5 -39
-1 -60 17 -97 l22 -49 43 45 c51 52 75 53 89 4 9 -31 7 -36 -25 -62 -33 -29
-34 -29 -14 -44 11 -9 29 -14 40 -13 19 3 20 11 23 211 l2 207 -40 0 c-22 0
-40 -4 -40 -10z"/>
<path d="M3856 2079 c-11 -55 -7 -334 5 -346 8 -8 20 -7 45 3 38 16 54 14 169
-24 93 -30 161 -32 254 -8 35 10 87 19 115 21 49 3 51 5 54 34 3 25 -2 33 -29
46 -25 13 -37 15 -56 6 -45 -21 -76 -12 -180 54 -56 36 -105 65 -108 65 -12 0
-4 -35 16 -66 24 -40 19 -54 -21 -54 -33 0 -56 27 -94 111 -19 39 -22 57 -15
71 6 11 9 31 7 46 -3 31 -46 56 -114 67 -40 6 -41 5 -48 -26z"/>
<path d="M4565 2070 c-9 -14 44 -32 72 -25 13 3 23 12 23 20 0 11 -12 15 -44
15 -25 0 -48 -5 -51 -10z"/>
<path d="M4965 1970 c6 -10 98 -60 109 -60 18 0 -13 34 -45 50 -41 22 -74 26
-64 10z"/>
<path d="M4697 1944 c-14 -15 -6 -23 30 -33 39 -11 67 0 48 18 -14 13 -70 23
-78 15z"/>
<path d="M2762 1808 c-15 -20 -23 -54 -16 -72 9 -23 60 -20 84 4 24 24 24 29
4 58 -17 24 -56 29 -72 10z"/>
<path d="M2545 1419 c-9 -28 8 -43 39 -35 28 7 33 25 14 44 -19 19 -46 14 -53
-9z"/>
<path d="M4322 1327 c-19 -26 -42 -101 -33 -110 5 -5 33 0 67 12 33 11 70 22
84 23 20 2 26 9 28 36 4 37 1 38 -80 45 -37 4 -60 1 -66 -6z"/>
<path d="M5473 593 c-7 -2 -13 -11 -13 -20 0 -21 44 -13 48 10 3 17 -10 21
-35 10z"/>
<path d="M2906 539 c-25 -42 -16 -44 11 -3 12 19 19 34 15 34 -4 0 -16 -14
-26 -31z"/>
<path d="M5600 561 c-28 -8 -39 -39 -18 -52 25 -16 77 -10 99 12 12 12 17 25
12 30 -13 13 -64 19 -93 10z"/>
<path d="M5405 506 c-30 -30 -32 -52 -6 -66 16 -8 23 -6 35 12 18 25 21 64 6
73 -5 3 -21 -5 -35 -19z"/>
<path d="M3334 227 c-27 -25 -56 -56 -63 -70 -8 -14 -26 -31 -42 -37 -24 -10
-89 -93 -89 -113 0 -4 74 -7 164 -7 l164 0 -5 107 c-3 60 -10 119 -17 133 -19
42 -55 38 -112 -13z"/>
<path d="M1587 202 c-10 -10 -17 -30 -17 -44 0 -23 6 -27 51 -38 50 -12 51
-12 81 18 35 34 31 48 -18 68 -45 19 -78 18 -97 -4z"/>
<path d="M2470 168 c-12 -26 -20 -65 -20 -100 l0 -58 50 0 c45 0 50 2 56 26 8
32 -2 107 -19 142 -20 43 -45 40 -67 -10z"/>
<path d="M2157 51 l-28 -18 23 -7 c13 -3 48 -6 78 -5 l55 0 -45 24 c-55 29
-49 29 -83 6z"/>
</g>
</svg>
