<?xml version="1.0" standalone="no"?>
<!DOCTYPE svg PUBLIC "-//W3C//DTD SVG 20010904//EN"
 "http://www.w3.org/TR/2001/REC-SVG-20010904/DTD/svg10.dtd">
<svg version="1.0" xmlns="http://www.w3.org/2000/svg"
 width="450.000000pt" height="643.000000pt" viewBox="0 0 450.000000 643.000000"
 preserveAspectRatio="xMidYMid meet">
<metadata>
Created by potrace 1.10, written by Peter Selinger 2001-2011
</metadata>
<g transform="translate(0.000000,643.000000) scale(0.100000,-0.100000)"
fill="rgb(72, 88, 150)" stroke="rgb(72, 88, 150)">
<path d="M1277 6073 c-3 -5 7 -15 23 -22 16 -7 44 -31 62 -53 17 -22 63 -60
101 -85 88 -56 113 -83 149 -160 17 -35 36 -63 43 -63 8 0 17 -25 25 -67 7
-38 20 -99 30 -138 10 -38 21 -90 25 -115 l6 -45 -31 35 c-16 19 -51 69 -77
110 -25 41 -53 83 -61 92 -8 10 -12 26 -9 37 6 24 -10 51 -21 34 -5 -8 -11 -4
-19 13 -10 21 -9 23 8 13 13 -7 19 -6 19 1 0 6 -13 13 -30 17 -16 3 -30 9 -30
13 0 12 -81 100 -91 100 -6 0 1 -21 15 -47 30 -58 100 -218 111 -253 4 -14 18
-43 30 -65 24 -43 60 -163 51 -172 -2 -3 -22 8 -43 23 -53 40 -60 48 -64 69
-4 18 -5 18 -21 1 -18 -17 -25 -42 -10 -32 4 2 27 -13 52 -35 24 -21 39 -39
33 -39 -18 0 6 -40 47 -79 l35 -33 -33 19 c-33 18 -158 146 -190 195 -24 37
-72 99 -101 131 -14 15 -20 27 -14 27 6 0 31 -22 56 -49 33 -36 47 -45 51 -34
9 24 5 40 -4 18 -8 -18 -9 -17 -9 8 -1 17 -15 46 -35 70 -37 46 -67 101 -86
160 -12 37 -30 198 -24 206 9 11 35 -76 49 -163 14 -91 63 -220 65 -171 0 17
2 17 10 5 6 -10 6 -16 0 -18 -12 -4 44 -62 59 -62 16 0 15 2 -28 85 -22 41
-47 108 -56 148 -9 39 -21 94 -27 122 -6 27 -22 72 -34 100 -13 27 -24 60 -24
73 0 12 -5 22 -11 22 -16 0 -2 -65 27 -122 25 -50 29 -68 16 -68 -5 0 -15 18
-22 40 -8 25 -18 39 -26 36 -26 -10 -32 55 -10 109 17 41 6 47 -15 9 -18 -34
-16 -80 9 -251 19 -128 24 -148 57 -199 20 -31 34 -58 32 -61 -3 -2 -17 7 -33
19 -37 30 -111 78 -121 78 -3 0 20 -25 51 -57 32 -31 102 -115 156 -187 105
-142 194 -237 240 -258 17 -7 30 -16 30 -20 0 -12 93 -98 122 -114 17 -9 29
-25 33 -46 4 -18 11 -37 14 -43 14 -19 40 -99 66 -198 l25 -98 -29 -30 c-28
-28 -30 -28 -43 -10 -7 10 -35 33 -63 50 -27 17 -66 49 -85 71 -44 50 -46 48
-128 -88 -59 -99 -76 -152 -52 -167 6 -3 10 2 10 12 0 10 7 31 15 47 8 15 15
34 15 41 0 7 3 15 8 17 4 2 22 32 41 68 48 92 50 94 72 74 11 -10 19 -22 19
-28 0 -6 30 -31 67 -56 38 -25 69 -54 71 -63 2 -9 -7 -31 -19 -48 l-22 -32
-11 24 c-9 22 -10 19 -16 -26 l-6 -50 -8 40 c-4 22 -14 60 -22 85 l-14 45 5
-50 c2 -34 1 -44 -5 -30 -5 11 -9 46 -9 79 -1 47 -4 57 -16 52 -11 -4 -15 1
-15 19 0 14 -4 25 -10 25 -5 0 -10 -16 -10 -35 0 -19 -5 -35 -10 -35 -16 0
-10 -159 7 -198 15 -35 14 -65 -2 -60 -5 2 -9 6 -7 11 1 4 -7 7 -18 7 -11 0
-20 5 -20 10 0 6 -6 10 -14 10 -10 0 -13 10 -9 38 3 24 -1 44 -10 57 -14 18
-15 16 -10 -28 5 -39 3 -47 -11 -47 -9 0 -20 -9 -24 -19 -7 -19 -9 -19 -67 4
-33 14 -61 29 -63 35 -2 5 -11 10 -20 10 -33 0 38 -48 96 -65 65 -19 69 -21
97 -38 59 -35 106 -76 132 -114 39 -59 58 -53 59 17 0 65 20 164 41 204 23 44
97 134 111 135 6 1 12 -1 12 -3 0 -3 7 -38 16 -78 8 -40 19 -104 23 -142 7
-65 6 -72 -21 -120 l-29 -51 4 70 c5 71 11 107 22 125 3 6 1 10 -4 10 -6 0
-11 12 -12 28 0 24 -1 25 -9 7 -5 -11 -11 -29 -14 -39 -4 -10 -9 -16 -12 -13
-5 5 16 101 32 141 5 14 3 17 -11 15 -19 -4 -19 -5 -31 -156 -5 -74 5 -200 22
-262 6 -20 4 -23 -10 -18 -13 5 -17 2 -15 -11 1 -9 -1 -24 -4 -32 -9 -22 -19
-175 -17 -255 1 -38 -1 -68 -3 -65 -3 3 -12 34 -20 70 -9 36 -23 79 -31 95
-21 40 -20 22 4 -49 11 -33 20 -79 20 -103 0 -23 5 -43 10 -43 6 0 10 -12 10
-27 -1 -27 -1 -27 -15 -9 -17 23 -19 17 -5 -18 12 -32 2 -116 -14 -116 -7 0
-41 44 -77 98 -77 118 -79 119 -106 169 -12 21 -33 52 -46 69 -14 16 -37 43
-50 59 -14 17 -28 27 -31 24 -6 -6 20 -89 47 -151 61 -140 116 -289 122 -331
3 -22 1 -26 -11 -19 -26 15 -103 115 -139 182 -20 36 -40 72 -44 80 -10 16
-48 101 -62 137 -5 13 -13 23 -19 23 -5 0 -1 -17 9 -37 11 -21 40 -81 65 -134
25 -52 57 -112 71 -133 14 -21 24 -40 22 -42 -10 -10 -62 62 -113 156 -62 115
-149 244 -185 275 l-23 20 14 -21 c8 -12 33 -46 56 -75 22 -30 53 -76 69 -104
40 -72 105 -198 105 -204 0 -20 -83 88 -118 154 -45 85 -99 160 -171 241 -34
38 -42 44 -36 24 7 -25 7 -25 -26 5 -19 17 -36 33 -39 36 -3 4 -24 17 -48 29
-23 12 -45 26 -48 31 -3 5 -10 9 -16 9 -6 0 -1 -11 12 -25 13 -14 29 -25 35
-25 6 0 29 -16 51 -36 21 -19 31 -33 22 -30 -10 3 -18 1 -18 -5 0 -7 10 -9 24
-5 23 6 45 -8 32 -21 -14 -15 -63 14 -126 74 -39 36 -73 63 -76 60 -13 -13
120 -136 185 -171 56 -29 79 -49 124 -108 30 -40 83 -108 116 -150 34 -42 61
-80 61 -83 0 -4 -12 2 -27 13 -16 11 -53 32 -83 47 -30 15 -63 34 -73 43 -9 8
-20 12 -24 8 -4 -3 4 -14 18 -23 13 -9 56 -49 94 -89 78 -81 155 -146 263
-221 40 -28 101 -82 136 -120 37 -39 89 -82 124 -102 54 -30 64 -41 82 -87 12
-29 23 -79 25 -111 1 -32 7 -78 13 -103 6 -25 11 -108 12 -185 1 -77 2 -144 2
-150 0 -5 -3 -77 -6 -160 -10 -228 -21 -791 -20 -1062 0 -209 -2 -240 -14
-230 -12 10 -14 7 -8 -18 8 -39 15 -95 22 -175 3 -36 8 -72 11 -80 2 -8 6 -36
7 -62 2 -26 13 -63 25 -84 16 -26 22 -54 23 -96 1 -37 4 -54 9 -46 6 8 9 2 9
-20 0 -25 5 -35 20 -39 14 -4 20 -14 20 -34 0 -16 -4 -29 -10 -29 -5 0 -10 7
-10 15 0 19 -64 109 -110 155 -19 19 -34 39 -32 43 3 9 -41 96 -71 140 -32 47
-1 29 53 -30 55 -62 82 -114 78 -147 -2 -13 3 -21 12 -21 38 0 -2 116 -59 169
-25 24 -31 38 -31 70 0 65 -78 306 -117 364 -30 46 -40 67 -37 85 1 10 -3 16
-11 15 -15 -3 -65 50 -65 69 0 26 20 22 52 -10 71 -72 192 -357 205 -484 6
-58 23 -73 23 -20 0 80 -38 202 -104 334 -20 39 -36 74 -36 77 0 7 -66 103
-88 129 -14 15 -12 28 21 135 21 64 37 122 37 127 0 6 25 76 56 158 32 81 54
150 51 154 -12 11 -77 -59 -110 -119 -36 -65 -50 -64 -37 2 5 25 9 74 10 110
0 70 6 83 71 158 41 47 48 80 55 257 2 55 8 116 14 135 13 44 12 60 -1 38 -5
-10 -16 -18 -23 -18 -28 0 -99 -191 -115 -310 -5 -41 -13 -133 -17 -203 -3
-71 -8 -126 -10 -124 -3 2 -5 69 -6 148 -2 139 14 273 33 285 5 3 9 16 9 30 0
14 9 43 21 65 25 51 18 64 -10 18 -24 -38 -44 -106 -60 -194 -15 -78 -14 -495
0 -475 10 14 9 2 -3 -70 -2 -8 1 -17 7 -18 5 -2 24 30 42 72 28 66 61 122 96
161 4 6 -2 -15 -14 -45 -12 -30 -35 -95 -52 -145 -16 -49 -34 -99 -38 -110 -5
-11 -11 -38 -14 -59 -7 -60 -25 -70 -25 -14 0 25 -8 101 -19 169 -13 92 -17
167 -15 289 3 178 12 318 20 332 3 5 1 15 -6 23 -15 19 44 129 85 158 17 12
32 24 35 29 3 4 26 17 50 28 25 12 34 19 20 16 -14 -3 -30 -6 -37 -6 -25 0
-135 -103 -155 -145 -20 -41 -22 -43 -43 -29 -34 22 -88 160 -106 272 -5 36
-12 69 -16 74 -14 24 -57 -105 -73 -222 -16 -116 -21 -135 -31 -118 -6 9 -9 4
-9 -15 0 -16 4 -26 10 -22 5 3 10 1 10 -4 0 -6 -4 -11 -9 -11 -13 0 -7 -135 9
-220 14 -79 34 -116 27 -52 -3 23 -3 42 -1 42 13 0 21 -52 14 -89 -5 -31 -4
-54 6 -77 18 -43 19 -63 2 -46 -7 7 -34 12 -61 12 -41 0 -60 -7 -109 -40 -33
-22 -62 -40 -63 -40 -2 0 -31 35 -64 78 -33 42 -80 97 -103 122 -23 25 -41 51
-40 57 2 7 -3 10 -11 8 -7 -3 -39 20 -71 51 -68 66 -146 122 -163 117 -6 -2
-14 1 -18 6 -10 18 -25 12 -18 -6 4 -10 -5 -4 -20 12 -34 39 -35 16 -1 -24 14
-17 27 -38 28 -47 4 -25 86 -125 98 -118 5 4 -2 19 -19 38 -46 49 -60 74 -25
42 17 -16 35 -26 39 -22 5 4 -4 18 -19 30 -16 12 -28 25 -28 30 0 4 29 -18 65
-49 36 -32 65 -62 65 -67 0 -5 -4 -7 -9 -4 -5 4 -7 -3 -4 -15 3 -11 11 -23 18
-26 7 -2 19 -18 25 -34 7 -16 16 -29 21 -29 13 0 58 -53 53 -62 -3 -4 -1 -8 4
-8 8 0 46 -43 119 -135 9 -11 22 -27 30 -36 12 -15 11 -16 -10 -12 -12 3 -27
13 -32 23 -14 25 -97 134 -109 142 -28 19 -13 -9 44 -84 l62 -82 -23 -18 c-44
-33 -60 -52 -80 -97 -25 -56 -24 -82 3 -116 l22 -28 -33 6 c-19 4 -37 7 -42 7
-5 0 -9 7 -9 15 0 8 -7 15 -15 15 -8 0 -35 7 -60 16 -63 21 -81 11 -25 -14 58
-26 33 -27 -61 -2 -123 33 -139 22 -21 -15 l67 -21 -80 -14 c-88 -15 -121 -16
-192 -5 -26 5 -58 7 -70 6 -11 -1 -24 3 -28 8 -3 6 -17 11 -31 11 -37 0 -21
16 49 51 34 17 72 40 85 52 15 14 33 21 51 19 22 -3 30 2 34 18 3 12 15 24 26
27 26 7 27 23 2 23 -11 0 -28 -12 -39 -27 -24 -33 -42 -24 -19 9 41 58 55 70
95 78 23 4 42 3 42 -1 0 -5 -11 -9 -24 -9 -30 0 -56 -9 -56 -20 0 -5 22 -8 49
-7 31 1 47 6 44 13 -5 15 20 24 46 17 26 -7 27 -15 1 -31 -28 -17 -28 -47 0
-32 12 6 28 9 38 6 51 -13 72 -15 72 -7 0 6 -16 13 -35 17 -19 3 -35 11 -35
16 0 6 9 8 19 5 14 -3 18 -1 14 9 -6 16 13 19 22 4 4 -6 15 -8 24 -5 10 3 24
-1 31 -10 7 -8 17 -15 23 -15 6 0 0 11 -13 25 -13 14 -24 34 -25 44 -2 25 -32
71 -46 71 -6 0 -8 -7 -5 -16 3 -9 2 -12 -5 -9 -5 4 -7 16 -3 27 4 13 0 24 -13
33 -10 7 -14 17 -10 21 4 5 12 2 16 -5 6 -9 11 -10 15 -2 4 6 0 14 -9 17 -9 4
-14 13 -11 21 3 8 1 11 -4 8 -6 -3 -10 1 -10 9 0 9 -3 16 -7 16 -5 0 -26 27
-48 60 -22 33 -43 60 -47 60 -19 0 2 -39 60 -110 25 -31 39 -56 32 -58 -13 -5
-25 10 -76 91 -20 33 -37 72 -38 88 -1 15 -7 34 -14 41 -6 6 -12 17 -12 24 0
20 -77 185 -94 202 -19 20 -21 4 -3 -23 18 -25 71 -170 132 -355 26 -80 51
-149 56 -155 21 -21 9 -42 -23 -41 -76 0 -125 -22 -168 -75 -62 -79 -103 -119
-120 -119 -24 0 -144 -99 -148 -121 -3 -16 3 -19 32 -19 48 0 108 -25 183 -76
129 -87 244 -76 370 37 24 22 56 41 79 45 32 6 39 3 55 -17 10 -13 16 -25 15
-27 -2 -1 -22 4 -45 12 -29 10 -41 10 -38 3 2 -7 17 -16 33 -21 52 -15 77 -27
71 -32 -3 -4 -27 1 -53 10 -55 18 -100 21 -109 6 -4 -7 7 -10 32 -9 21 2 47
-2 58 -9 16 -9 6 -10 -51 -8 -39 2 -77 0 -85 -5 -16 -10 -15 -10 73 -11 37 0
65 -4 62 -9 -3 -5 -12 -9 -20 -9 -9 0 -14 -6 -12 -12 3 -8 32 -16 69 -20 35
-4 96 -11 134 -16 133 -16 280 -2 337 32 l43 26 40 -43 c81 -88 131 -176 163
-287 17 -58 33 -122 37 -143 l6 -38 -32 17 c-39 20 -62 41 -78 72 -12 22 -8
42 9 42 16 0 50 -43 50 -62 0 -10 5 -18 10 -18 27 0 -4 62 -42 85 -30 17 -32
17 -45 0 -7 -11 -13 -27 -13 -37 0 -25 -7 -23 -35 9 -13 16 -27 25 -30 21 -13
-13 74 -265 125 -365 52 -101 79 -141 130 -192 17 -16 36 -45 42 -63 6 -18 16
-36 21 -39 5 -4 10 -33 11 -65 1 -35 6 -59 14 -62 7 -2 12 7 13 25 l1 28 7
-29 c11 -51 28 -42 22 11 -3 27 -6 74 -5 106 0 39 -4 57 -12 57 -7 0 -14 6
-17 13 -2 6 -3 -10 -1 -38 3 -42 2 -45 -5 -20 -5 17 -14 45 -19 63 -6 17 -8
32 -5 32 11 0 -44 79 -91 130 -28 31 -59 71 -69 89 -9 18 -26 35 -37 38 -13 4
-23 19 -30 47 -6 22 -15 49 -20 58 -20 36 -8 31 30 -12 41 -45 48 -60 29 -60
-5 0 -7 -4 -4 -10 3 -5 14 -10 23 -10 27 0 186 -171 208 -223 10 -26 25 -47
33 -47 10 0 12 -9 8 -36 -9 -51 14 -39 30 17 13 43 13 43 9 7 -4 -34 -2 -38
17 -38 16 0 18 3 8 9 -8 5 -9 11 -3 15 10 6 5 28 -19 94 -5 14 -5 22 2 22 5 0
16 14 23 31 12 28 14 7 20 -182 4 -118 11 -218 16 -223 5 -5 6 94 4 220 -3
136 -9 228 -15 227 -5 -2 -9 1 -9 6 0 17 58 139 69 146 6 3 9 11 6 16 -4 5 15
9 43 9 27 0 78 9 113 21 35 12 83 22 106 23 24 0 43 4 43 8 0 8 -21 22 -35 23
-48 4 -125 19 -125 25 0 20 28 30 56 20 42 -16 127 -14 162 4 17 9 47 36 68
62 l38 46 55 -7 c31 -3 81 -11 113 -17 l56 -10 7 -46 c4 -25 13 -55 20 -66 8
-12 17 -40 21 -63 4 -24 12 -43 18 -43 8 0 11 28 11 88 0 48 4 99 9 115 12 39
-9 35 -24 -5 -7 -18 -14 -27 -17 -21 -6 16 34 73 51 73 11 0 11 9 0 50 -11 44
-11 54 4 80 9 16 20 30 25 30 4 0 7 12 7 26 0 14 -4 23 -9 20 -10 -6 -24 35
-15 44 8 7 74 -70 74 -87 0 -7 4 -13 9 -13 13 0 29 -56 34 -119 4 -56 -23
-132 -57 -160 -18 -15 -22 -51 -6 -51 6 0 10 6 10 13 0 6 19 39 41 72 39 58
40 62 35 121 l-5 62 39 -5 c32 -5 40 -2 40 10 0 10 -6 14 -15 11 -15 -6 -75
16 -75 28 0 3 -3 15 -7 25 -6 16 -5 17 13 3 22 -17 61 -40 69 -40 3 0 5 7 5
15 0 9 6 12 15 9 8 -4 15 -1 15 5 0 10 -19 15 -46 12 -7 -1 -25 4 -40 11 -16
6 -34 12 -40 13 -6 0 -24 16 -40 34 l-29 34 70 -7 c115 -13 138 -14 183 -9 43
6 43 6 22 25 -30 28 -25 35 28 37 61 2 104 -8 96 -21 -5 -7 1 -9 16 -5 13 3
36 -1 54 -10 31 -16 106 -89 133 -130 9 -13 26 -23 38 -23 26 0 55 -24 55 -46
0 -20 -10 -18 -36 7 -18 17 -36 22 -86 22 -81 1 -207 -14 -214 -24 -11 -19
-33 -7 -55 29 -12 20 -23 38 -24 40 -1 1 -10 0 -19 -4 -9 -3 -16 -17 -16 -30
0 -16 -4 -22 -15 -18 -11 5 -13 0 -5 -25 9 -33 3 -151 -8 -163 -4 -4 -7 29 -6
73 2 69 1 79 -10 63 -8 -11 -13 -46 -14 -79 0 -65 -16 -105 -53 -133 -33 -25
-165 -82 -189 -82 -11 0 -20 -4 -20 -10 0 -16 22 -12 96 16 89 33 177 87 200
121 21 33 65 155 53 147 -5 -3 -9 6 -9 20 0 14 5 26 10 26 6 0 10 -4 10 -9 0
-17 55 -24 175 -23 92 0 132 -4 172 -18 28 -10 54 -15 58 -12 3 3 8 -3 11 -14
3 -11 18 -25 33 -31 36 -13 47 3 63 97 18 105 -10 215 -80 308 -30 41 -126
105 -150 100 -11 -3 -1 -11 29 -25 62 -28 117 -85 154 -158 26 -53 30 -71 30
-145 0 -101 -11 -163 -28 -157 -7 3 -11 10 -10 16 2 6 -3 11 -10 11 -7 0 -18
9 -25 20 -8 14 -9 20 -1 20 7 0 9 8 5 23 -4 12 -8 29 -9 37 -1 8 -6 18 -12 22
-5 4 -6 11 -1 15 4 4 14 -1 22 -11 7 -11 17 -17 20 -14 10 11 -7 48 -23 48 -8
0 -13 6 -10 13 2 6 -10 20 -27 31 -36 22 -116 47 -128 40 -4 -3 -20 7 -35 22
l-28 26 65 -6 c40 -4 75 -14 92 -26 15 -11 30 -20 34 -20 4 0 13 -8 20 -17 14
-20 28 -14 19 8 -5 14 -48 43 -96 65 -48 22 -476 35 -601 18 -32 -4 -38 -2
-38 14 0 17 24 48 63 79 9 7 43 27 76 44 34 18 61 36 61 40 0 5 22 20 50 34
50 25 90 32 90 16 0 -15 -48 -41 -74 -41 -15 0 -30 -8 -35 -19 -6 -10 -26 -22
-45 -25 -34 -6 -64 -31 -53 -43 4 -3 22 2 41 11 19 9 40 16 48 17 7 0 32 13
55 27 109 70 135 82 197 94 70 13 92 32 29 24 -73 -9 -108 -19 -126 -34 -17
-15 -17 -14 -9 8 14 37 89 58 220 60 17 0 32 4 32 9 0 5 -42 7 -93 6 -82 -2
-100 -6 -153 -33 -32 -18 -75 -35 -94 -38 -19 -4 -43 -11 -53 -16 -14 -7 -22
-5 -32 9 -7 10 -17 14 -21 10 -5 -4 -2 -12 6 -17 12 -7 10 -13 -10 -34 -13
-15 -29 -26 -37 -26 -7 0 -13 -5 -13 -11 0 -19 -71 -65 -92 -61 -4 1 -14 -11
-23 -27 -8 -16 -31 -43 -52 -60 -38 -31 -40 -41 -3 -19 10 7 22 9 26 5 14 -14
-14 -29 -59 -31 -55 -2 -75 -16 -26 -17 19 -1 39 -1 46 0 7 1 15 -15 19 -35 5
-29 0 -52 -26 -113 -18 -42 -37 -91 -43 -109 -8 -24 -15 -31 -26 -26 -18 8
-95 21 -164 28 -32 3 -53 11 -65 26 -14 17 -28 21 -80 21 -71 1 -139 -31 -169
-79 -10 -15 -24 -32 -32 -38 -8 -6 -11 -16 -7 -22 3 -6 -6 -20 -20 -31 -30
-23 -94 -29 -94 -8 0 7 31 43 68 80 51 50 71 64 79 56 9 -9 13 -2 18 27 12 71
49 144 73 144 12 0 22 24 22 53 0 12 5 29 10 37 7 10 8 1 4 -31 -4 -30 -2 -49
5 -53 6 -4 11 -4 12 1 4 43 13 73 31 98 11 17 17 21 12 10 -4 -11 -12 -39 -18
-62 -6 -23 -20 -50 -29 -61 -14 -15 -15 -21 -5 -24 11 -4 10 -8 -1 -22 -8 -9
-11 -19 -8 -22 3 -3 28 18 55 46 48 49 132 110 152 110 6 0 10 7 10 15 0 19
-9 19 -34 0 -37 -28 -38 -15 -2 25 37 41 42 50 27 50 -4 0 -28 -25 -52 -55
-40 -51 -66 -71 -76 -61 -2 2 14 25 37 50 22 26 40 54 40 62 0 21 -4 18 -39
-32 -39 -53 -51 -52 -23 3 11 21 17 44 15 51 -3 8 5 12 24 12 15 0 60 3 99 6
64 5 74 4 93 -15 17 -17 19 -25 11 -47 -6 -15 -9 -29 -6 -31 6 -6 86 48 86 59
0 10 -42 -10 -52 -26 -5 -7 -8 -4 -8 7 0 9 6 17 14 17 7 0 21 10 29 22 14 20
18 21 27 8 9 -12 10 -11 6 6 -5 15 2 26 24 42 16 12 34 22 40 22 5 0 10 5 10
10 0 6 -8 10 -17 10 -15 0 -16 2 -3 10 19 12 37 -17 21 -33 -15 -15 -14 -27 3
-27 8 0 17 14 21 31 4 19 15 33 26 36 15 4 17 11 13 32 -6 24 -5 25 8 8 13
-17 15 -17 27 -3 8 9 19 16 26 16 7 0 16 7 19 16 9 22 8 24 -10 24 -12 0 -14
6 -8 32 4 18 8 43 8 56 1 12 6 26 11 30 36 25 125 171 125 204 0 28 -19 21
-26 -9 -3 -16 -10 -38 -15 -51 -11 -27 -89 -134 -105 -144 -7 -5 -15 -34 -19
-67 -5 -47 -11 -60 -27 -64 -15 -4 -18 -2 -13 11 14 34 23 72 18 72 -3 0 0 7
7 15 6 8 9 18 6 23 -3 6 1 16 10 23 25 21 94 166 93 196 0 26 -1 26 -14 -9
-24 -66 -48 -112 -82 -161 -18 -26 -33 -52 -33 -58 0 -6 -7 -8 -15 -5 -10 3
-18 -1 -21 -12 -3 -9 -10 -25 -15 -35 -14 -25 -4 -33 17 -16 15 12 16 10 9
-21 -10 -47 -13 -52 -65 -94 -25 -20 -52 -42 -60 -49 -33 -29 -39 -29 -27 3 6
16 15 30 19 30 4 0 8 9 8 21 0 11 -4 17 -10 14 -6 -4 -10 10 -10 34 0 30 4 41
15 41 8 0 15 4 15 9 0 4 11 25 25 45 13 20 20 36 15 36 -5 0 -2 17 7 38 19 45
32 112 38 209 2 39 5 75 6 80 3 17 -1 33 -9 33 -5 0 -7 -15 -4 -32 l4 -33 -21
40 c-12 21 -21 43 -21 47 0 11 -69 78 -80 78 -15 0 -13 -5 28 -49 48 -52 73
-119 70 -191 l-1 -55 -7 55 c-7 61 -17 51 -23 -25 -6 -69 -11 -84 -48 -151
-39 -71 -38 -69 -45 -62 -3 3 2 22 10 42 20 48 5 46 -23 -4 -12 -22 -25 -40
-29 -40 -4 0 -6 -35 -5 -77 l2 -76 -28 34 c-16 19 -54 52 -86 73 -52 36 -59
39 -87 28 -18 -7 -37 -8 -47 -3 -19 10 -137 41 -157 41 -8 0 -14 -4 -14 -9 0
-5 6 -8 14 -7 8 0 15 -3 15 -9 0 -5 24 -13 53 -17 115 -14 255 -78 278 -126
11 -25 13 -25 19 -8 7 19 8 19 16 0 11 -28 23 -94 17 -94 -4 0 -17 12 -29 27
l-23 28 6 -26 c5 -26 4 -27 -63 -34 -69 -9 -80 -8 -120 0 -33 8 -28 23 5 17
44 -7 14 12 -50 33 -32 10 -60 25 -63 33 -4 12 0 11 19 -2 14 -9 30 -16 36
-16 17 0 11 18 -8 24 -24 8 -102 84 -102 99 0 7 9 1 20 -13 19 -25 26 -17 14
15 -7 16 -53 46 -88 55 -16 5 -12 12 30 58 41 44 59 55 107 67 32 8 75 24 97
35 57 29 112 24 72 -6 -16 -12 -16 -13 4 -14 11 0 25 -5 32 -12 9 -9 12 -9 12
0 0 7 -4 12 -10 12 -5 0 -10 4 -10 10 0 15 59 -15 76 -38 21 -30 38 -17 18 14
-9 13 -17 37 -19 52 -1 16 -5 34 -9 41 -8 12 1 64 15 91 4 8 11 24 15 35 6 19
7 18 13 -5 9 -33 16 -16 16 37 0 24 4 43 8 43 13 0 -1 113 -15 122 -23 14 -27
9 -22 -39 4 -38 -2 -72 -31 -157 -27 -80 -35 -118 -30 -142 7 -39 7 -39 -39
-17 -34 16 -37 16 -115 -15 -44 -18 -89 -32 -101 -32 -34 0 -76 -27 -114 -73
-34 -41 -48 -87 -27 -87 14 0 100 -118 107 -146 3 -13 -2 -76 -11 -140 -13
-87 -24 -123 -41 -147 -35 -48 -64 -109 -64 -138 0 -16 -10 -33 -29 -47 -16
-11 -53 -53 -81 -92 -69 -92 -83 -92 -103 3 -22 103 -27 147 -17 147 13 0 24
144 12 166 -7 14 3 76 38 230 27 117 53 221 60 233 6 12 22 56 36 99 14 42 37
95 51 116 18 28 21 37 10 33 -11 -4 -14 -2 -10 9 3 7 1 14 -3 14 -11 0 -41
-72 -51 -120 -3 -19 -12 -46 -20 -60 -7 -14 -13 -32 -13 -40 0 -9 -4 -20 -10
-26 -10 -10 -37 -103 -71 -249 -11 -44 -22 -89 -25 -100 -3 -11 -13 -74 -21
-140 -14 -104 -14 -133 -3 -220 7 -55 14 -110 15 -122 1 -13 5 -26 8 -30 4 -3
7 -17 7 -29 0 -31 15 -38 42 -20 34 22 120 31 149 15 13 -7 40 -12 59 -12 32
1 33 1 5 -4 -16 -3 -35 -9 -42 -15 -6 -5 -49 -12 -95 -15 -88 -5 -101 -9 -78
-23 12 -8 12 -10 -3 -16 -9 -3 -17 -13 -17 -20 0 -8 -14 -44 -30 -79 -17 -35
-30 -69 -30 -75 0 -24 -21 -49 -35 -43 -12 4 -13 9 -4 19 6 8 9 14 6 14 -3 0
4 26 15 58 15 44 20 81 19 165 0 60 -5 123 -10 140 -11 34 -9 383 2 427 4 14
10 41 13 60 24 146 95 394 118 415 27 25 80 152 81 197 1 26 -2 45 -6 43 -4
-3 -10 2 -13 11 -10 25 -7 32 12 29 9 -1 11 0 5 2 -7 3 -13 15 -13 28 0 13 -5
25 -12 27 -9 3 -9 6 0 12 7 4 12 2 12 -3 0 -6 7 -11 16 -11 13 0 15 7 9 43 -4
23 -11 47 -15 52 -4 6 -8 17 -9 25 -1 21 -9 65 -11 65 -1 0 -3 14 -5 30 l-4
30 18 -22 c10 -12 21 -46 24 -75 6 -50 25 -78 51 -78 14 0 52 59 70 107 7 21
27 72 44 113 16 41 38 108 48 148 23 94 32 75 10 -21 -38 -162 -63 -312 -55
-322 5 -5 9 -19 9 -32 0 -47 22 -45 220 25 255 89 454 144 410 113 -8 -6 -32
-16 -54 -22 -21 -6 -62 -21 -90 -34 -28 -12 -62 -26 -76 -30 -14 -4 -40 -16
-58 -27 -18 -11 -35 -18 -38 -15 -3 3 -34 -10 -68 -28 -35 -18 -84 -36 -110
-40 -41 -7 -65 -24 -33 -26 6 0 2 -4 -10 -9 -13 -5 -23 -16 -23 -23 0 -8 -7
-20 -15 -27 -17 -14 -21 0 -4 17 6 6 9 17 6 25 -2 8 -11 -1 -22 -23 -27 -55
-98 -94 -182 -98 -14 -1 -18 -31 -5 -31 5 0 32 7 62 16 60 18 117 51 173 100
20 19 47 34 60 34 13 0 50 14 83 31 32 17 70 37 84 44 36 19 177 25 166 7 -2
-4 13 -6 34 -4 50 5 150 -38 151 -65 0 -10 3 -13 5 -6 4 8 12 8 30 -2 51 -26
114 -115 114 -161 0 -17 3 -33 6 -36 3 -4 26 7 50 24 56 37 111 41 244 14 109
-23 194 -22 228 0 13 9 25 14 27 12 2 -2 6 -37 9 -79 6 -66 4 -84 -20 -150
-33 -95 -57 -133 -116 -191 -33 -33 -61 -51 -93 -59 -24 -6 -49 -17 -55 -25
-9 -10 -5 -11 27 -3 96 26 179 103 235 218 29 60 32 76 36 182 3 73 0 124 -7
137 -11 20 -12 20 -40 -9 -32 -32 -65 -42 -39 -11 8 9 18 25 21 35 4 9 10 17
14 17 4 0 8 14 9 30 1 17 4 34 8 37 12 13 26 -21 20 -47 -4 -20 -3 -22 7 -13
16 16 -1 77 -23 81 -12 2 -20 -8 -28 -38 -13 -48 -82 -120 -114 -119 -11 0
-41 4 -66 9 -167 33 -196 36 -234 29 -23 -5 -44 -8 -48 -9 -4 0 -13 -6 -21
-14 -12 -13 -16 -9 -27 25 -7 21 -17 39 -21 39 -5 0 -16 14 -24 31 -35 67
-218 152 -332 153 -29 0 -53 3 -53 7 0 5 177 78 226 93 12 4 29 16 39 26 38
42 -19 49 -110 13 -13 -4 -16 -3 -11 5 4 7 2 12 -4 12 -6 0 -13 -6 -16 -14 -5
-13 -92 -41 -101 -33 -4 5 137 124 180 151 16 10 31 15 34 13 2 -3 -35 -35
-83 -71 -48 -36 -81 -66 -74 -66 7 0 47 26 89 57 80 61 181 118 181 104 0 -5
-43 -35 -95 -67 -97 -58 -127 -82 -85 -69 21 7 125 69 190 114 14 10 68 32
120 49 78 26 112 32 190 33 52 0 103 -3 113 -6 32 -13 19 31 -19 60 -45 35
-84 73 -109 109 -46 65 -69 86 -121 111 -30 14 -71 27 -90 29 -19 2 -34 6 -35
10 0 4 11 31 26 61 46 97 56 210 34 376 -18 136 -27 141 -124 80 -34 -22 -114
-61 -176 -87 -115 -49 -229 -110 -229 -124 0 -4 -10 -14 -23 -22 -22 -15 -22
-14 -24 28 -2 64 -52 143 -131 210 -37 31 -82 75 -100 98 -40 50 -70 76 -88
76 -8 0 9 -24 36 -52 27 -29 55 -65 62 -80 7 -15 18 -29 25 -30 7 -2 37 -21
67 -43 67 -48 111 -131 110 -202 -1 -32 4 -51 17 -64 19 -19 20 -19 28 4 20
52 144 133 259 169 23 7 42 16 42 19 0 4 15 12 33 20 17 7 63 34 100 61 37 27
72 46 77 43 15 -9 12 -45 -4 -45 -8 0 -17 -11 -20 -25 -4 -14 -11 -25 -16 -25
-5 0 -7 -6 -4 -14 11 -28 -125 -246 -153 -246 -7 0 -13 -7 -13 -15 0 -8 -7
-15 -15 -15 -22 0 -18 16 8 37 29 23 83 102 103 150 13 29 13 37 3 44 -10 6
-9 12 5 28 11 12 15 21 9 21 -5 0 -19 -11 -31 -25 -26 -29 -30 -54 -7 -35 48
40 -18 -87 -84 -162 -22 -25 -41 -50 -41 -56 0 -5 -20 -12 -45 -15 -97 -14
-305 -98 -353 -144 -34 -33 -62 -53 -72 -53 -5 0 -12 12 -16 28 -3 15 -8 35
-11 45 -2 10 1 17 10 17 7 0 14 6 14 13 0 6 10 68 21 137 18 108 19 132 8 179
-7 30 -18 57 -26 59 -9 3 -11 -1 -7 -12 4 -9 9 -47 11 -84 5 -59 4 -62 -4 -23
-5 24 -12 71 -14 105 -6 71 -24 125 -49 151 -21 21 -33 14 -19 -12 5 -10 20
-67 32 -128 18 -91 21 -130 17 -226 -4 -81 -2 -120 6 -128 8 -8 8 -11 0 -11
-7 0 -15 10 -19 23 -4 12 -22 46 -40 75 -19 29 -34 59 -34 68 0 8 -4 13 -9 10
-20 -13 -39 92 -22 121 9 15 10 12 11 -14 0 -18 4 -33 10 -33 5 0 9 39 9 93
-1 115 3 131 10 48 3 -36 11 -66 16 -68 15 -5 8 149 -7 158 -6 4 -13 32 -16
63 -6 76 -22 82 -22 9 0 -40 -11 -89 -35 -158 -19 -55 -35 -108 -35 -117 0
-24 -23 -23 -45 2 -18 20 -97 70 -111 70 -4 0 3 -11 16 -25 13 -14 27 -25 32
-25 4 0 29 -16 55 -36 118 -89 246 -295 209 -335 -8 -9 -8 -10 1 -5 6 3 15 -6
21 -23 16 -46 44 -48 98 -7 26 20 55 36 65 36 11 0 18 5 16 11 -3 15 174 105
221 113 75 12 96 16 130 26 39 10 56 5 45 -13 -4 -7 -8 -18 -9 -25 -2 -8 -4
-15 -6 -16 -93 -68 -172 -148 -220 -222 -17 -27 -50 -78 -74 -114 -23 -36 -63
-101 -89 -146 -26 -44 -69 -105 -96 -134 -27 -29 -47 -56 -44 -59 13 -12 119
118 180 221 36 62 87 147 113 188 48 76 176 220 196 220 6 0 20 13 30 29 12
17 25 27 34 23 11 -4 13 0 7 16 -4 13 -2 22 4 22 6 0 11 -4 11 -10 0 -5 8 -6
18 -3 19 8 21 12 -33 -62 -8 -11 -21 -65 -30 -119 -17 -105 -30 -139 -64 -170
-29 -26 -27 -46 5 -46 18 0 25 -4 21 -14 -4 -11 1 -12 21 -7 15 4 44 3 66 -2
38 -10 157 5 181 23 21 15 55 17 66 4 12 -15 33 -9 23 7 -6 10 16 8 106 -10
29 -6 20 -8 -49 -14 -46 -4 -90 -12 -97 -18 -11 -9 -14 -7 -15 12 -1 17 -3 19
-6 7 -3 -11 -14 -18 -29 -18 -14 0 -24 -6 -24 -14 0 -8 -15 -19 -32 -25 -30
-10 -31 -9 -14 4 36 27 11 24 -48 -5 -62 -32 -100 -40 -78 -18 7 7 12 15 12
19 0 12 -97 -52 -186 -124 -46 -37 -84 -63 -84 -59 0 5 9 17 20 27 11 10 20
23 20 29 0 6 -18 -9 -39 -34 -33 -38 -36 -46 -22 -52 13 -6 12 -7 -4 -6 -11 2
-36 -5 -55 -14 -81 -37 -83 -31 -14 36 38 36 66 65 63 66 -3 0 -30 -22 -59
-50 -29 -27 -65 -55 -81 -62 -16 -7 -29 -17 -29 -23 0 -6 -12 -15 -27 -22 -36
-15 -73 -25 -73 -21 0 2 29 26 65 52 63 46 98 86 75 86 -6 0 -13 -7 -16 -14
-8 -20 -151 -126 -170 -126 -8 0 -14 -4 -14 -10 0 -19 -15 -10 -27 15 -9 21
-8 27 7 35 10 6 29 25 41 42 l22 33 -31 -29 c-18 -17 -32 -26 -32 -20 0 5 9
59 20 119 11 61 25 146 31 190 6 44 14 95 19 112 5 20 4 35 -2 39 -5 3 -10 4
-12 3 -15 -22 -66 -142 -71 -169 -4 -19 -14 -44 -21 -55 -7 -11 -27 -60 -45
-110 -35 -101 -74 -181 -82 -168 -9 15 1 273 12 332 6 29 11 59 10 65 -1 18
-39 -127 -39 -151 0 -12 -5 -25 -11 -29 -15 -9 -3 100 22 191 18 66 25 114 14
104 -8 -9 -57 -202 -65 -259 -7 -55 -7 -55 -8 25 -1 73 6 117 38 245 17 67 28
195 21 232 -5 24 -9 7 -14 -67 -6 -93 -47 -289 -63 -304 -9 -9 4 78 26 163 26
103 34 176 18 176 -8 0 -9 3 -2 10 11 11 -9 147 -22 159 -6 6 -3 -28 10 -109
3 -19 -3 -6 -14 30 -37 120 -42 135 -55 150 -7 8 -16 34 -20 58 -4 23 -11 42
-17 42 -5 0 -7 -9 -3 -19 3 -11 8 -77 10 -148 5 -140 14 -202 43 -284 17 -49
17 -58 4 -104 l-15 -50 -17 66 c-9 36 -21 73 -27 83 -8 15 -11 11 -21 -21 -19
-66 18 -353 74 -572 9 -34 11 -74 7 -108 -3 -32 -1 -76 7 -107 12 -51 11 -58
-15 -127 -16 -41 -34 -83 -41 -94 -13 -20 -28 -66 -61 -175 -9 -30 -18 -62
-21 -70 -12 -32 -19 170 -15 465 8 610 9 965 1 965 -8 0 -12 -23 -9 -47 1 -7
-3 -13 -9 -13 -7 0 -10 15 -8 40 1 22 -1 39 -7 40 -5 0 -8 -20 -6 -45 1 -27
-2 -45 -8 -45 -6 0 -11 6 -11 13 0 8 -4 7 -10 -3 -12 -19 -12 -21 -14 130 -2
80 1 128 8 132 7 5 6 8 -2 8 -11 0 -12 26 -7 132 4 73 9 136 11 140 3 4 11 5
18 2 8 -3 17 -1 21 5 3 6 0 11 -8 11 -8 0 -18 7 -21 16 -8 21 2 33 13 15 6 -8
11 -9 15 -3 3 6 -2 13 -11 16 -33 11 -57 96 -32 112 6 3 8 17 4 33 -5 21 -4
24 6 14 18 -18 28 -16 24 5 -1 9 -10 16 -19 16 -9 -1 -16 6 -16 16 0 10 -3 32
-6 50 -7 30 -6 32 14 21 11 -6 23 -11 27 -11 13 0 -8 22 -29 30 -17 7 -17 9
-3 9 9 1 17 5 17 11 0 5 -7 7 -15 4 -10 -4 -15 0 -15 16 0 11 4 19 9 16 5 -3
12 1 15 10 9 22 8 24 -9 18 -8 -4 -15 -2 -15 2 -1 5 -3 33 -5 63 -4 49 -3 53
16 48 13 -4 19 -1 16 6 -2 7 -11 11 -19 9 -12 -2 -15 10 -17 54 -1 42 2 54 11
49 7 -4 5 0 -4 8 -10 8 -18 18 -18 22 0 4 7 2 14 -5 10 -7 21 -8 31 -2 16 8
15 10 0 26 -13 12 -21 14 -30 6 -11 -9 -14 0 -19 42 -5 48 -19 178 -33 298 -2
24 -17 82 -33 128 -16 47 -26 91 -23 98 3 8 1 14 -5 14 -11 0 -28 58 -19 66 2
2 14 1 27 -4 27 -10 60 -104 79 -228 7 -43 17 -84 22 -90 5 -6 13 -42 19 -80
9 -69 13 -91 31 -197 6 -32 7 -89 3 -128 -5 -49 -3 -69 5 -69 6 0 11 5 11 10
0 6 5 10 10 10 16 0 12 -30 -5 -36 -8 -4 -15 -18 -15 -32 0 -24 1 -24 18 -9
25 23 35 21 22 -4 -13 -23 -4 -41 9 -20 7 11 10 11 14 0 7 -16 150 129 193
195 15 23 35 52 44 66 30 45 51 90 41 90 -6 0 -18 -13 -28 -30 -9 -16 -20 -30
-23 -30 -4 0 -25 -16 -47 -35 -42 -35 -65 -47 -44 -21 7 8 36 85 65 172 77
228 107 295 154 347 14 15 33 27 41 27 24 0 111 70 149 120 28 37 58 57 162
110 70 36 162 81 204 100 78 36 135 74 125 84 -6 6 -131 -16 -189 -34 -59 -18
-263 -72 -293 -77 -26 -5 -27 -4 -17 21 36 96 86 194 120 238 25 30 27 37 14
42 -15 6 -93 -53 -102 -76 -2 -4 -9 -8 -16 -8 -7 0 -17 -10 -23 -22 -6 -13
-41 -56 -78 -96 -56 -60 -70 -71 -77 -58 -5 9 -6 21 -2 27 7 12 26 128 28 176
0 17 5 31 9 30 9 -2 41 82 34 90 -3 2 -11 -12 -18 -31 -7 -20 -17 -36 -21 -36
-15 0 73 182 105 218 21 22 11 32 -11 10 -6 -6 -14 -9 -17 -6 -3 3 16 25 43
49 48 43 242 149 272 149 9 0 26 -7 39 -17 17 -12 22 -12 19 -2 -2 7 -18 19
-35 26 -30 12 -38 9 -141 -43 -121 -60 -186 -112 -247 -198 -22 -30 -43 -56
-46 -56 -4 0 -9 14 -12 30 -8 39 -24 38 -32 -2 -13 -64 -28 -107 -36 -103 -4
3 -10 28 -14 55 -6 45 -25 80 -25 48 -1 -7 -3 -74 -7 -148 -3 -76 0 -181 6
-240 9 -87 8 -114 -4 -160 -8 -31 -15 -98 -15 -153 0 -67 -5 -107 -14 -125
-26 -48 -56 -124 -56 -143 0 -11 -4 -19 -8 -19 -5 0 -3 27 4 59 14 69 7 118
-30 206 -14 33 -26 68 -26 78 0 28 -17 20 -29 -14 -14 -40 -14 -86 -1 -94 10
-6 14 17 11 60 -1 11 13 -7 30 -40 24 -47 31 -74 32 -125 1 -59 -4 -84 -27
-157 -4 -14 -3 -23 3 -23 5 0 13 9 16 21 4 11 9 19 11 16 7 -7 -32 -91 -48
-105 -13 -10 -17 -6 -26 26 -6 20 -14 55 -17 77 -4 22 -14 46 -23 52 -11 9
-16 34 -17 93 -1 44 0 92 3 106 l5 27 13 -24 c15 -27 15 -26 15 36 0 81 -1 95
-9 95 -19 0 -61 -144 -62 -215 l0 -40 -14 26 c-23 45 -47 152 -36 163 7 7 10
2 10 -12 0 -12 5 -22 10 -22 10 0 14 46 11 142 -1 31 3 59 9 63 5 3 10 12 10
18 -1 7 -9 2 -19 -10 -11 -13 -28 -23 -39 -23 -15 0 -21 -12 -31 -67 -6 -38
-13 -103 -15 -145 -6 -111 -19 -126 -40 -47 -10 35 -20 80 -23 99 -3 19 -9 40
-13 45 -4 6 -15 33 -23 60 -22 74 -45 122 -59 129 -10 3 -9 7 3 15 22 14 23
82 3 174 -9 40 -25 115 -36 167 -16 81 -83 279 -134 400 -8 19 -23 69 -34 110
l-18 75 4 -105 5 -105 -37 64 c-31 52 -54 76 -133 134 -53 38 -109 85 -126
103 -36 39 -81 68 -88 57z m437 -422 c9 -30 14 -56 12 -59 -9 -8 -38 73 -42
118 -4 49 0 41 30 -59z m-214 -16 c0 -7 7 -18 15 -25 8 -7 15 -18 15 -24 0
-18 -48 46 -59 79 l-11 30 20 -24 c11 -13 20 -29 20 -36z m-173 8 c-4 -3 -7 0
-7 7 0 7 3 10 7 7 3 -4 3 -10 0 -14z m23 -46 c0 -5 -4 -5 -10 -2 -5 3 -10 14
-10 23 0 15 2 15 10 2 5 -8 10 -19 10 -23z m216 -99 c-10 -7 -9 -9 14 -12 13
-1 61 -72 54 -79 -8 -8 6 -47 16 -47 5 0 7 8 3 18 -5 13 -1 12 16 -5 25 -26
26 -33 7 -33 -8 0 -16 -12 -18 -27 -4 -25 -5 -26 -12 -8 -20 51 -23 59 -25 75
0 6 -8 10 -16 10 -17 0 -21 26 -4 32 16 5 -1 38 -20 38 -12 0 -22 13 -30 41
-7 23 -15 48 -18 58 -3 9 6 0 20 -19 17 -24 21 -37 13 -42z m186 55 c2 -34 4
-38 13 -53 30 -47 38 -74 84 -290 21 -98 28 -204 11 -165 -5 11 -9 41 -9 67
-1 26 -6 58 -12 72 -21 45 -66 46 -49 1 8 -20 6 -24 -12 -27 -20 -3 -20 -3 1
-22 18 -17 21 -17 15 -3 -3 9 -2 17 3 17 15 0 54 -140 45 -157 -11 -19 -34 14
-62 91 -12 30 -27 60 -35 66 -13 10 -12 14 6 29 18 14 18 20 8 51 -6 19 -19
41 -27 48 -9 6 -11 12 -5 12 7 0 18 -7 27 -15 8 -8 20 -15 26 -15 7 0 10 -6 7
-13 -3 -8 1 -14 9 -14 25 0 24 27 -1 37 -14 5 -26 15 -26 22 -4 34 4 95 15
107 6 9 7 12 0 8 -7 -4 -9 4 -6 24 3 23 1 28 -11 24 -14 -6 -24 20 -30 78 -1
9 -5 17 -10 17 -4 0 -5 5 -2 10 10 16 25 12 27 -7z m845 -95 c-8 -18 -24 -49
-36 -68 -18 -28 -21 -30 -16 -10 13 43 50 110 61 110 3 0 -2 -15 -9 -32z m-97
-117 c-11 -43 -18 -80 -19 -103 -1 -10 -5 -18 -10 -18 -11 0 -21 48 -10 52 4
2 10 29 13 60 3 31 9 64 13 74 12 32 24 -25 13 -65z m-786 -29 c-6 -4 -14 -14
-17 -22 -4 -10 -6 -8 -6 8 -1 15 5 22 17 22 10 0 13 -3 6 -8z m729 -129 c5 -8
4 -13 -2 -13 -6 0 -10 -4 -8 -9 1 -5 -2 -11 -8 -12 -6 -3 -11 31 -12 86 l-2
90 12 -65 c7 -36 16 -71 20 -77z m-753 55 c22 -46 21 -61 -2 -26 -15 23 -30
68 -22 68 2 0 13 -19 24 -42z m50 -5 l0 -38 -19 30 c-20 32 -18 45 5 45 10 0
14 -11 14 -37z m1003 -35 c-43 -64 -52 -80 -64 -112 -7 -15 -26 -35 -43 -43
-22 -10 -24 -13 -8 -9 25 5 25 10 6 -69 -5 -22 -3 -25 19 -25 14 0 58 12 99
26 133 47 163 55 184 51 11 -2 26 3 33 10 7 8 21 11 31 8 10 -3 21 -1 25 5 3
5 13 10 21 10 34 0 3 -19 -121 -75 -38 -18 -60 -24 -63 -16 -2 6 -8 11 -14 11
-7 0 -7 -5 1 -13 13 -16 5 -27 -19 -27 -10 0 -23 -6 -29 -14 -6 -8 -21 -16
-32 -19 -16 -4 -18 -3 -9 8 7 8 20 17 31 20 18 6 28 35 12 35 -9 0 -86 -52
-94 -64 -8 -10 -49 2 -49 15 0 5 -4 9 -9 9 -6 0 -9 -9 -8 -19 0 -10 6 -17 12
-14 18 6 37 -24 30 -47 -7 -23 -73 -90 -88 -90 -5 0 4 14 21 31 34 35 47 69
27 69 -7 0 -20 3 -29 6 -11 4 -16 0 -16 -12 -1 -32 -67 -114 -93 -114 -18 0
-19 -2 -7 -10 8 -5 23 -7 34 -4 12 4 16 2 12 -5 -4 -6 -15 -11 -25 -11 -10 0
-32 -18 -51 -40 -18 -21 -38 -37 -43 -33 -6 3 -7 1 -3 -5 4 -7 1 -24 -7 -39
-16 -29 -67 -162 -86 -223 -64 -204 -115 -308 -154 -310 -5 0 -5 5 -1 11 3 6
12 33 19 59 10 40 10 60 0 112 -21 101 -24 126 -16 156 7 25 8 24 15 -18 4
-25 18 -65 31 -90 17 -34 20 -51 13 -69 -11 -31 -2 -40 17 -15 19 24 19 45 0
70 -19 24 -19 35 -1 28 10 -4 24 13 45 55 17 33 31 67 31 76 0 8 4 23 9 33 5
9 18 37 29 62 11 25 33 72 48 104 25 54 26 60 10 71 -9 7 -16 20 -16 29 0 13
4 12 23 -6 12 -13 21 -26 19 -30 -4 -13 15 -9 27 6 9 11 9 15 0 18 -14 5 5 99
27 135 18 29 18 43 -1 43 -8 0 -15 5 -15 12 0 8 -6 7 -16 -4 -9 -9 -18 -38
-21 -64 -7 -79 -12 -94 -28 -88 -15 6 -19 42 -9 81 4 13 10 21 14 18 4 -3 10
6 12 20 3 13 1 22 -3 19 -5 -3 -9 0 -9 5 0 6 5 11 11 11 7 0 10 14 7 35 -2 19
0 35 4 35 5 0 8 30 6 68 -2 47 -7 66 -15 65 -7 -2 -13 4 -13 12 0 8 3 15 6 15
16 0 33 -32 39 -76 10 -70 15 -84 31 -84 8 0 14 -4 14 -10 0 -19 20 -10 31 13
18 40 73 115 171 230 49 57 61 55 21 -5z m-1157 27 c8 -19 21 -19 42 1 14 15
27 8 22 -11 0 -4 14 -19 33 -34 28 -21 33 -31 25 -44 -13 -24 -3 -50 37 -88
19 -19 35 -38 35 -42 0 -11 -62 34 -80 58 -17 23 -23 88 -7 78 6 -3 7 -1 3 6
-4 6 -15 10 -24 7 -18 -6 -112 57 -112 74 0 16 20 12 26 -5z m164 -126 c0 -6
-4 -7 -10 -4 -5 3 -10 11 -10 16 0 6 5 7 10 4 6 -3 10 -11 10 -16z m987 -216
c-4 -3 -10 -3 -14 0 -3 4 0 7 7 7 7 0 10 -3 7 -7z m-860 -15 c7 20 20 14 27
-12 3 -13 8 -31 12 -39 3 -10 -3 -16 -21 -19 -27 -6 -30 -2 -50 62 -7 23 -7
24 10 10 14 -11 19 -12 22 -2z m196 -93 c-9 -43 -22 -27 -19 23 5 66 7 71 16
35 4 -18 5 -44 3 -58z m52 -251 c30 -62 34 -78 28 -115 -4 -24 -6 -61 -6 -81
1 -21 0 -38 -2 -38 -1 0 -20 26 -42 58 -61 88 -77 147 -70 252 9 125 17 137
39 59 10 -35 33 -96 53 -135z m-458 59 c-4 -3 -7 0 -7 7 0 7 3 10 7 7 3 -4 3
-10 0 -14z m-20 -85 c-3 -8 -6 -5 -6 6 -1 11 2 17 5 13 3 -3 4 -12 1 -19z m35
-145 c7 -28 16 -55 21 -59 10 -10 9 -74 -1 -74 -14 0 -31 46 -26 67 3 11 -2
47 -10 80 -9 34 -15 71 -15 84 1 18 3 15 10 -11 4 -19 14 -58 21 -87z m-83
-19 c51 -38 74 -64 57 -64 -12 0 -125 83 -130 95 -9 25 9 17 73 -31z m123 11
c-6 -34 -12 -32 -12 6 0 16 4 28 9 25 4 -3 6 -17 3 -31z m388 -63 c17 -33 19
-46 10 -57 -8 -10 -8 -15 0 -20 14 -8 5 -90 -16 -144 l-13 -36 0 35 c-1 38
-27 245 -37 289 l-6 26 21 -25 c11 -14 30 -44 41 -68z m-210 34 c0 -3 -5 -8
-12 -12 -7 -4 -8 -3 -4 4 7 12 16 16 16 8z m70 -206 c14 -137 14 -1108 0
-1142 -8 -21 -9 -20 -9 9 -1 18 -12 57 -25 88 -14 30 -21 55 -16 55 4 0 7 8 5
18 -2 9 -4 20 -4 25 -1 4 -8 7 -17 7 -14 0 -14 -3 -4 -15 7 -9 10 -18 6 -22
-3 -4 -13 3 -22 15 -8 12 -22 22 -30 22 -9 0 -14 5 -12 12 3 7 -7 25 -20 40
-27 30 -48 63 -58 91 -7 18 -30 23 -36 7 -2 -6 -15 -4 -32 5 -15 8 -37 15 -47
15 -22 0 -50 14 -99 51 -19 15 -44 29 -55 33 -11 4 -56 41 -100 83 -78 74 -82
82 -20 39 53 -38 289 -159 310 -160 6 -1 9 8 7 19 -2 19 -2 19 11 3 19 -24 36
-23 30 2 -3 11 -9 20 -13 20 -4 0 -13 21 -20 46 -7 25 -22 54 -32 64 -19 17
-19 20 -3 43 10 15 12 28 6 31 -5 4 -12 2 -16 -4 -11 -18 -23 -10 -30 21 -7
33 3 53 21 41 6 -4 31 -39 56 -78 53 -83 114 -136 129 -113 5 8 9 22 9 31 0 9
4 20 10 23 11 7 8 -50 -3 -61 -3 -4 0 -13 8 -21 20 -19 19 -26 -4 -47 -19 -17
-19 -18 0 -51 11 -19 21 -51 22 -72 1 -21 6 -41 10 -44 5 -4 10 -18 10 -33 2
-28 5 -30 26 -17 10 6 11 13 2 29 -6 11 -11 34 -11 50 0 16 -7 46 -15 65 -16
40 -20 97 -6 97 12 0 38 -77 45 -135 3 -27 11 -54 17 -60 17 -17 0 124 -22
180 -17 44 -18 56 -8 100 19 78 9 367 -12 390 -18 18 -10 189 10 241 11 27 22
58 25 68 4 10 8 17 10 15 2 -2 9 -56 16 -119z m195 15 c-3 -23 -13 -51 -21
-61 -14 -17 -15 -17 -10 -1 3 9 11 48 18 85 13 71 25 52 13 -23z m158 -7 c-10
-17 -56 -70 -102 -117 -46 -47 -78 -78 -70 -68 11 15 10 20 -2 28 -11 7 -9 14
15 36 33 32 169 151 174 152 2 1 -5 -13 -15 -31z m-423 -303 c6 -60 13 -132
16 -160 3 -32 0 -65 -10 -90 -10 -28 -15 -33 -15 -18 -1 12 -6 25 -11 28 -7 4
-7 11 -2 18 13 17 24 67 14 67 -4 0 -14 -6 -20 -12 -10 -10 -12 -5 -7 27 3 22
6 101 6 175 1 156 13 142 29 -35z m-685 73 c56 -75 117 -170 112 -175 -3 -2
-18 15 -35 39 -17 24 -35 48 -41 54 -5 6 -16 24 -24 41 -9 16 -23 36 -32 43
-20 17 -38 50 -27 50 4 0 25 -24 47 -52z m381 -135 c25 -43 31 -73 15 -73 -11
0 -25 30 -22 48 1 6 -3 12 -9 12 -5 0 -10 6 -10 14 0 8 -11 34 -25 57 -14 24
-25 48 -25 53 0 11 44 -54 76 -111z m286 -276 c-7 -8 -8 -18 -4 -22 4 -5 1 -5
-6 -1 -9 5 -9 12 -1 27 6 12 13 18 16 15 3 -3 1 -12 -5 -19z m145 6 c-4 -3 -7
0 -7 7 0 7 3 10 7 7 3 -4 3 -10 0 -14z m0 -50 c-3 -10 -5 -4 -5 12 0 17 2 24
5 18 2 -7 2 -21 0 -30z m-295 -178 c15 -25 24 -45 20 -45 -10 0 -62 67 -62 79
0 23 16 9 42 -34z m1603 -15 c4 -19 9 -84 11 -144 5 -121 -11 -186 -67 -275
-34 -53 -35 -61 -9 -61 11 0 20 -4 20 -10 0 -5 5 -10 10 -10 6 0 9 6 8 13 -4
19 71 13 125 -11 26 -11 47 -26 47 -33 0 -8 -4 -8 -16 2 -9 7 -18 9 -22 3 -4
-5 -21 -10 -38 -10 -28 -1 -142 -76 -159 -105 -4 -5 -13 -9 -22 -9 -9 0 6 22
38 55 29 30 61 55 71 55 19 0 24 15 9 24 -11 7 -75 -41 -130 -98 -27 -28 -53
-46 -67 -46 -12 0 -29 -3 -38 -6 -12 -5 -10 4 8 37 14 27 29 78 36 129 12 87
40 150 66 150 12 0 23 19 52 85 3 6 -7 -1 -22 -14 -14 -14 -26 -19 -26 -13 0
13 56 99 71 107 12 8 12 35 -1 35 -5 0 -10 -5 -10 -11 0 -6 -14 -30 -32 -53
-40 -53 -56 -68 -37 -36 86 142 102 174 104 213 4 91 8 99 20 37z m-889 -24
c0 -15 -5 -21 -10 -16 -5 5 -6 16 -3 24 9 23 15 19 13 -8z m-634 -16 c12 -11
17 -20 11 -20 -5 0 -18 9 -28 20 -10 11 -15 20 -11 20 4 0 16 -9 28 -20z
m1454 -78 c-14 -28 -31 -54 -37 -57 -6 -4 4 21 21 54 18 34 34 60 37 57 2 -2
-7 -27 -21 -54z m-1016 -67 c8 -25 9 -40 3 -42 -6 -2 -8 -23 -5 -48 3 -30 1
-45 -7 -45 -6 0 -12 12 -12 28 -9 178 -6 193 21 107z m170 34 c0 -5 -4 -9 -10
-9 -5 0 -10 7 -10 16 0 8 5 12 10 9 6 -3 10 -10 10 -16z m793 -54 c-3 -9 -8
-14 -10 -11 -3 3 -2 9 2 15 9 16 15 13 8 -4z m-13 -28 c0 -2 -10 -12 -22 -23
l-23 -19 19 23 c18 21 26 27 26 19z m-920 -131 c0 -106 -14 -88 -17 22 -2 58
1 82 7 72 5 -8 10 -51 10 -94z m917 77 c-4 -3 -10 -3 -14 0 -3 4 0 7 7 7 7 0
10 -3 7 -7z m-950 -75 c-3 -7 -5 -2 -5 12 0 14 2 19 5 13 2 -7 2 -19 0 -25z
m-147 -230 c-3 -256 -8 -318 -26 -318 -8 0 -14 -8 -13 -17 0 -11 3 -13 6 -5 2
6 8 12 12 12 5 0 9 -199 10 -442 1 -244 2 -454 2 -468 1 -14 -2 -36 -6 -50 -3
-14 -8 -43 -10 -65 -3 -22 -9 -69 -14 -105 -13 -85 -24 -243 -22 -300 1 -33
-1 -41 -9 -30 -5 8 -10 23 -10 33 0 10 -6 20 -12 22 -14 5 -15 31 -15 395 -1
379 1 505 10 511 8 6 14 108 16 261 1 66 3 77 17 71 11 -4 15 -1 13 13 -2 10
0 26 5 34 4 8 -2 4 -14 -10 l-21 -24 1 74 c3 114 11 170 23 163 6 -3 7 -1 3 5
-9 15 -17 357 -9 400 4 24 8 30 14 20 7 -10 9 -10 10 2 1 8 5 -3 9 -25 l7 -40
2 43 c0 23 6 42 12 42 7 0 10 -65 9 -202z m92 52 c3 -16 1 -30 -4 -30 -4 0 -8
14 -8 30 0 17 2 30 4 30 2 0 6 -13 8 -30z m1318 -37 l25 -23 -39 0 c-21 0 -50
-6 -64 -13 -15 -8 -42 -21 -61 -31 -18 -9 -36 -14 -39 -11 -3 2 27 19 66 36
40 18 72 36 72 40 0 16 -24 9 -105 -31 -44 -22 -83 -40 -88 -40 -17 0 6 21 56
54 93 59 130 63 177 19z m-1297 -46 c9 -23 17 -52 17 -63 0 -21 42 -194 55
-226 4 -10 3 -18 -3 -18 -6 0 -13 18 -17 39 -3 22 -13 47 -20 58 -11 15 -11 6
1 -51 8 -37 17 -72 20 -77 3 -5 2 -14 -2 -21 -10 -15 -27 58 -54 222 -11 69
-23 137 -26 153 -8 41 9 32 29 -16z m-198 23 c3 -5 1 -10 -4 -10 -6 0 -11 5
-11 10 0 6 2 10 4 10 3 0 8 -4 11 -10z m1545 -39 c19 -27 19 -30 3 -29 -10 1
-36 -1 -58 -5 -39 -6 -40 -6 -7 5 17 6 32 15 32 21 0 9 -24 7 -95 -12 -39 -10
-55 -8 -41 6 3 4 37 15 74 24 37 10 68 18 69 18 1 1 11 -12 23 -28z m-2060
-46 c-6 -15 -13 -25 -17 -22 -3 4 0 21 8 38 16 39 24 24 9 -16z m1067 28 c-4
-3 -7 0 -7 7 0 7 3 10 7 7 3 -4 3 -10 0 -14z m787 -34 c-2 -4 -33 -15 -69 -24
-58 -16 -72 -16 -120 -5 -30 7 -55 17 -55 21 0 4 24 10 53 12 76 6 196 3 191
-4z m303 -35 c-1 -1 -27 6 -57 16 -49 17 -51 19 -25 22 18 2 41 -5 57 -16 15
-11 27 -21 25 -22z m-2093 -134 c30 -81 41 -100 53 -95 8 2 13 -4 13 -16 0
-13 -8 -23 -21 -26 -11 -3 -18 -11 -15 -18 6 -16 -20 -53 -29 -43 -4 4 -9 28
-10 55 -2 27 -8 47 -14 46 -6 -2 -11 13 -11 35 0 20 -5 44 -10 52 -7 10 -10
-18 -11 -90 -2 -104 -2 -105 -9 -35 -7 71 -3 229 7 275 4 21 8 15 23 -35 10
-33 25 -80 34 -105z m-88 33 c-4 -64 -2 -153 5 -218 9 -75 9 -116 2 -129 -7
-13 -13 12 -23 104 -11 99 -11 142 0 236 7 63 15 114 17 114 3 0 2 -48 -1
-107z m372 -158 c-6 -93 -16 -163 -26 -185 -14 -31 -16 -32 -19 -13 -2 12 3
42 11 68 20 57 19 80 0 40 l-15 -30 6 35 c8 47 12 62 20 83 13 31 -5 18 -19
-15 -34 -78 -7 31 39 161 12 33 13 -3 3 -144z m492 44 c0 -11 -4 -17 -10 -14
-5 3 -10 13 -10 21 0 8 5 14 10 14 6 0 10 -9 10 -21z m-678 -91 c-4 -18 -7
-104 -7 -190 0 -86 -3 -152 -7 -145 -10 16 -9 -52 1 -78 12 -29 3 -49 -15 -34
-8 7 -14 7 -14 1 0 -5 7 -15 15 -22 12 -10 12 -15 0 -34 -8 -13 -12 -26 -8
-29 3 -4 1 -7 -5 -7 -6 0 -21 23 -34 50 -13 28 -26 50 -30 50 -8 0 33 -92 51
-114 9 -11 11 -42 8 -110 -6 -97 -11 -121 -27 -111 -5 3 -7 -7 -5 -23 2 -16
-1 -35 -5 -43 -7 -11 -13 -10 -29 5 -24 22 -28 10 -6 -21 15 -21 14 -22 -41
-33 -88 -18 -183 2 -237 51 l-29 27 41 7 c23 4 58 4 80 0 40 -7 56 7 46 40 -3
8 -8 23 -11 33 -7 21 -15 122 -15 175 1 53 25 94 60 102 16 3 35 13 42 21 10
13 14 13 29 -1 16 -15 18 -14 24 11 5 20 2 31 -13 45 -36 34 -40 180 -6 247
12 22 142 162 151 162 1 0 -1 -15 -4 -32z m608 22 c0 -5 -2 -10 -4 -10 -3 0
-8 5 -11 10 -3 6 -1 10 4 10 6 0 11 -4 11 -10z m-483 -57 c-4 -3 -10 -3 -14 0
-3 4 0 7 7 7 7 0 10 -3 7 -7z m-270 -35 c-3 -7 -5 -2 -5 12 0 14 2 19 5 13 2
-7 2 -19 0 -25z m30 15 c-4 -3 -7 0 -7 7 0 7 3 10 7 7 3 -4 3 -10 0 -14z
m-762 -3 c3 -5 4 -10 1 -10 -3 0 -8 5 -11 10 -3 6 -4 10 -1 10 3 0 8 -4 11
-10z m60 -20 c3 -5 2 -10 -4 -10 -5 0 -13 5 -16 10 -3 6 -2 10 4 10 5 0 13 -4
16 -10z m1865 -70 c0 -5 -4 -10 -10 -10 -5 0 -10 5 -10 10 0 6 5 10 10 10 6 0
10 -4 10 -10z m-33 -17 c-4 -3 -10 -3 -14 0 -3 4 0 7 7 7 7 0 10 -3 7 -7z
m-1601 -140 c-3 -4 -62 54 -111 109 -16 18 3 2 42 -36 40 -39 71 -71 69 -73z
m681 120 c-4 -3 -7 0 -7 7 0 7 3 10 7 7 3 -4 3 -10 0 -14z m20 -20 c-4 -3 -7
0 -7 7 0 7 3 10 7 7 3 -4 3 -10 0 -14z m-755 -98 c11 -20 11 -20 -12 0 -38 32
-79 79 -80 90 0 12 79 -64 92 -90z m109 -72 c24 -32 53 -69 66 -82 28 -29 33
-62 5 -34 -22 21 -125 173 -118 173 3 0 24 -26 47 -57z m1156 30 c-4 -3 -7 0
-7 7 0 7 3 10 7 7 3 -4 3 -10 0 -14z m-821 -64 c3 -5 -7 -14 -23 -20 -37 -14
-73 -48 -73 -70 0 -10 -3 -25 -7 -35 -6 -16 -7 -16 -14 2 -12 27 -3 -136 9
-166 5 -14 12 -37 15 -51 7 -26 6 -27 -26 -19 -18 4 -42 12 -54 18 -14 8 -24
8 -28 2 -10 -17 -58 9 -97 53 -21 23 -38 45 -38 50 0 4 -7 7 -15 7 -22 0 -18
17 7 34 35 25 45 19 63 -33 18 -56 61 -103 74 -82 7 11 13 10 35 -4 15 -10 26
-13 26 -6 0 6 -16 21 -35 33 -93 61 -63 215 54 275 43 22 116 29 127 12z
m1524 -163 c-18 -37 -36 -69 -41 -72 -15 -9 -10 5 26 73 19 36 36 75 36 87 2
20 2 20 6 -1 2 -12 -10 -51 -27 -87z m-2020 43 c0 -6 -4 -7 -10 -4 -5 3 -10
11 -10 16 0 6 5 7 10 4 6 -3 10 -11 10 -16z m696 -119 c11 -107 10 -148 -6
-202 -15 -49 -26 -59 -36 -33 -8 20 -24 9 -24 -16 0 -11 5 -17 10 -14 6 3 10
0 10 -7 0 -16 -98 -23 -145 -10 -28 8 -27 9 22 16 55 7 107 41 118 76 4 11 11
20 17 20 5 0 8 -7 4 -15 -3 -8 -1 -15 3 -15 16 0 22 34 8 45 -11 7 -12 17 -5
35 5 14 7 70 3 125 -7 115 8 112 21 -5z m-469 33 c-4 -3 -7 0 -7 7 0 7 3 10 7
7 3 -4 3 -10 0 -14z m-96 -36 c-1 -12 -15 -9 -19 4 -3 6 1 10 8 8 6 -3 11 -8
11 -12z m1996 -19 c-3 -8 -6 -5 -6 6 -1 11 2 17 5 13 3 -3 4 -12 1 -19z m-192
-116 c0 -59 3 -109 7 -112 9 -7 -2 -50 -12 -50 -23 0 -32 77 -14 112 10 20 11
34 4 53 -6 15 -10 49 -10 78 0 41 3 49 13 39 8 -9 12 -48 12 -120z m55 108
c-12 -23 -30 -27 -30 -6 0 8 8 17 18 19 9 3 18 5 20 6 1 0 -2 -8 -8 -19z
m-250 -6 c0 -2 -9 -4 -20 -4 -11 0 -20 4 -20 9 0 5 9 7 20 4 11 -3 20 -7 20
-9z m-1587 -34 c14 -11 28 -28 31 -38 3 -10 20 -26 38 -37 30 -17 80 -67 74
-73 -7 -6 -106 66 -131 96 -15 17 -35 32 -46 32 -10 0 -19 2 -19 4 0 2 -3 11
-6 20 -9 23 27 21 59 -4z m-56 -57 c-4 -3 -7 0 -7 7 0 7 3 10 7 7 3 -4 3 -10
0 -14z m48 -3 c3 -5 1 -10 -4 -10 -6 0 -11 5 -11 10 0 6 2 10 4 10 3 0 8 -4
11 -10z m-155 -26 c0 -2 -7 -4 -15 -4 -8 0 -15 4 -15 10 0 5 7 7 15 4 8 -4 15
-8 15 -10z m211 -23 c22 -17 46 -32 52 -34 7 -2 9 -8 5 -12 -7 -7 -91 46 -103
65 -11 17 4 11 46 -19z m-658 -15 c48 -12 77 -24 77 -33 0 -17 -20 -16 -43 1
-10 8 -47 20 -82 27 -53 10 -62 15 -53 26 6 8 14 10 17 6 3 -5 41 -17 84 -27z
m476 5 c3 -1 -6 -12 -19 -26 -12 -13 -26 -22 -31 -20 -4 3 -38 -9 -75 -25 -59
-27 -69 -29 -76 -15 -8 13 -13 13 -36 1 -15 -7 -47 -12 -72 -11 -58 3 -60 3
-60 14 0 5 27 7 60 4 41 -4 60 -2 60 6 0 6 -19 11 -47 12 -27 0 -57 4 -68 9
-24 10 -22 12 35 15 25 1 67 8 94 14 26 6 78 14 115 17 36 4 67 7 68 8 3 2 37
0 52 -3z m189 -36 c17 -14 35 -25 40 -25 6 0 17 -8 24 -18 7 -10 22 -24 33
-31 18 -11 18 -11 -5 -5 -22 6 -35 8 -77 13 -7 0 -10 7 -7 14 3 8 -10 20 -31
30 -34 16 -42 27 -28 40 11 11 20 8 51 -18z m1355 -9 c3 -7 1 -18 -4 -23 -5
-5 -14 -45 -19 -89 -11 -94 -19 -124 -32 -124 -5 0 -7 8 -4 18 5 17 22 123 30
192 3 19 5 36 5 38 3 8 20 0 24 -12z m-1253 -16 c12 -8 11 -10 -7 -10 -12 0
-25 5 -28 10 -8 13 15 13 35 0z m1321 -25 c19 -8 26 -14 17 -15 -10 0 -18 -6
-18 -12 0 -7 -9 -24 -20 -38 l-20 -25 0 53 c0 28 2 52 4 52 2 0 19 -7 37 -15z
m-1745 -20 c-11 -8 -27 -15 -35 -14 -9 0 -2 7 14 14 39 18 45 18 21 0z m521 8
c-4 -3 -10 -3 -14 0 -3 4 0 7 7 7 7 0 10 -3 7 -7z m-607 -23 c11 -7 5 -10 -23
-10 -23 0 -36 4 -32 10 8 13 35 13 55 0z m697 3 c-4 -3 -10 -3 -14 0 -3 4 0 7
7 7 7 0 10 -3 7 -7z m76 -10 c-7 -2 -19 -2 -25 0 -7 3 -2 5 12 5 14 0 19 -2
13 -5z m-393 -23 c13 -8 13 -10 -2 -10 -9 0 -20 5 -23 10 -8 13 5 13 25 0z
m77 -6 c-3 -3 -12 -4 -19 -1 -8 3 -5 6 6 6 11 1 17 -2 13 -5z m197 -6 c-7 -11
-64 -10 -64 2 0 5 16 9 35 8 19 -1 32 -5 29 -10z m1611 -38 c3 -5 1 -10 -4
-10 -6 0 -11 5 -11 10 0 6 2 10 4 10 3 0 8 -4 11 -10z m165 0 c0 -5 -12 -10
-27 -9 l-28 1 25 8 c14 4 26 8 28 9 1 1 2 -3 2 -9z m-87 -7 c-7 -2 -19 -2 -25
0 -7 3 -2 5 12 5 14 0 19 -2 13 -5z m144 0 c-4 -3 -10 -3 -14 0 -3 4 0 7 7 7
7 0 10 -3 7 -7z m30 -10 c-4 -3 -10 -3 -14 0 -3 4 0 7 7 7 7 0 10 -3 7 -7z
m433 -84 c17 -14 21 -22 12 -26 -6 -2 -10 -9 -6 -14 3 -5 -1 -9 -8 -9 -12 0
-108 84 -108 95 0 9 87 -27 110 -46z m-1300 -69 c-16 -31 -23 -18 -8 15 7 15
14 23 16 17 2 -6 -2 -21 -8 -32z m1235 -51 c4 -6 14 -8 22 -5 13 5 68 -22 60
-30 -2 -2 -28 3 -58 12 -30 9 -83 17 -119 16 -46 0 -58 2 -40 8 37 12 128 12
135 -1z m-198 -6 c-4 -3 -10 -3 -14 0 -3 4 0 7 7 7 7 0 10 -3 7 -7z m-812 -33
c10 -11 13 -20 7 -20 -7 0 -12 -8 -12 -18 0 -47 -96 -95 -164 -82 l-30 5 27
12 c33 15 36 37 5 28 l-23 -6 23 18 c24 18 132 80 143 82 3 0 14 -8 24 -19z
m-126 -3 c-2 -1 -13 -9 -24 -17 -19 -14 -19 -14 -6 3 7 9 18 17 24 17 6 0 8
-1 6 -3z m-484 -132 c16 -59 13 -155 -5 -155 -13 0 -30 59 -30 104 0 44 11
119 16 113 2 -1 10 -30 19 -62z m52 3 c-3 -7 -5 -2 -5 12 0 14 2 19 5 13 2 -7
2 -19 0 -25z m-317 -53 c0 -5 -9 5 -20 23 -11 18 -20 38 -20 45 1 14 39 -52
40 -68z m-68 40 c3 -13 1 -22 -3 -19 -9 5 -13 44 -5 44 2 0 6 -11 8 -25z m123
-109 c10 -14 15 -29 12 -32 -11 -12 -60 75 -52 93 6 16 9 14 15 -8 4 -14 15
-38 25 -53z m223 -86 c0 -16 -4 -30 -9 -30 -5 0 -9 14 -9 30 0 17 4 30 8 30 5
0 9 -13 10 -30z m-228 -75 c0 -5 17 -28 38 -50 51 -54 82 -95 82 -109 0 -6
-13 3 -28 20 -16 17 -33 33 -39 35 -10 4 -93 151 -93 166 0 12 40 -50 40 -62z"/>
<path d="M1760 5480 c0 -7 3 -10 7 -7 3 4 3 10 0 14 -4 3 -7 0 -7 -7z"/>
<path d="M1786 5371 c-4 -7 -5 -15 -2 -18 9 -9 19 4 14 18 -4 11 -6 11 -12 0z"/>
<path d="M1780 5326 c0 -2 7 -7 16 -10 8 -3 12 -2 9 4 -6 10 -25 14 -25 6z"/>
<path d="M1795 5100 c-3 -5 -1 -10 4 -10 6 0 11 5 11 10 0 6 -2 10 -4 10 -3 0
-8 -4 -11 -10z"/>
<path d="M2893 4993 c4 -3 10 -3 14 0 3 4 0 7 -7 7 -7 0 -10 -3 -7 -7z"/>
<path d="M2703 4933 c4 -3 10 -3 14 0 3 4 0 7 -7 7 -7 0 -10 -3 -7 -7z"/>
<path d="M2673 4923 c4 -3 10 -3 14 0 3 4 0 7 -7 7 -7 0 -10 -3 -7 -7z"/>
<path d="M1883 4843 c4 -3 10 -3 14 0 3 4 0 7 -7 7 -7 0 -10 -3 -7 -7z"/>
<path d="M1710 3530 c0 -7 3 -10 7 -7 3 4 3 10 0 14 -4 3 -7 0 -7 -7z"/>
<path d="M1773 3433 c4 -3 10 -3 14 0 3 4 0 7 -7 7 -7 0 -10 -3 -7 -7z"/>
<path d="M1545 3420 c3 -5 14 -10 23 -10 15 0 15 2 2 10 -20 13 -33 13 -25 0z"/>
<path d="M1740 3420 c0 -7 3 -10 7 -7 3 4 3 10 0 14 -4 3 -7 0 -7 -7z"/>
<path d="M1767 3364 c-7 -7 41 -100 59 -115 21 -17 17 3 -11 60 -26 51 -38 65
-48 55z"/>
<path d="M1812 3345 c6 -14 15 -22 20 -17 12 12 -1 42 -18 42 -11 0 -11 -5 -2
-25z"/>
<path d="M1949 3205 c-1 -5 -1 -14 0 -19 1 -4 -4 -14 -10 -22 -9 -11 -9 -14 0
-14 7 0 10 -4 6 -9 -3 -5 -1 -12 4 -15 11 -7 20 60 9 77 -4 6 -8 8 -9 2z"/>
<path d="M1950 3080 c0 -7 3 -10 7 -7 3 4 3 10 0 14 -4 3 -7 0 -7 -7z"/>
<path d="M1886 3691 c-4 -7 -5 -15 -2 -18 9 -9 19 4 14 18 -4 11 -6 11 -12 0z"/>
<path d="M3275 3000 c-3 -5 -1 -10 4 -10 6 0 11 5 11 10 0 6 -2 10 -4 10 -3 0
-8 -4 -11 -10z"/>
<path d="M3218 2843 c-20 -26 -35 -50 -32 -52 5 -6 83 80 84 92 1 18 -18 3
-52 -40z"/>
<path d="M3395 2730 c11 -5 27 -9 35 -9 13 -1 13 0 0 9 -8 5 -24 9 -35 9 -20
0 -20 0 0 -9z"/>
<path d="M3202 2678 c-58 -51 -77 -76 -68 -85 3 -3 35 24 73 60 82 80 79 100
-5 25z"/>
<path d="M3155 2660 c-3 -5 -2 -10 4 -10 5 0 13 5 16 10 3 6 2 10 -4 10 -5 0
-13 -4 -16 -10z"/>
<path d="M2041 2734 c0 -11 3 -14 6 -6 3 7 2 16 -1 19 -3 4 -6 -2 -5 -13z"/>
<path d="M2060 2740 c0 -7 3 -10 7 -7 3 4 3 10 0 14 -4 3 -7 0 -7 -7z"/>
<path d="M2065 2640 c3 -5 8 -10 11 -10 3 0 2 5 -1 10 -3 6 -8 10 -11 10 -3 0
-2 -4 1 -10z"/>
<path d="M2057 2583 c-3 -5 -1 -17 4 -28 7 -17 8 -17 8 8 1 27 -4 34 -12 20z"/>
<path d="M2065 2510 c3 -5 8 -10 11 -10 2 0 4 5 4 10 0 6 -5 10 -11 10 -5 0
-7 -4 -4 -10z"/>
<path d="M2050 2461 c0 -6 4 -13 10 -16 6 -3 7 1 4 9 -7 18 -14 21 -14 7z"/>
<path d="M2060 2405 c0 -8 5 -15 10 -15 6 0 10 7 10 15 0 8 -4 15 -10 15 -5 0
-10 -7 -10 -15z"/>
<path d="M2040 2268 c0 -12 3 -17 8 -12 4 5 11 12 15 15 5 3 2 9 -7 12 -12 5
-16 0 -16 -15z"/>
<path d="M2037 2039 c-4 -15 -1 -19 11 -17 21 4 29 38 9 38 -8 0 -17 -9 -20
-21z"/>
<path d="M2030 1981 c0 -21 26 -36 36 -20 9 15 -3 39 -21 39 -8 0 -15 -9 -15
-19z"/>
<path d="M2037 1923 c-4 -3 -7 -13 -7 -21 0 -18 13 -7 16 13 2 17 1 18 -9 8z"/>
<path d="M2041 1824 c0 -11 3 -14 6 -6 3 7 2 16 -1 19 -3 4 -6 -2 -5 -13z"/>
<path d="M2023 1743 c4 -3 10 -3 14 0 3 4 0 7 -7 7 -7 0 -10 -3 -7 -7z"/>
<path d="M2013 1523 c4 -3 10 -3 14 0 3 4 0 7 -7 7 -7 0 -10 -3 -7 -7z"/>
<path d="M2010 1370 c0 -7 3 -10 7 -7 3 4 3 10 0 14 -4 3 -7 0 -7 -7z"/>
<path d="M2043 1333 c4 -3 10 -3 14 0 3 4 0 7 -7 7 -7 0 -10 -3 -7 -7z"/>
<path d="M2010 1170 c0 -5 5 -10 11 -10 5 0 7 5 4 10 -3 6 -8 10 -11 10 -2 0
-4 -4 -4 -10z"/>
<path d="M2020 1134 c0 -8 5 -12 10 -9 6 4 8 11 5 16 -9 14 -15 11 -15 -7z"/>
<path d="M1617 2033 c1 -49 6 -101 12 -118 11 -29 11 -28 6 10 -3 22 -5 75 -5
118 0 42 -3 77 -8 77 -4 0 -6 -39 -5 -87z"/>
<path d="M1585 1948 c4 -40 12 -77 17 -83 7 -7 9 -2 4 15 -3 14 -6 51 -6 83 0
35 -4 57 -11 57 -8 0 -9 -22 -4 -72z"/>
<path d="M1550 1866 c10 -29 26 -66 35 -82 9 -16 13 -20 10 -9 -34 102 -50
145 -56 145 -5 0 0 -24 11 -54z"/>
<path d="M1600 1839 c0 -25 12 -59 20 -59 5 0 5 14 0 31 -11 36 -20 49 -20 28z"/>
<path d="M1510 1731 c10 -21 30 -37 30 -26 0 14 -21 45 -31 45 -6 0 -6 -7 1
-19z"/>
<path d="M1500 1684 c0 -5 7 -18 15 -28 12 -16 15 -17 15 -4 0 8 -7 21 -15 28
-8 7 -15 9 -15 4z"/>
<path d="M1535 1620 c3 -5 8 -10 11 -10 3 0 2 5 -1 10 -3 6 -8 10 -11 10 -3 0
-2 -4 1 -10z"/>
<path d="M1560 1583 c0 -6 8 -17 18 -24 16 -13 16 -13 2 6 -8 11 -16 22 -17
24 -2 2 -3 0 -3 -6z"/>
<path d="M1452 1358 c5 -15 28 -23 28 -10 0 5 -7 13 -16 16 -10 4 -14 1 -12
-6z"/>
<path d="M1650 1420 c0 -7 3 -10 7 -7 3 4 3 10 0 14 -4 3 -7 0 -7 -7z"/>
<path d="M783 1333 c4 -3 10 -3 14 0 3 4 0 7 -7 7 -7 0 -10 -3 -7 -7z"/>
<path d="M2535 850 c-3 -5 -1 -10 4 -10 6 0 11 5 11 10 0 6 -2 10 -4 10 -3 0
-8 -4 -11 -10z"/>
<path d="M1285 6018 c18 -59 43 -94 97 -136 32 -25 58 -49 58 -55 0 -13 53
-87 63 -87 5 0 -1 13 -12 29 -12 16 -21 34 -21 41 0 22 58 -29 90 -80 35 -55
52 -62 25 -10 -23 44 -79 98 -168 159 -64 44 -81 62 -102 107 -26 55 -42 72
-30 32z"/>
<path d="M1360 5698 c1 -26 108 -243 116 -235 3 3 -18 51 -45 107 -28 56 -51
108 -51 115 0 8 -4 17 -10 20 -5 3 -10 0 -10 -7z"/>
<path d="M2925 5664 c-11 -8 -30 -12 -41 -10 -16 4 -23 0 -27 -14 -3 -13 -10
-18 -21 -14 -11 4 -16 1 -16 -10 0 -9 -6 -16 -13 -16 -25 0 -107 -72 -135
-119 -43 -70 -99 -210 -107 -266 -3 -27 -13 -74 -22 -103 -16 -57 -13 -82 5
-35 5 15 20 55 32 88 12 33 29 74 36 92 8 17 14 37 14 45 0 16 48 121 59 128
4 3 12 13 17 22 19 36 137 148 181 173 l45 25 -6 -28 c-4 -15 -7 -35 -7 -45 0
-30 -28 -99 -47 -114 -15 -13 -15 -13 8 -7 14 3 25 7 25 8 1 0 6 17 13 37 7
19 12 48 12 63 0 15 8 45 19 66 24 51 15 64 -24 34z m-135 -88 c0 -3 -5 -8
-12 -12 -7 -4 -8 -3 -4 4 7 12 16 16 16 8z m-72 -80 c-24 -29 -45 -52 -47 -50
-5 5 21 43 52 77 44 46 40 30 -5 -27z m-111 -223 c-4 -3 -7 0 -7 7 0 7 3 10 7
7 3 -4 3 -10 0 -14z"/>
<path d="M3003 5662 c-7 -12 -9 -49 -6 -103 5 -74 2 -95 -25 -180 -34 -109
-44 -126 -124 -223 -32 -39 -58 -73 -58 -77 0 -11 113 100 143 141 14 19 39
71 56 115 29 75 31 86 27 193 -4 121 2 131 24 42 22 -87 17 -255 -8 -312 -27
-60 -75 -126 -118 -161 -19 -16 -32 -33 -29 -38 3 -5 30 16 61 46 41 42 64 56
94 61 48 8 50 -2 10 -41 -16 -16 -30 -34 -30 -39 1 -13 90 84 90 98 0 5 -22 6
-50 2 l-49 -7 27 53 c23 44 28 67 30 150 4 109 -11 216 -36 265 -16 30 -18 31
-29 15z"/>
<path d="M2876 5415 c-9 -21 -22 -35 -33 -35 -17 -1 -17 -2 1 -15 19 -14 19
-15 1 -35 -10 -11 -24 -20 -32 -20 -7 0 -13 -4 -13 -9 0 -14 37 -1 55 19 9 10
15 27 13 37 -2 10 5 26 14 35 16 16 25 58 13 58 -3 0 -11 -16 -19 -35z"/>
<path d="M1420 5410 c-11 -7 -11 -14 0 -42 18 -43 17 -43 35 -28 19 16 20 34
1 27 -11 -4 -13 -1 -9 10 5 12 3 14 -8 8 -12 -7 -12 -6 -1 7 15 19 3 31 -18
18z"/>
<path d="M1497 5265 c18 -24 33 -32 33 -17 0 8 -37 42 -46 42 -3 0 3 -11 13
-25z"/>
<path d="M2133 4893 c4 -16 10 -46 14 -68 7 -31 10 -36 16 -22 4 10 0 41 -9
68 -18 53 -30 66 -21 22z"/>
<path d="M1910 4740 c0 -7 3 -10 7 -7 3 4 3 10 0 14 -4 3 -7 0 -7 -7z"/>
<path d="M1580 4498 c0 -41 13 -78 24 -67 3 2 1 22 -4 43 -5 21 -6 45 -3 52 3
8 0 14 -6 14 -6 0 -11 -18 -11 -42z"/>
<path d="M2260 4500 c0 -7 3 -10 7 -7 3 4 3 10 0 14 -4 3 -7 0 -7 -7z"/>
<path d="M1603 4391 c0 -11 5 -17 9 -15 11 7 10 34 -1 34 -6 0 -9 -9 -8 -19z"/>
<path d="M1025 4283 c-7 -138 -9 -143 -32 -143 -57 -1 -123 -45 -85 -57 6 -3
12 2 12 10 0 23 122 48 191 40 63 -7 99 -23 152 -69 58 -49 66 -39 64 74 -1
56 2 97 8 99 12 4 14 147 3 159 -5 4 -8 -9 -8 -29 0 -65 -6 -70 -58 -42 -26
14 -51 25 -57 25 -6 0 -46 11 -89 25 -43 14 -82 25 -86 25 -5 0 -11 -53 -15
-117z m96 25 c38 -39 69 -74 69 -77 0 -5 -89 76 -102 94 -4 5 -10 6 -14 2 -4
-3 11 -27 32 -53 64 -77 105 -134 95 -134 -6 0 -13 5 -16 10 -3 6 -18 7 -32 4
-14 -4 -28 -2 -32 5 -5 7 -17 8 -39 2 -17 -5 -34 -6 -37 -1 -5 9 -2 220 4 220
1 0 34 -32 72 -72z m24 31 c-6 11 -4 13 11 7 10 -5 34 -12 53 -16 59 -15 101
-42 101 -67 0 -13 -5 -23 -11 -23 -7 0 -9 -11 -5 -30 3 -16 3 -30 1 -30 -3 0
-18 24 -35 53 -16 28 -38 58 -50 65 -28 17 -25 1 5 -32 26 -28 32 -46 15 -46
-5 0 -10 4 -10 9 0 5 -25 34 -55 64 -54 53 -77 89 -33 51 12 -10 18 -13 13 -5z
m142 -201 c-3 -8 -6 -5 -6 6 -1 11 2 17 5 13 3 -3 4 -12 1 -19z m-17 -30 c0
-4 7 -8 16 -8 8 0 12 -5 9 -11 -11 -16 -48 14 -51 42 -4 23 -3 23 11 5 8 -11
15 -23 15 -28z"/>
<path d="M1060 4280 c0 -19 28 -60 41 -60 11 0 1 21 -25 55 -12 15 -15 16 -16
5z"/>
<path d="M1826 4298 c3 -29 10 -57 16 -63 7 -7 9 -2 4 15 -3 14 -6 42 -6 63 0
20 -4 37 -10 37 -6 0 -8 -21 -4 -52z"/>
<path d="M2010 4280 c0 -5 5 -10 11 -10 5 0 7 5 4 10 -3 6 -8 10 -11 10 -2 0
-4 -4 -4 -10z"/>
<path d="M1348 4214 c-6 -6 7 -72 17 -82 3 -3 3 14 -1 38 -8 50 -8 52 -16 44z"/>
<path d="M1841 4194 c0 -11 3 -14 6 -6 3 7 2 16 -1 19 -3 4 -6 -2 -5 -13z"/>
<path d="M2013 4196 c5 -16 27 -19 27 -3 0 7 -7 14 -15 14 -9 0 -14 -5 -12
-11z"/>
<path d="M1410 4187 c0 -2 13 -44 30 -93 16 -49 30 -90 30 -91 0 -2 4 -3 9 -3
10 0 -51 189 -61 190 -5 0 -8 -2 -8 -3z"/>
<path d="M1773 4140 c0 -25 2 -35 4 -22 2 12 2 32 0 45 -2 12 -4 2 -4 -23z"/>
<path d="M1810 4157 c0 -14 5 -29 10 -32 7 -4 8 3 4 22 -9 38 -14 42 -14 10z"/>
<path d="M1550 4160 c0 -7 3 -10 7 -7 3 4 3 10 0 14 -4 3 -7 0 -7 -7z"/>
<path d="M2035 4150 c3 -5 8 -10 11 -10 2 0 4 5 4 10 0 6 -5 10 -11 10 -5 0
-7 -4 -4 -10z"/>
<path d="M1491 4130 c0 -8 6 -28 14 -45 7 -16 14 -23 14 -15 0 8 -6 29 -14 45
-7 17 -14 23 -14 15z"/>
<path d="M1852 4115 c0 -16 2 -22 5 -12 2 9 2 23 0 30 -3 6 -5 -1 -5 -18z"/>
<path d="M1561 4114 c0 -11 3 -14 6 -6 3 7 2 16 -1 19 -3 4 -6 -2 -5 -13z"/>
<path d="M1820 4100 c0 -7 3 -10 7 -7 3 4 3 10 0 14 -4 3 -7 0 -7 -7z"/>
<path d="M1376 4085 c4 -8 8 -15 10 -15 2 0 4 7 4 15 0 8 -4 15 -10 15 -5 0
-7 -7 -4 -15z"/>
<path d="M1210 4045 c0 -16 67 -91 74 -84 4 4 -11 26 -34 50 -22 24 -40 39
-40 34z"/>
<path d="M1520 4040 c0 -7 3 -10 7 -7 3 4 3 10 0 14 -4 3 -7 0 -7 -7z"/>
<path d="M1793 4043 c4 -3 10 -3 14 0 3 4 0 7 -7 7 -7 0 -10 -3 -7 -7z"/>
<path d="M1677 3983 c9 -26 18 -43 20 -37 4 11 -24 84 -32 84 -2 0 3 -21 12
-47z"/>
<path d="M1801 4005 c0 -11 7 -36 15 -55 l14 -35 -6 40 c-7 46 -24 83 -23 50z"/>
<path d="M1635 4000 c3 -5 8 -10 11 -10 2 0 4 5 4 10 0 6 -5 10 -11 10 -5 0
-7 -4 -4 -10z"/>
<path d="M1325 3973 c10 -14 27 -41 38 -60 11 -19 21 -32 24 -30 6 6 -61 117
-71 117 -4 0 0 -12 9 -27z"/>
<path d="M1770 3985 c1 -6 7 -21 16 -35 l15 -25 -7 25 c-7 26 -24 52 -24 35z"/>
<path d="M1650 3970 c0 -7 3 -10 7 -7 3 4 3 10 0 14 -4 3 -7 0 -7 -7z"/>
<path d="M1391 3965 c1 -19 18 -51 18 -35 0 8 -4 22 -9 30 -5 8 -9 11 -9 5z"/>
<path d="M1750 3943 c0 -4 5 -15 10 -23 8 -13 10 -13 10 2 0 9 -4 20 -10 23
-5 3 -10 3 -10 -2z"/>
<path d="M1300 3936 c0 -2 7 -9 15 -16 13 -11 14 -10 9 4 -5 14 -24 23 -24 12z"/>
<path d="M2032 3910 c0 -16 4 -30 9 -30 5 0 9 14 9 30 0 17 -4 30 -8 30 -5 0
-9 -13 -10 -30z"/>
<path d="M1801 3913 c-1 -18 19 -67 25 -61 3 3 -2 21 -10 39 -8 19 -15 29 -15
22z"/>
<path d="M1410 3896 c0 -9 5 -16 10 -16 6 0 10 4 10 9 0 6 -4 13 -10 16 -5 3
-10 -1 -10 -9z"/>
<path d="M1427 3830 c9 -22 18 -38 20 -36 5 5 -24 76 -31 76 -2 0 3 -18 11
-40z"/>
<path d="M2116 3838 l-19 -33 23 21 c12 12 21 27 19 33 -3 7 -13 -3 -23 -21z"/>
<path d="M1450 3776 c0 -11 72 -157 76 -153 5 5 -65 157 -72 157 -2 0 -4 -2
-4 -4z"/>
<path d="M2096 3443 c2 -484 3 -505 14 -498 17 10 8 835 -9 835 -4 0 -6 -152
-5 -337z"/>
<path d="M2047 3696 c-3 -8 -2 -18 3 -21 13 -8 24 15 12 27 -6 6 -11 4 -15 -6z"/>
<path d="M1541 3605 c0 -5 6 -19 14 -29 8 -11 15 -15 15 -10 0 6 -7 19 -15 30
-8 10 -14 15 -14 9z"/>
<path d="M2040 3569 c0 -18 2 -19 15 -9 8 7 15 16 15 21 0 5 -7 9 -15 9 -9 0
-15 -9 -15 -21z"/>
<path d="M2052 3538 c-10 -12 -9 -18 3 -28 19 -16 23 -11 16 19 -6 20 -8 22
-19 9z"/>
<path d="M1580 3530 c0 -5 5 -10 11 -10 5 0 7 5 4 10 -3 6 -8 10 -11 10 -2 0
-4 -4 -4 -10z"/>
<path d="M1600 3503 c0 -6 7 -18 15 -27 8 -8 15 -19 15 -25 0 -6 5 -11 10 -11
16 0 11 12 -15 45 -14 17 -25 25 -25 18z"/>
<path d="M2040 3355 c0 -9 5 -15 11 -13 6 2 11 8 11 13 0 5 -5 11 -11 13 -6 2
-11 -4 -11 -13z"/>
<path d="M2040 3310 c0 -11 5 -20 12 -20 6 0 8 3 5 7 -4 3 -2 12 4 20 9 10 8
13 -5 13 -9 0 -16 -8 -16 -20z"/>
<path d="M2603 3280 c-1 -11 2 -20 8 -20 5 0 9 9 9 20 0 11 -4 20 -8 20 -4 0
-8 -9 -9 -20z"/>
<path d="M3225 3260 c-3 -5 -1 -10 4 -10 6 0 11 5 11 10 0 6 -2 10 -4 10 -3 0
-8 -4 -11 -10z"/>
<path d="M2620 3229 c0 -6 5 -19 11 -30 6 -12 12 -51 15 -87 2 -37 8 -80 13
-97 8 -25 9 -16 10 46 1 76 -22 179 -39 179 -6 0 -10 -5 -10 -11z"/>
<path d="M3150 3205 c0 -8 -4 -15 -9 -15 -10 0 -51 -61 -51 -76 0 -10 28 21
58 63 24 35 27 43 12 43 -5 0 -10 -7 -10 -15z"/>
<path d="M2982 3133 c-25 -39 -25 -48 -2 -30 26 20 52 67 38 67 -7 -1 -23 -17
-36 -37z"/>
<path d="M3050 3137 c-14 -17 -18 -27 -10 -23 25 15 50 39 50 48 0 16 -15 7
-40 -25z"/>
<path d="M2720 3119 c0 -5 5 -7 10 -4 6 3 10 8 10 11 0 2 -4 4 -10 4 -5 0 -10
-5 -10 -11z"/>
<path d="M2886 3078 c-14 -17 -26 -36 -26 -42 0 -11 59 55 60 67 0 13 -7 8
-34 -25z"/>
<path d="M2480 3070 c0 -7 3 -10 7 -7 3 4 3 10 0 14 -4 3 -7 0 -7 -7z"/>
<path d="M2713 3033 c4 -3 10 -3 14 0 3 4 0 7 -7 7 -7 0 -10 -3 -7 -7z"/>
<path d="M2070 2980 c0 -7 3 -10 7 -7 3 4 3 10 0 14 -4 3 -7 0 -7 -7z"/>
<path d="M2390 2940 c0 -7 3 -10 7 -7 3 4 3 10 0 14 -4 3 -7 0 -7 -7z"/>
<path d="M2391 2860 c0 -8 4 -24 9 -35 9 -20 9 -20 9 0 0 11 -4 27 -9 35 -9
13 -10 13 -9 0z"/>
<path d="M3000 2850 c-8 -5 -12 -12 -9 -15 4 -3 12 1 19 10 14 17 11 19 -10 5z"/>
<path d="M2430 2820 c0 -16 2 -30 4 -30 2 0 6 14 8 30 3 17 1 30 -4 30 -4 0
-8 -13 -8 -30z"/>
<path d="M2774 2805 c-18 -13 -18 -14 4 -8 12 3 25 9 28 14 8 14 -10 11 -32
-6z"/>
<path d="M2926 2769 c-21 -28 -36 -52 -33 -55 4 -4 15 8 73 79 16 19 18 27 7
27 -5 -1 -25 -23 -47 -51z"/>
<path d="M2849 2753 c-48 -65 -56 -84 -19 -43 41 47 64 80 58 85 -3 3 -20 -16
-39 -42z"/>
<path d="M3044 2767 c-39 -40 -137 -177 -131 -184 3 -2 15 10 27 27 15 21 25
28 30 20 5 -7 18 2 39 28 40 52 41 68 0 19 -17 -21 -33 -36 -36 -34 -6 6 51
87 82 116 14 13 25 27 25 32 0 13 -1 12 -36 -24z"/>
<path d="M2422 2750 c0 -14 2 -19 5 -12 2 6 2 18 0 25 -3 6 -5 1 -5 -13z"/>
<path d="M2390 2720 c0 -7 3 -10 7 -7 3 4 3 10 0 14 -4 3 -7 0 -7 -7z"/>
<path d="M2461 2714 c0 -11 3 -14 6 -6 3 7 2 16 -1 19 -3 4 -6 -2 -5 -13z"/>
<path d="M2687 2701 c-10 -19 -15 -36 -13 -38 6 -7 37 48 33 60 -2 6 -11 -4
-20 -22z"/>
<path d="M2430 2690 c0 -7 3 -10 7 -7 3 4 3 10 0 14 -4 3 -7 0 -7 -7z"/>
<path d="M2604 2678 c-4 -7 -3 -8 4 -4 12 7 16 16 8 16 -3 0 -8 -5 -12 -12z"/>
<path d="M1428 2612 c-158 -190 -223 -330 -207 -448 4 -28 10 -61 14 -73 5
-18 -1 -16 -46 14 -28 19 -83 50 -123 69 -78 37 -284 96 -335 96 -18 0 -41 5
-53 11 -11 6 -22 8 -25 6 -10 -10 55 -36 107 -43 30 -4 65 -13 79 -20 13 -7
28 -11 33 -8 5 3 33 -2 63 -11 37 -12 52 -21 48 -31 -3 -8 5 -17 20 -23 14 -5
41 -24 61 -41 20 -18 36 -27 36 -21 0 6 -4 11 -10 11 -5 0 -10 6 -10 13 0 7
-19 25 -42 40 -23 15 -39 27 -35 27 17 0 127 -61 127 -71 0 -13 109 -119 123
-119 6 0 -13 25 -43 56 -30 31 -45 51 -33 45 28 -14 89 -89 86 -105 -2 -6 12
-18 30 -26 17 -7 37 -16 42 -18 6 -3 6 1 -1 9 -12 16 -37 94 -40 124 0 11 -5
28 -9 38 -4 10 -3 17 3 17 7 0 10 44 11 118 0 85 -3 112 -11 99 -5 -10 -10
-52 -11 -93 -1 -47 -6 -75 -14 -78 -7 -3 -10 1 -7 8 3 8 1 17 -4 20 -15 9 4
98 37 167 31 66 107 176 169 243 30 34 41 57 25 55 -5 0 -29 -26 -55 -57z"/>
<path d="M2422 2640 c0 -14 2 -19 5 -12 2 6 2 18 0 25 -3 6 -5 1 -5 -13z"/>
<path d="M2445 2600 c-4 -12 -5 -24 -2 -27 3 -2 8 5 12 17 4 12 5 24 2 27 -3
2 -8 -5 -12 -17z"/>
<path d="M2946 2594 c-9 -24 -7 -28 9 -14 17 14 20 30 6 30 -5 0 -12 -7 -15
-16z"/>
<path d="M2380 2590 c0 -7 3 -10 7 -7 3 4 3 10 0 14 -4 3 -7 0 -7 -7z"/>
<path d="M3000 2590 c0 -7 3 -10 7 -7 3 4 3 10 0 14 -4 3 -7 0 -7 -7z"/>
<path d="M2967 2556 c-4 -10 -1 -13 9 -9 15 6 19 23 5 23 -5 0 -11 -7 -14 -14z"/>
<path d="M2999 2512 c-29 -34 -31 -47 -3 -20 15 15 26 30 23 32 -3 3 -12 -3
-20 -12z"/>
<path d="M1391 2452 c-22 -72 -28 -142 -11 -142 6 0 10 6 9 13 -4 34 2 77 12
77 6 0 9 -7 5 -15 -3 -8 -1 -15 4 -15 6 0 10 9 10 19 0 11 3 28 6 38 5 16 4
16 -10 -1 -20 -25 -21 -6 -1 41 17 41 19 53 6 53 -4 0 -18 -31 -30 -68z"/>
<path d="M2417 2473 c-4 -3 -7 -11 -7 -17 0 -6 5 -5 12 2 6 6 9 14 7 17 -3 3
-9 2 -12 -2z"/>
<path d="M3007 2445 c-20 -19 -32 -35 -27 -35 6 0 26 16 46 35 19 19 31 35 26
35 -4 0 -25 -16 -45 -35z"/>
<path d="M1341 2453 c-5 -11 -12 -55 -16 -99 -4 -65 -3 -75 6 -54 7 14 11 31
10 38 -1 7 3 38 9 68 12 59 9 79 -9 47z"/>
<path d="M3032 2419 c-35 -28 -61 -53 -58 -56 6 -6 106 67 127 93 24 29 -8 12
-69 -37z"/>
<path d="M2400 2420 c0 -7 3 -10 7 -7 3 4 3 10 0 14 -4 3 -7 0 -7 -7z"/>
<path d="M2886 2344 c-5 -14 -4 -15 9 -4 17 14 19 20 6 20 -5 0 -12 -7 -15
-16z"/>
<path d="M1400 2340 c0 -7 3 -10 7 -7 3 4 3 10 0 14 -4 3 -7 0 -7 -7z"/>
<path d="M2370 2300 c0 -39 14 -39 17 0 1 17 -2 30 -7 30 -6 0 -10 -13 -10
-30z"/>
<path d="M1370 2281 c0 -12 5 -21 10 -21 6 0 10 6 10 14 0 8 -4 18 -10 21 -5
3 -10 -3 -10 -14z"/>
<path d="M930 2173 c0 -5 9 -18 20 -28 11 -10 20 -14 20 -8 0 5 -9 18 -20 28
-11 10 -20 14 -20 8z"/>
<path d="M2340 2087 c0 -33 4 -47 12 -45 16 6 17 56 1 76 -10 14 -12 10 -13
-31z"/>
<path d="M946 2085 c4 -8 11 -15 16 -15 6 0 5 6 -2 15 -7 8 -14 15 -16 15 -2
0 -1 -7 2 -15z"/>
<path d="M2387 2093 c-2 -4 -1 -17 3 -28 7 -19 8 -19 15 -2 8 18 -9 46 -18 30z"/>
<path d="M3010 2080 c0 -7 3 -10 7 -7 3 4 3 10 0 14 -4 3 -7 0 -7 -7z"/>
<path d="M761 2063 c1 -15 86 -127 99 -131 8 -3 5 8 -8 26 -12 16 -22 35 -22
41 0 6 -3 11 -7 11 -5 0 -16 14 -25 30 -15 27 -39 41 -37 23z"/>
<path d="M980 2060 c0 -5 5 -10 11 -10 5 0 7 5 4 10 -3 6 -8 10 -11 10 -2 0
-4 -4 -4 -10z"/>
<path d="M1374 2053 c4 -9 11 -37 17 -61 5 -25 14 -52 20 -61 14 -23 0 63 -17
105 -14 34 -32 49 -20 17z"/>
<path d="M860 2048 c0 -9 5 -20 11 -23 17 -11 20 0 4 21 -13 17 -14 17 -15 2z"/>
<path d="M2480 2051 c0 -5 7 -11 14 -14 10 -4 13 -1 9 9 -6 15 -23 19 -23 5z"/>
<path d="M1336 2023 c7 -31 12 -38 18 -32 7 7 -6 59 -15 59 -5 0 -6 -12 -3
-27z"/>
<path d="M2908 1963 c3 -16 0 -23 -12 -23 -9 0 -16 -4 -16 -10 0 -18 40 -11
41 8 0 9 2 24 4 33 1 9 -3 16 -9 16 -8 0 -11 -10 -8 -24z"/>
<path d="M3045 1970 c-3 -5 -2 -10 4 -10 5 0 13 5 16 10 3 6 2 10 -4 10 -5 0
-13 -4 -16 -10z"/>
<path d="M1130 1931 c0 -5 5 -13 10 -16 6 -3 10 -2 10 4 0 5 -4 13 -10 16 -5
3 -10 2 -10 -4z"/>
<path d="M3113 1923 c4 -3 10 -3 14 0 3 4 0 7 -7 7 -7 0 -10 -3 -7 -7z"/>
<path d="M3099 1895 c-1 -5 -1 -32 0 -60 2 -33 -7 -74 -23 -119 -14 -39 -23
-72 -20 -75 17 -18 69 146 61 194 -4 26 -2 35 9 35 8 0 14 5 14 11 0 5 -5 7
-11 3 -6 -3 -15 0 -20 7 -5 8 -9 10 -10 4z"/>
<path d="M3156 1885 c4 -8 8 -15 10 -15 2 0 4 7 4 15 0 8 -4 15 -10 15 -5 0
-7 -7 -4 -15z"/>
<path d="M1160 1880 c0 -18 86 -107 95 -98 3 3 -17 30 -44 59 -30 32 -50 48
-51 39z"/>
<path d="M2880 1870 c0 -7 3 -10 7 -7 3 4 3 10 0 14 -4 3 -7 0 -7 -7z"/>
<path d="M1260 1860 c1 -8 7 -24 15 -34 19 -25 19 -16 0 20 -8 16 -15 22 -15
14z"/>
<path d="M2850 1846 c0 -15 18 -31 26 -23 7 7 -7 37 -17 37 -5 0 -9 -6 -9 -14z"/>
<path d="M3157 1854 c-4 -4 -4 -17 -1 -30 8 -33 -34 -138 -75 -185 -45 -54
-29 -65 18 -12 35 39 81 150 81 193 0 21 -15 42 -23 34z"/>
<path d="M3800 1812 c-19 -20 -43 -43 -53 -51 -15 -12 -17 -12 -11 4 6 14 -1
12 -34 -9 -23 -14 -47 -26 -53 -26 -6 0 -8 -7 -5 -16 5 -14 4 -15 -9 -4 -14
12 -14 15 1 31 10 11 14 22 11 25 -4 4 -9 -1 -13 -10 -3 -9 -12 -16 -19 -16
-7 0 -15 -3 -17 -7 -1 -5 -28 -21 -58 -36 l-55 -28 34 35 c48 49 34 55 -20 8
-24 -21 -72 -58 -106 -82 -60 -41 -87 -74 -42 -50 11 7 23 9 27 6 3 -3 0 -6
-6 -6 -7 0 -12 -4 -12 -10 0 -5 8 -10 18 -10 13 0 10 -6 -13 -25 -21 -17 -25
-24 -14 -25 9 0 24 9 34 20 10 11 23 20 30 20 6 0 17 11 23 24 9 20 18 24 54
24 80 0 182 14 202 28 23 16 1 20 -24 5 -8 -6 -18 -7 -23 -4 -11 6 23 32 44
33 22 0 99 39 99 50 0 5 -24 -2 -52 -15 -71 -31 -102 -40 -94 -26 4 6 12 11
17 11 21 0 189 145 189 162 0 16 -16 7 -50 -30z m-90 -77 c-7 -9 -15 -13 -19
-10 -3 3 1 10 9 15 21 14 24 12 10 -5z m-92 -27 c-3 -7 -15 -14 -29 -16 -24
-4 -24 -3 -4 12 24 19 38 20 33 4z m9 -55 c-4 -3 -10 -3 -14 0 -3 4 0 7 7 7 7
0 10 -3 7 -7z m-22 -12 c6 -11 -62 -27 -72 -17 -4 3 3 6 15 6 11 0 24 5 27 10
8 13 22 13 30 1z"/>
<path d="M933 1823 c4 -3 10 -3 14 0 3 4 0 7 -7 7 -7 0 -10 -3 -7 -7z"/>
<path d="M2825 1795 c1 -20 5 -39 9 -42 3 -3 6 -15 6 -26 0 -16 3 -17 14 -8
17 15 17 51 -1 69 -7 7 -13 20 -13 28 0 8 -4 14 -8 14 -5 0 -8 -16 -7 -35z"/>
<path d="M3445 1741 c-28 -26 -70 -61 -95 -78 -50 -34 -103 -84 -96 -90 6 -7
118 81 190 149 33 31 58 59 55 62 -2 3 -27 -16 -54 -43z"/>
<path d="M3291 1674 c-50 -53 -91 -103 -91 -112 0 -8 1 -13 3 -11 2 2 42 47
88 99 84 93 105 120 96 120 -3 0 -46 -43 -96 -96z"/>
<path d="M2860 1710 c0 -5 5 -10 10 -10 6 0 10 5 10 10 0 6 -4 10 -10 10 -5 0
-10 -4 -10 -10z"/>
<path d="M2673 1658 c1 -29 4 -33 29 -33 36 0 36 10 -1 40 l-29 25 1 -32z"/>
<path d="M2761 1653 c-13 -15 -13 -16 8 -10 16 4 21 2 18 -7 -3 -7 4 -23 14
-37 15 -19 19 -20 19 -7 0 9 -5 20 -11 23 -6 4 -8 13 -5 20 4 12 -11 35 -23
35 -4 -1 -13 -8 -20 -17z"/>
<path d="M2560 1650 c0 -5 15 -10 33 -10 18 0 38 -5 45 -12 7 -7 12 -8 12 -4
0 16 -35 35 -62 36 -16 0 -28 -4 -28 -10z"/>
<path d="M2472 1623 c-9 -7 -15 -13 -12 -13 3 0 31 -2 62 -4 45 -2 56 0 48 10
-15 17 -78 22 -98 7z"/>
<path d="M800 1590 c0 -5 5 -10 10 -10 6 0 10 5 10 10 0 6 -4 10 -10 10 -5 0
-10 -4 -10 -10z"/>
<path d="M2750 1594 c0 -5 9 -20 20 -34 11 -14 20 -30 20 -36 0 -6 7 -17 15
-24 12 -10 15 -10 15 3 0 8 -7 20 -15 27 -8 7 -15 18 -15 25 0 6 -9 20 -20 30
-11 10 -20 14 -20 9z"/>
<path d="M3018 1548 c-9 -18 -21 -46 -28 -62 -8 -22 -14 -26 -19 -17 -11 17
-23 -2 -15 -23 8 -22 25 -20 31 4 3 11 9 20 13 20 7 0 16 20 47 98 11 27 -15
10 -29 -20z"/>
<path d="M795 1561 c-3 -6 -3 -11 2 -11 4 0 1 -5 -7 -10 -10 -7 -11 -10 -2
-10 7 0 15 7 19 15 7 19 -2 31 -12 16z"/>
<path d="M3485 1560 c-44 -6 -65 -16 -65 -31 0 -6 8 -5 21 1 11 7 66 13 121
15 55 1 103 6 108 11 10 10 -120 12 -185 4z"/>
<path d="M897 1554 c-7 -7 60 -44 78 -44 13 1 -47 50 -61 50 -6 0 -13 -3 -17
-6z"/>
<path d="M600 1490 c0 -5 7 -10 15 -10 8 0 15 5 15 10 0 6 -7 10 -15 10 -8 0
-15 -4 -15 -10z"/>
<path d="M940 1472 c0 -5 7 -13 16 -16 10 -4 14 -1 12 6 -5 15 -28 23 -28 10z"/>
<path d="M550 1450 c0 -5 4 -10 9 -10 6 0 13 5 16 10 3 6 -1 10 -9 10 -9 0
-16 -4 -16 -10z"/>
<path d="M3503 1423 c-51 -17 -57 -35 -10 -26 30 5 66 28 56 36 -2 3 -23 -2
-46 -10z"/>
<path d="M545 1420 c-3 -4 13 -15 35 -24 46 -18 60 -20 60 -7 0 12 -89 41 -95
31z"/>
<path d="M634 1419 c-7 -13 11 -19 78 -25 37 -4 60 -3 55 2 -12 13 -127 32
-133 23z"/>
<path d="M1003 1413 c4 -3 10 -3 14 0 3 4 0 7 -7 7 -7 0 -10 -3 -7 -7z"/>
<path d="M3390 1336 c-63 -24 -120 -57 -120 -68 0 -12 8 -10 34 7 39 26 148
65 160 58 6 -4 5 1 -3 10 -7 9 -14 16 -15 16 0 -1 -26 -11 -56 -23z"/>
<path d="M3500 1350 c0 -7 3 -10 7 -7 3 4 3 10 0 14 -4 3 -7 0 -7 -7z"/>
<path d="M3565 1340 c3 -5 8 -10 11 -10 3 0 2 5 -1 10 -3 6 -8 10 -11 10 -3 0
-2 -4 1 -10z"/>
<path d="M3270 1315 c-24 -13 -24 -14 -4 -15 12 0 27 7 34 15 16 19 3 19 -30
0z"/>
<path d="M3505 1323 c-72 -9 -264 -81 -219 -82 12 -1 42 8 67 19 26 12 84 26
129 32 46 7 85 13 88 15 5 4 -22 23 -30 21 -3 0 -18 -3 -35 -5z"/>
<path d="M2990 1299 c0 -5 5 -7 10 -4 6 3 10 8 10 11 0 2 -4 4 -10 4 -5 0 -10
-5 -10 -11z"/>
<path d="M3524 1275 c-4 -9 -27 -17 -65 -21 -32 -4 -59 -11 -59 -15 0 -12 41
-11 117 1 51 8 70 7 99 -5 21 -8 39 -13 42 -11 10 11 -12 25 -58 36 -27 7 -50
16 -50 21 0 15 -20 10 -26 -6z"/>
<path d="M2720 1270 c-12 -7 -8 -10 15 -10 17 0 42 -7 58 -14 22 -12 27 -12
27 -1 0 7 -14 18 -31 24 -39 13 -50 14 -69 1z"/>
<path d="M1670 1266 c0 -2 8 -10 18 -17 15 -13 16 -12 3 4 -13 16 -21 21 -21
13z"/>
<path d="M3695 1250 c3 -5 11 -10 16 -10 6 0 7 5 4 10 -3 6 -11 10 -16 10 -6
0 -7 -4 -4 -10z"/>
<path d="M3720 1226 c0 -2 7 -6 15 -10 8 -3 15 -1 15 4 0 6 -7 10 -15 10 -8 0
-15 -2 -15 -4z"/>
<path d="M2775 1200 c-10 -11 -13 -20 -7 -20 6 0 16 9 22 20 6 11 9 20 7 20
-2 0 -12 -9 -22 -20z"/>
<path d="M3340 1170 c0 -12 70 -74 76 -67 4 4 0 15 -8 24 -31 37 -31 46 1 24
18 -13 38 -32 44 -42 14 -22 27 -25 27 -5 0 8 -16 28 -35 45 -26 22 -44 30
-70 29 -19 -1 -35 -4 -35 -8z"/>
<path d="M2822 1155 c-13 -7 -20 -15 -15 -18 12 -7 53 10 53 23 0 13 -9 12
-38 -5z"/>
<path d="M2700 1099 c-23 -28 -63 -63 -87 -78 -44 -28 -46 -54 -2 -30 13 6 19
7 15 1 -7 -12 8 -17 72 -27 42 -7 59 -25 22 -25 -11 0 -20 -4 -20 -10 0 -5 14
-10 30 -10 20 0 30 5 30 15 0 11 5 12 25 5 39 -15 125 -22 125 -11 0 6 -17 13
-37 16 -63 10 -173 47 -168 56 3 4 -12 5 -32 2 l-38 -6 43 41 c23 23 42 44 42
47 0 3 9 15 20 27 11 12 20 25 20 30 0 19 -20 5 -60 -43z"/>
<path d="M2855 1130 c-3 -5 -1 -10 4 -10 6 0 11 5 11 10 0 6 -2 10 -4 10 -3 0
-8 -4 -11 -10z"/>
<path d="M3500 1120 c0 -5 6 -13 13 -17 23 -14 57 -81 44 -86 -7 -2 0 -6 15
-9 l27 -5 -31 56 c-30 54 -44 71 -60 71 -5 0 -8 -4 -8 -10z"/>
<path d="M3793 1116 c4 -6 7 -21 7 -35 0 -37 11 -71 22 -71 5 0 5 8 -1 18 -6
10 -8 28 -5 38 3 12 -2 29 -13 40 -10 11 -15 15 -10 10z"/>
<path d="M2878 1090 c-55 -35 -63 -47 -15 -25 17 8 44 21 60 27 28 13 36 28
15 28 -7 0 -34 -14 -60 -30z"/>
<path d="M3140 1110 c0 -5 7 -10 16 -10 8 0 12 5 9 10 -3 6 -10 10 -16 10 -5
0 -9 -4 -9 -10z"/>
<path d="M3340 1095 c7 -9 15 -13 17 -11 7 7 -7 26 -19 26 -6 0 -6 -6 2 -15z"/>
<path d="M3185 1090 c3 -5 11 -10 16 -10 6 0 7 5 4 10 -3 6 -11 10 -16 10 -6
0 -7 -4 -4 -10z"/>
<path d="M3356 1064 c-11 -8 -16 -14 -10 -14 13 0 39 18 34 24 -3 2 -14 -2
-24 -10z"/>
<path d="M2627 1063 c-4 -3 -7 -11 -7 -17 0 -6 5 -5 12 2 6 6 9 14 7 17 -3 3
-9 2 -12 -2z"/>
<path d="M2804 1039 c-3 -6 -20 -19 -38 -30 -17 -10 -24 -19 -15 -19 8 0 28
14 44 30 16 17 26 30 22 30 -3 0 -9 -5 -13 -11z"/>
<path d="M2895 1024 c-22 -13 -53 -30 -69 -38 -19 -9 -25 -16 -16 -21 7 -4 29
5 53 23 23 16 52 32 65 36 12 4 22 12 22 17 0 13 -10 10 -55 -17z"/>
<path d="M3360 1011 c0 -11 31 -24 39 -16 3 3 -1 10 -9 15 -19 12 -30 12 -30
1z"/>
<path d="M2460 990 c0 -5 7 -10 16 -10 8 0 12 5 9 10 -3 6 -10 10 -16 10 -5 0
-9 -4 -9 -10z"/>
<path d="M2890 977 c-20 -8 -22 -11 -8 -14 20 -5 55 12 42 19 -5 3 -20 1 -34
-5z"/>
<path d="M3016 971 c-3 -5 1 -11 9 -15 9 -3 15 0 15 9 0 16 -16 20 -24 6z"/>
<path d="M2608 963 c7 -3 16 -2 19 1 4 3 -2 6 -13 5 -11 0 -14 -3 -6 -6z"/>
<path d="M3196 816 c-4 -23 -15 -56 -26 -74 -24 -39 -25 -43 -5 -35 20 7 55
75 55 106 0 12 4 27 10 33 6 6 3 10 -9 11 -15 1 -20 -7 -25 -41z"/>
<path d="M2325 839 c-4 -6 -5 -12 -2 -15 7 -7 37 7 37 17 0 13 -27 11 -35 -2z"/>
<path d="M3130 756 c0 -7 -10 -25 -21 -40 -12 -15 -18 -30 -14 -34 4 -4 18 7
31 23 24 31 32 65 14 65 -5 0 -10 -6 -10 -14z"/>
<path d="M3000 703 c0 -10 4 -24 9 -31 6 -11 9 -10 13 5 3 10 3 24 1 31 -7 18
-23 15 -23 -5z"/>
<path d="M3036 684 c-7 -19 2 -37 15 -29 12 8 12 45 0 45 -5 0 -12 -7 -15 -16z"/>
<path d="M2143 673 c4 -3 10 -3 14 0 3 4 0 7 -7 7 -7 0 -10 -3 -7 -7z"/>
<path d="M1890 488 c1 -18 48 -74 55 -66 7 7 -36 78 -47 78 -5 0 -8 -6 -8 -12z"/>
<path d="M2053 233 c4 -3 10 -3 14 0 3 4 0 7 -7 7 -7 0 -10 -3 -7 -7z"/>
<path d="M2073 218 c-6 -7 -11 -20 -11 -28 0 -8 -3 -32 -5 -53 -5 -40 11 -62
20 -27 5 17 8 19 15 8 7 -9 8 -7 2 7 -10 26 -10 55 0 83 8 24 -5 30 -21 10z"/>
<path d="M2100 170 c0 -5 5 -10 10 -10 6 0 10 5 10 10 0 6 -4 10 -10 10 -5 0
-10 -4 -10 -10z"/>
<path d="M2111 113 c-1 -6 -9 -13 -18 -15 -11 -2 -14 -6 -8 -10 16 -10 38 7
32 23 -3 9 -6 9 -6 2z"/>
<path d="M2064 55 c-9 -22 1 -29 15 -11 8 10 9 16 1 21 -5 3 -13 -1 -16 -10z"/>
</g>
</svg>
