<?xml version="1.0" standalone="no"?>
<!DOCTYPE svg PUBLIC "-//W3C//DTD SVG 20010904//EN"
 "http://www.w3.org/TR/2001/REC-SVG-20010904/DTD/svg10.dtd">
<svg version="1.0" xmlns="http://www.w3.org/2000/svg"
 width="468.000000pt" height="1350.000000pt" viewBox="0 0 468.000000 1350.000000"
 preserveAspectRatio="xMidYMid meet">
<metadata>
Created by potrace 1.10, written by Peter Selinger 2001-2011
</metadata>
<g transform="translate(0.000000,1350.000000) scale(0.100000,-0.100000)"
fill="rgb(186, 166, 96)" stroke="none">
<path d="M2279 12981 c-11 -15 -38 -38 -60 -50 -35 -20 -39 -26 -39 -61 0 -21
-5 -42 -10 -45 -6 -4 -8 -15 -5 -25 7 -23 -19 -34 -44 -18 -14 9 -26 8 -51 -2
-26 -11 -30 -17 -25 -37 8 -32 -8 -57 -74 -122 -81 -80 -111 -120 -111 -150 1
-24 2 -25 14 -8 40 52 82 97 93 97 7 0 9 -13 6 -40 -5 -35 -3 -40 14 -40 12 0
26 7 33 16 18 20 64 14 68 -9 6 -31 -17 -47 -67 -47 -35 -1 -57 -8 -92 -33
-54 -37 -110 -101 -129 -146 -11 -27 -10 -34 4 -50 9 -9 16 -25 16 -34 0 -20
-57 -64 -90 -69 -22 -3 -25 -9 -28 -45 -2 -26 3 -51 13 -67 13 -20 14 -28 4
-44 -7 -11 -9 -27 -5 -37 8 -23 46 -14 82 20 15 14 39 25 53 25 14 0 43 3 64
6 30 5 37 3 37 -10 0 -9 -7 -19 -15 -22 -22 -9 -18 -43 6 -62 l20 -17 -25 -47
c-40 -76 -132 -145 -144 -109 -2 6 -20 18 -40 26 -39 17 -53 11 -58 -27 -2
-13 -6 -33 -10 -45 -4 -14 -2 -23 5 -23 6 0 11 -7 11 -15 0 -19 -42 -20 -79 0
-32 16 -41 12 -41 -19 0 -12 9 -25 23 -31 12 -6 23 -20 25 -33 5 -31 -55 -56
-115 -49 -38 4 -46 1 -64 -21 -11 -14 -16 -29 -12 -33 4 -4 37 -10 71 -13 35
-3 75 -12 88 -21 17 -11 35 -14 59 -9 21 4 48 1 65 -6 26 -11 40 -9 98 9 57
19 75 20 112 12 74 -17 99 -14 128 18 25 28 29 29 52 16 36 -20 55 -18 88 10
17 14 35 25 41 25 18 0 54 -91 41 -104 -5 -5 -10 -24 -10 -41 0 -17 -7 -40
-15 -51 -21 -28 -19 -61 5 -67 12 -3 20 -14 20 -25 0 -11 3 -27 6 -35 6 -18
-51 -87 -73 -87 -8 0 -27 6 -41 14 -15 8 -39 17 -54 21 -34 7 -36 18 -5 32 16
8 29 8 41 1 14 -8 28 -6 52 6 27 12 34 22 34 45 0 16 -6 31 -15 35 -9 3 -15
18 -15 39 0 55 -72 105 -86 60 -20 -62 -72 -103 -129 -103 -34 0 -86 -22 -105
-45 -13 -15 -12 -19 9 -36 13 -11 36 -19 52 -19 34 0 38 -16 7 -25 -28 -10
-194 4 -225 18 -17 8 -27 7 -35 -1 -20 -20 -40 -14 -68 20 -24 28 -30 31 -44
19 -22 -18 -21 -22 16 -81 19 -30 28 -54 22 -59 -17 -17 -83 -29 -122 -24 -32
4 -44 1 -61 -16 -27 -27 -27 -32 9 -66 27 -26 40 -30 100 -33 73 -4 91 -20 51
-42 -24 -12 -35 -43 -26 -70 8 -25 60 -28 69 -4 5 13 9 13 32 -5 33 -26 45
-26 76 -1 14 11 29 15 34 10 15 -14 49 -16 75 -4 24 11 78 31 111 41 12 4 21
-3 28 -21 13 -36 27 -33 67 14 19 22 42 40 51 40 16 -1 62 -61 62 -81 0 -10
-14 -30 -35 -50 -27 -25 -114 -89 -122 -89 -6 0 -15 -11 -21 -25 -10 -21 -18
-25 -59 -25 -33 -1 -56 -7 -72 -21 -22 -18 -23 -22 -11 -45 19 -35 5 -44 -82
-52 -54 -6 -82 -14 -102 -30 -17 -13 -43 -22 -65 -22 -20 -1 -52 -7 -71 -14
-23 -8 -46 -9 -65 -4 -41 11 -89 2 -110 -22 -13 -14 -31 -20 -64 -20 -25 0
-53 -5 -61 -10 -13 -9 -12 -12 5 -26 31 -23 63 -28 105 -15 46 14 97 14 105 1
3 -5 -2 -10 -13 -10 -25 0 -72 -37 -72 -57 0 -17 6 -16 102 13 46 14 63 15 83
6 l25 -11 -21 -36 c-31 -51 -4 -56 63 -12 29 20 76 46 103 58 28 13 53 25 58
27 16 8 5 -21 -18 -46 -24 -26 -33 -52 -17 -52 4 1 25 9 47 20 22 11 49 19 60
20 28 0 49 -15 40 -30 -12 -20 32 -2 62 26 14 13 38 24 53 24 15 0 46 15 73
36 46 36 46 36 71 17 49 -35 28 -98 -66 -193 -25 -25 -50 -39 -87 -48 -65 -15
-114 -15 -128 -1 -8 8 -19 6 -42 -5 -17 -9 -34 -16 -38 -15 -21 4 -32 -3 -38
-22 -9 -27 -62 -49 -119 -49 -25 0 -57 -5 -73 -11 -15 -6 -50 -15 -77 -20 -51
-9 -96 -32 -96 -48 0 -5 16 -18 35 -30 42 -25 45 -41 7 -41 -16 0 -37 -6 -48
-14 -21 -16 -22 -15 34 -32 23 -7 8 -37 -28 -58 -25 -15 -55 -21 -105 -23
-173 -4 -271 -29 -251 -62 9 -14 63 -14 72 0 5 8 10 6 16 -5 5 -9 27 -25 48
-36 21 -11 43 -26 47 -33 13 -22 50 -38 70 -30 10 4 4 -6 -15 -25 -18 -18 -43
-32 -56 -32 -13 0 -34 -9 -47 -19 -22 -18 -23 -20 -6 -27 28 -11 93 2 126 25
36 26 51 27 51 1 0 -25 -100 -74 -137 -67 -15 3 -32 -1 -39 -7 -14 -14 -168
-16 -196 -3 -15 8 -16 2 -14 -45 4 -55 13 -62 46 -33 26 23 74 5 78 -29 5 -42
-13 -56 -72 -56 -29 0 -57 -5 -64 -12 -9 -9 -21 -8 -51 2 -60 19 -74 10 -65
-46 6 -41 4 -46 -15 -51 -11 -3 -21 -12 -21 -19 0 -21 54 -17 100 6 49 25 60
25 60 0 0 -12 -12 -26 -31 -35 -25 -14 -30 -21 -27 -48 3 -30 6 -32 44 -35 27
-2 45 2 54 13 7 8 20 15 30 15 26 0 68 37 90 81 11 21 27 39 35 39 15 0 47
-41 44 -56 -6 -36 38 -47 75 -19 30 23 46 18 46 -13 0 -58 39 -68 81 -21 30
34 49 31 49 -6 0 -21 2 -22 29 -12 15 5 36 7 45 4 15 -6 15 -9 1 -37 -17 -33
-13 -50 11 -50 8 0 19 -11 24 -24 5 -13 19 -27 32 -31 30 -9 58 -34 58 -51 0
-8 -12 -17 -27 -20 -16 -4 -45 -18 -65 -31 -24 -15 -53 -23 -81 -23 -49 0 -87
-22 -87 -51 0 -14 7 -19 25 -19 22 0 24 -3 18 -32 -9 -52 -21 -67 -58 -74 -53
-10 -62 -28 -31 -65 14 -17 26 -34 26 -39 0 -18 -57 -48 -105 -55 -27 -4 -54
-10 -60 -15 -5 -4 -25 -10 -42 -13 -25 -5 -37 -2 -51 14 -20 21 -47 18 -56 -8
-9 -22 1 -31 28 -26 16 3 28 -2 39 -17 30 -43 -4 -68 -108 -78 -40 -4 -70 -12
-73 -19 -2 -8 5 -13 17 -13 12 0 24 -7 27 -15 4 -10 20 -15 50 -15 24 0 44 -3
44 -8 0 -4 -12 -20 -26 -35 -19 -21 -24 -35 -20 -53 9 -35 39 -31 86 12 44 40
51 36 54 -29 1 -28 5 -32 31 -32 27 0 34 7 63 65 18 36 46 78 62 94 27 27 31
29 54 16 36 -19 41 -45 17 -76 -33 -42 -18 -49 61 -27 10 2 32 24 50 49 33 46
53 52 71 23 9 -14 -1 -29 -51 -79 l-61 -63 42 7 c164 28 189 37 245 95 23 24
42 47 42 52 0 9 33 29 49 29 20 0 11 -28 -16 -50 -14 -11 -31 -30 -37 -42 -6
-12 -26 -27 -44 -32 -29 -8 -32 -13 -32 -46 0 -44 -10 -50 -80 -50 -40 0 -51
-4 -61 -21 -6 -12 -8 -30 -6 -41 5 -16 -5 -25 -54 -48 -33 -15 -88 -31 -122
-35 -46 -6 -71 -15 -99 -36 -44 -36 -98 -59 -135 -59 -35 0 -50 -10 -54 -35
-3 -13 -14 -21 -32 -23 -33 -4 -35 -23 -6 -63 15 -21 26 -28 39 -24 13 4 23
-1 31 -16 l11 -22 18 23 c12 17 22 21 39 15 28 -9 22 -29 -10 -33 -31 -4 -77
-68 -61 -84 8 -8 20 -6 45 6 19 9 42 16 51 16 9 0 30 10 46 22 26 18 33 20 56
9 15 -6 27 -10 28 -9 27 47 60 88 75 93 11 3 30 22 42 41 15 25 27 34 43 32
25 -4 35 -50 16 -73 -10 -12 -9 -16 5 -22 13 -4 26 4 48 31 26 33 33 36 64 30
23 -4 39 -2 51 9 9 8 45 29 80 46 35 17 75 40 88 50 34 27 57 17 49 -19 -4
-18 -1 -31 7 -36 13 -8 62 -7 111 2 47 9 36 -35 -25 -102 -75 -83 -95 -99
-166 -136 -45 -23 -80 -52 -125 -105 -52 -60 -67 -72 -94 -72 -22 -1 -36 -8
-44 -23 -10 -18 -8 -24 12 -39 l24 -18 -22 -23 -23 -22 -22 21 c-18 19 -19 24
-8 38 7 8 10 19 6 23 -13 12 -187 15 -199 3 -7 -7 -6 -12 6 -17 9 -3 17 -17
17 -30 0 -21 -5 -24 -39 -24 -25 0 -41 -5 -45 -15 -8 -22 -46 -18 -72 6 -20
19 -27 20 -71 11 -26 -6 -61 -8 -76 -5 -24 5 -28 3 -25 -13 2 -10 13 -21 26
-24 34 -8 28 -18 -25 -47 -36 -19 -52 -22 -64 -15 -18 11 -49 7 -86 -10 -18
-9 -32 -5 -83 26 -34 20 -66 36 -71 36 -5 0 -2 -14 6 -31 20 -38 16 -43 -20
-29 -34 13 -85 4 -85 -15 0 -15 45 -50 80 -63 14 -5 27 -23 34 -43 13 -40 50
-50 90 -23 27 17 39 16 129 -8 51 -14 54 -20 32 -58 -32 -56 -13 -75 61 -61
45 9 47 8 57 -20 13 -34 27 -36 52 -9 10 11 45 39 78 62 33 24 67 50 76 58 9
8 31 25 50 37 l35 21 43 -21 c54 -28 56 -53 6 -101 -46 -43 -65 -51 -94 -35
-23 12 -23 7 -8 -50 2 -9 -5 -17 -16 -19 -24 -5 -55 -31 -55 -46 0 -16 40 -39
79 -45 70 -12 23 -48 -74 -56 -68 -6 -75 -9 -75 -41 0 -26 0 -26 -89 -28 -60
-1 -74 -15 -42 -43 14 -11 34 -16 60 -14 21 1 42 -2 45 -7 3 -6 24 -13 47 -17
43 -8 48 -26 8 -35 -28 -7 -38 -38 -15 -45 9 -3 24 -8 34 -11 9 -4 63 -6 120
-6 76 1 102 -2 99 -11 -2 -7 -12 -13 -23 -15 -10 -2 -35 -9 -54 -16 -80 -31
-124 -36 -175 -20 -31 9 -66 12 -95 8 -35 -5 -49 -2 -59 10 -7 9 -22 16 -32
16 -17 0 -18 -5 -13 -40 l6 -39 -41 -7 c-57 -9 -52 -30 14 -49 34 -9 55 -21
55 -30 0 -21 -53 -45 -99 -45 -23 0 -46 -7 -56 -16 -15 -15 -15 -18 1 -35 20
-23 12 -34 -31 -43 -25 -5 -37 -1 -65 24 -18 16 -43 31 -54 31 -89 6 -110 4
-130 -13 -21 -18 -21 -18 -2 -33 16 -12 18 -19 9 -37 -6 -13 -14 -31 -17 -40
-3 -12 -16 -18 -35 -18 -36 0 -44 -11 -32 -43 13 -32 34 -39 68 -22 31 17 129
20 138 6 3 -5 -6 -21 -20 -35 -43 -43 -27 -60 32 -34 39 18 120 76 126 91 8
21 85 43 99 29 9 -9 8 -15 -7 -25 -27 -21 -2 -30 31 -12 16 8 39 15 52 15 12
0 31 6 43 13 18 10 23 9 40 -15 12 -16 29 -28 40 -28 10 0 19 -6 19 -14 0 -9
-20 -16 -62 -20 -69 -8 -168 -33 -183 -47 -5 -5 -17 -9 -26 -9 -10 0 -21 -5
-24 -10 -9 -15 13 -40 35 -40 10 0 23 -6 29 -13 8 -11 3 -20 -25 -43 -33 -27
-49 -42 -106 -102 -27 -28 -15 -42 15 -15 31 28 74 41 130 41 32 0 55 6 68 18
18 16 19 16 19 -4 0 -12 -4 -22 -9 -22 -6 0 -23 -11 -38 -25 -44 -39 -47 -41
-65 -37 -10 2 -45 -25 -88 -67 -39 -38 -80 -73 -90 -76 -11 -4 -20 -11 -20
-16 0 -13 27 -11 50 3 16 10 24 9 51 -11 35 -26 50 -22 120 31 50 38 85 37 93
-2 7 -37 30 -39 52 -4 17 25 48 45 91 58 15 5 28 0 43 -16 20 -21 22 -22 31
-5 6 10 21 17 37 17 23 -1 25 -2 11 -13 -9 -7 -26 -31 -38 -55 -22 -43 -38
-51 -59 -30 -17 17 -39 -6 -54 -54 -12 -42 -39 -60 -80 -55 -36 4 -32 -26 11
-78 43 -52 42 -75 -3 -75 -11 0 -55 -12 -96 -27 -114 -40 -123 -52 -63 -80 49
-23 53 -46 13 -70 -30 -18 -63 -66 -52 -77 3 -3 20 -6 39 -6 21 0 36 -6 39
-15 11 -27 41 -16 68 25 21 32 32 40 56 40 17 0 39 -5 49 -12 29 -18 53 -3 45
28 l-7 27 48 -6 c26 -4 56 -7 67 -7 17 0 18 -1 2 -25 -9 -14 -22 -25 -29 -25
-8 0 -20 -6 -27 -14 -8 -8 -23 -15 -33 -17 -28 -6 -41 -34 -25 -54 14 -17 71
-17 112 0 10 4 24 -1 37 -14 l20 -20 40 27 c42 28 96 96 102 127 3 12 18 22
39 28 19 5 41 13 47 19 7 6 20 7 29 4 28 -11 113 5 135 25 28 24 49 24 49 1 0
-31 -128 -164 -182 -189 -54 -26 -60 -43 -22 -68 36 -23 89 -12 121 26 24 28
63 40 63 18 0 -15 -41 -48 -60 -49 -8 0 -23 -14 -32 -30 -16 -28 -21 -30 -78
-30 -70 0 -100 -12 -100 -40 0 -14 7 -20 23 -20 39 0 87 -54 87 -97 0 -25 -14
-30 -27 -10 -15 23 -63 37 -131 37 -91 0 -110 7 -114 37 -2 21 -9 27 -38 30
-46 5 -66 -19 -44 -52 13 -20 13 -24 -1 -38 -25 -26 -18 -34 49 -56 49 -16 71
-18 97 -11 19 6 45 10 58 10 14 0 35 10 48 21 21 21 23 21 29 4 16 -41 -135
-131 -183 -110 -10 5 -21 8 -25 7 -4 -1 -50 -4 -104 -6 -74 -4 -104 -1 -126
10 -16 8 -41 14 -56 12 -21 -2 -27 -8 -27 -28 0 -19 9 -29 40 -44 22 -10 54
-20 72 -20 42 -2 55 -16 15 -16 -19 0 -40 -8 -52 -20 -21 -21 -94 -28 -105
-10 -3 5 -18 8 -34 7 -24 -2 -26 -5 -17 -19 5 -9 29 -24 52 -33 36 -14 53 -14
106 -5 82 15 118 29 118 46 0 8 10 14 25 14 15 0 25 6 25 14 0 20 40 32 51 15
5 -8 9 -20 9 -27 0 -19 41 -51 65 -52 11 0 30 -3 43 -6 27 -8 30 -43 6 -80
-16 -23 -21 -24 -78 -20 -33 3 -52 3 -41 0 11 -3 24 -9 28 -14 10 -9 -14 -60
-35 -78 -20 -16 -16 -87 6 -111 26 -28 36 -27 89 14 25 19 49 35 52 35 4 0 19
9 35 20 22 16 37 18 77 13 33 -3 53 -1 57 6 4 6 19 11 33 11 26 0 68 38 172
155 25 28 65 65 89 84 40 30 48 33 73 24 22 -9 34 -7 66 12 46 27 156 41 171
22 5 -6 11 -75 13 -152 4 -184 4 -786 0 -850 -3 -43 -5 -379 -3 -455 0 -14 1
-191 0 -395 0 -203 2 -401 3 -440 4 -85 3 -119 -4 -260 -3 -60 -8 -180 -12
-265 -4 -85 -11 -173 -16 -195 -5 -22 -9 -67 -9 -100 0 -33 -7 -85 -15 -115
-15 -52 -27 -125 -42 -250 -3 -30 -14 -71 -25 -90 -10 -19 -18 -42 -18 -51 0
-28 -62 -127 -83 -133 -44 -11 -1 -26 76 -26 115 0 155 8 159 32 4 24 24 23
21 -2 -3 -24 11 -28 77 -21 45 5 54 9 52 24 -4 24 30 22 53 -3 16 -18 19 -18
49 -3 41 21 39 17 45 66 7 52 31 56 47 8 16 -48 52 -73 92 -62 20 6 44 5 67
-2 29 -8 42 -7 71 6 40 20 95 22 111 6 15 -15 43 -4 43 16 0 9 -6 18 -14 21
-8 3 -26 29 -39 57 -46 97 -76 166 -83 192 -3 14 -10 28 -15 31 -5 3 -9 21 -9
40 0 19 -6 47 -14 62 -13 25 -32 187 -41 352 -8 142 -17 361 -20 480 -2 69 -8
166 -14 215 -5 50 -10 129 -9 176 0 48 -4 95 -10 105 -5 11 -12 111 -16 224
-4 113 -11 219 -16 235 -10 37 -22 330 -24 645 -1 130 -5 240 -8 246 -4 5 -9
99 -13 209 -4 110 -11 216 -16 235 -5 19 -9 58 -9 86 0 28 -4 75 -10 104 -5
29 -8 56 -5 60 10 16 42 -2 59 -33 10 -18 45 -57 77 -88 63 -59 73 -86 37 -91
-51 -7 -17 -80 43 -93 22 -5 29 -12 29 -30 0 -13 -5 -27 -11 -30 -13 -8 28
-55 48 -55 7 0 31 -7 53 -16 41 -17 52 -37 25 -48 -25 -9 -17 -34 21 -72 35
-33 37 -34 56 -17 17 15 25 15 77 5 82 -17 109 -15 121 8 14 26 33 25 78 -5
20 -14 45 -25 55 -25 10 0 30 -9 44 -20 23 -18 27 -18 54 -5 32 17 75 20 84 5
3 -5 13 -10 21 -10 13 0 12 4 -1 30 -9 17 -22 30 -30 30 -8 0 -15 4 -15 8 0
17 37 42 61 42 32 0 57 16 44 28 -19 17 -75 34 -90 28 -8 -3 -15 -14 -15 -25
0 -14 -8 -22 -25 -26 -14 -3 -37 -7 -51 -10 -27 -6 -58 11 -48 26 3 5 15 9 27
9 12 0 42 14 66 30 24 17 47 30 51 30 7 0 53 60 48 64 -7 5 -166 -12 -203 -22
-22 -6 -41 -9 -44 -7 -2 3 8 20 23 40 18 23 35 35 51 35 36 0 41 19 13 47
l-25 25 -42 -28 c-27 -17 -60 -29 -94 -32 -28 -2 -57 -9 -63 -13 -19 -15 -61
7 -66 35 -3 14 -3 28 0 31 11 11 40 4 46 -10 7 -18 50 -21 44 -2 -3 6 -14 13
-26 15 -12 2 -22 7 -22 11 0 12 43 48 68 56 12 3 20 11 17 16 -10 15 -57 10
-127 -12 l-66 -20 -42 21 c-50 26 -75 20 -66 -14 9 -37 -28 -41 -83 -8 -58 34
-168 149 -191 199 -9 21 -27 47 -40 58 -12 11 -32 43 -44 70 -20 45 -22 63
-19 170 2 66 6 135 9 154 5 33 6 33 46 28 43 -6 118 24 118 47 0 6 19 18 42
26 23 8 43 20 45 26 4 13 -39 34 -70 34 -12 1 -33 7 -47 15 -14 8 -36 14 -49
15 -32 0 -99 73 -105 114 -17 107 -17 126 -3 126 13 0 85 -71 117 -115 23 -32
88 -77 102 -72 7 2 33 -6 58 -19 25 -13 51 -24 57 -24 18 0 16 19 -1 26 -8 3
-27 23 -42 45 -25 37 -26 41 -11 56 15 15 17 15 26 -9 5 -14 26 -32 48 -42
108 -50 125 -60 133 -80 9 -24 42 -61 62 -70 10 -5 10 -7 1 -12 -30 -14 -11
-26 30 -20 24 4 56 2 70 -3 30 -11 32 -9 17 17 -5 9 -16 34 -24 55 -9 21 -22
37 -31 37 -17 0 -35 37 -28 56 3 8 19 10 44 7 25 -4 39 -2 39 6 0 17 20 13 27
-6 17 -50 76 -82 89 -48 6 15 34 21 34 7 0 -10 83 -102 93 -102 4 0 17 -9 29
-20 12 -11 34 -20 48 -20 19 0 30 -7 38 -25 10 -22 14 -24 32 -13 25 16 26 28
0 28 -10 0 -35 14 -54 31 -29 25 -35 37 -34 67 0 20 -3 47 -7 60 -11 34 23 29
36 -5 12 -32 47 -73 63 -73 5 0 20 -9 32 -21 24 -23 84 -31 91 -13 2 6 -12 21
-32 32 -53 32 -46 83 9 62 34 -13 59 -2 53 21 -7 26 5 24 60 -11 62 -40 93
-40 93 -1 0 43 -59 101 -104 101 -18 0 -39 7 -46 15 -7 8 -23 15 -36 15 -33 0
-54 26 -54 66 0 22 -6 37 -15 40 -23 9 -18 32 8 36 16 2 23 11 25 31 4 33 -21
46 -46 25 -9 -9 -31 -18 -49 -21 -18 -4 -49 -14 -70 -22 -37 -16 -38 -17 -18
-33 15 -13 20 -30 20 -65 1 -43 -2 -48 -25 -54 -14 -3 -30 -10 -37 -15 -16
-13 -65 20 -61 41 1 9 -15 32 -35 52 -41 41 -45 59 -21 84 22 21 39 14 39 -16
0 -19 6 -25 29 -27 35 -4 48 8 61 55 7 27 20 41 48 56 46 24 47 34 1 43 -33 6
-74 0 -229 -35 -30 -7 -44 -6 -56 5 -27 24 -42 18 -33 -13 4 -16 8 -44 8 -63
l1 -35 -55 0 -55 0 -3 53 c-2 28 0 52 3 52 3 0 17 -7 31 -16 31 -21 39 -13 26
26 -12 33 -11 35 40 43 17 2 29 -1 32 -9 9 -24 22 -15 54 36 27 43 36 50 62
50 21 0 30 4 27 13 -2 6 -15 11 -30 9 -15 -2 -34 1 -43 6 -9 5 -35 5 -61 1
-40 -8 -47 -6 -63 14 -18 22 -19 22 -68 5 -55 -20 -84 -22 -110 -10 -9 5 -30
15 -46 23 -42 20 -43 37 -4 47 18 4 33 15 33 23 0 10 -27 18 -103 29 -97 14
-104 17 -129 48 -23 31 -24 34 -9 51 20 22 12 31 -29 31 -35 0 -86 22 -105 45
-17 20 -70 20 -70 0 0 -8 9 -24 20 -35 22 -22 26 -45 10 -55 -5 -3 -15 5 -22
19 -6 14 -15 26 -20 26 -6 0 -7 17 -3 38 4 25 1 43 -9 57 -14 19 -15 19 -26
-12 -13 -37 -12 -36 -60 -19 l-34 13 32 6 c28 6 32 11 32 37 0 27 -3 30 -30
30 -25 0 -30 -4 -36 -35 -3 -19 -10 -38 -15 -41 -5 -3 -9 -16 -9 -30 0 -43
-18 -25 -22 22 -3 37 1 49 19 66 28 26 29 38 3 66 -16 17 -32 22 -71 22 -57 0
-58 16 -1 26 54 10 69 20 75 53 7 32 41 49 72 37 22 -8 19 -17 -16 -55 -42
-46 -37 -75 14 -79 33 -3 41 -8 53 -38 8 -19 20 -34 28 -34 7 0 19 -6 25 -14
8 -9 44 -16 104 -21 51 -3 101 -10 112 -15 11 -5 41 -11 67 -15 35 -5 63 -18
109 -53 72 -55 148 -101 167 -102 8 0 16 9 19 20 6 21 50 50 78 50 16 0 19 8
7 27 -6 9 -30 10 -102 1 l-95 -10 -57 55 c-31 31 -70 59 -85 62 -15 3 -41 10
-58 16 -16 6 -49 15 -72 20 -64 13 -116 41 -131 72 -11 23 -19 27 -54 27 -32
0 -39 3 -34 15 6 17 -13 65 -26 65 -4 0 -8 5 -8 10 0 13 47 13 55 0 3 -5 19
-10 36 -10 27 0 29 3 29 35 0 40 22 56 49 36 9 -6 24 -14 34 -18 14 -4 16 -12
11 -38 -5 -27 -2 -36 17 -49 13 -9 30 -16 38 -16 8 0 22 -7 32 -16 16 -14 20
-14 42 1 l25 16 -31 46 c-17 25 -43 51 -59 57 -23 8 -28 16 -26 36 2 14 10 26
20 28 19 4 40 -15 112 -105 49 -60 97 -89 178 -107 15 -3 30 -15 33 -26 4 -13
15 -20 31 -20 16 0 31 -11 45 -33 12 -18 33 -38 46 -44 20 -10 23 -9 23 8 0
10 2 19 5 19 19 0 75 -31 86 -48 8 -11 41 -27 76 -37 65 -18 109 -16 61 4 -16
6 -28 17 -28 26 0 8 -6 15 -13 15 -6 0 -17 16 -23 35 l-11 35 35 0 c33 0 34
-1 19 -18 -20 -22 -13 -32 24 -32 15 0 43 -9 61 -20 44 -25 69 -14 49 24 -21
39 -2 55 65 53 30 -1 54 -3 54 -6 0 -2 -12 -19 -26 -38 -18 -24 -21 -34 -12
-37 7 -2 29 -9 48 -16 33 -10 37 -9 57 16 28 36 38 75 21 85 -7 5 -18 7 -25 5
-6 -3 -41 6 -77 19 -35 13 -73 21 -84 18 -16 -4 -20 2 -25 29 -2 18 -3 36 0
41 7 12 53 8 77 -9 15 -9 27 -11 30 -5 9 15 -57 119 -79 125 -11 3 2 3 28 2
28 -2 56 -11 68 -22 20 -18 22 -18 62 3 23 12 55 24 71 28 41 9 76 34 76 56 0
35 -17 35 -132 -1 -20 -6 -31 -4 -40 7 -18 22 -115 9 -145 -19 l-22 -20 -27
21 c-15 11 -33 21 -40 21 -8 0 -14 11 -14 25 0 17 9 29 31 40 40 21 85 17 81
-8 -3 -18 20 -33 37 -23 7 5 7 14 0 30 -14 29 20 101 51 111 37 12 15 30 -41
33 -69 4 -77 13 -54 56 24 45 86 73 123 56 21 -9 27 -9 31 1 2 6 17 26 33 42
32 34 22 52 -19 36 -31 -11 -114 -11 -132 0 -10 7 0 16 40 36 149 74 149 75
-29 72 -140 -2 -152 -1 -152 15 0 12 8 18 25 18 13 0 28 6 32 14 4 8 30 23 58
34 56 22 76 49 29 39 -16 -4 -38 -9 -50 -12 -15 -5 -23 0 -31 17 -9 21 -17 24
-54 22 -68 -2 -70 -3 -67 -21 2 -10 -4 -19 -14 -21 -12 -2 -18 3 -18 16 0 13
-10 24 -30 31 -27 9 -42 31 -22 31 4 0 13 10 20 21 19 30 1 47 -30 27 -13 -8
-41 -21 -63 -28 -22 -7 -54 -21 -71 -31 -17 -11 -48 -19 -68 -19 -36 0 -48 13
-22 23 10 4 13 21 12 61 -2 31 -6 59 -9 62 -3 3 -16 -1 -29 -10 -12 -9 -37
-16 -56 -16 -18 0 -43 -7 -57 -16 -13 -8 -38 -14 -57 -12 -32 3 -33 4 -30 46
3 49 -12 55 -57 21 -23 -17 -38 -20 -68 -16 -62 10 -257 12 -271 4 -21 -14
-32 3 -32 47 0 30 6 48 20 61 20 18 132 38 203 36 35 -1 85 17 117 44 45 37
146 33 188 -8 38 -36 52 -54 52 -65 0 -20 20 -23 42 -8 28 20 62 20 78 1 7 -8
22 -15 34 -15 12 0 53 -16 92 -35 80 -40 125 -45 145 -14 14 20 15 20 107 -31
86 -47 94 -50 120 -38 36 18 40 50 7 68 -51 27 -15 75 47 63 22 -4 26 -1 26
19 0 12 3 33 7 46 7 20 4 22 -31 22 -50 0 -84 10 -84 23 0 6 15 23 32 38 l33
27 -25 21 c-28 22 -46 26 -55 11 -3 -5 -21 -10 -40 -10 -35 0 -65 -21 -65 -46
0 -10 -5 -9 -20 6 -34 34 -26 57 23 65 23 4 53 13 67 21 14 7 43 18 66 24 22
5 49 19 58 29 17 19 17 20 -8 36 -29 19 -47 17 -148 -21 -77 -29 -121 -29
-127 1 -2 11 -11 25 -19 31 -13 10 -19 8 -30 -7 -7 -10 -19 -19 -25 -19 -7 0
-18 -9 -25 -21 -11 -17 -22 -20 -65 -19 -73 2 -77 2 -77 -13 0 -22 -62 -17
-87 6 -13 11 -23 26 -23 33 0 7 -9 18 -20 24 -27 15 -80 -15 -73 -40 7 -26
-13 -33 -44 -16 -16 8 -36 17 -46 20 -11 4 -17 13 -15 23 3 14 18 20 73 26 39
4 72 12 73 17 2 6 14 10 27 10 13 0 26 8 30 18 6 16 7 16 16 0 8 -14 23 -18
69 -18 32 0 62 5 66 11 4 7 24 9 52 6 25 -3 57 -1 70 4 15 6 29 6 36 0 6 -5
25 -11 41 -13 22 -2 31 -9 33 -25 5 -32 17 -29 33 8 8 20 25 37 46 45 50 21
41 53 -19 68 -19 4 -28 13 -28 26 0 11 5 21 10 21 6 1 15 3 20 4 6 1 17 3 25
4 8 0 15 8 15 16 0 11 -11 15 -38 15 -46 0 -55 6 -41 31 9 17 6 19 -25 19 -34
0 -91 -24 -111 -47 -5 -6 -29 -14 -52 -18 -40 -6 -41 -5 -48 24 -4 17 -10 31
-13 31 -4 0 -36 -9 -72 -20 -36 -11 -66 -20 -67 -20 -1 0 1 23 4 50 4 35 2 50
-6 50 -6 0 -14 -7 -18 -15 -9 -25 -74 -49 -123 -46 -52 3 -55 5 -44 23 4 7 7
27 5 45 -4 46 8 90 25 97 8 3 26 1 41 -5 57 -21 97 13 51 43 -25 17 -17 38 16
38 12 0 33 10 46 23 58 54 190 109 190 79 0 -14 75 -51 106 -54 73 -5 92 1
108 34 9 17 16 44 16 60 0 15 4 28 9 28 6 0 30 14 54 30 25 17 50 30 56 30 12
0 81 59 81 70 0 4 -14 10 -31 14 -17 3 -45 17 -61 31 -26 22 -37 25 -74 19
-41 -6 -44 -4 -54 20 -10 28 -46 36 -67 15 -6 -6 -49 -15 -95 -20 -95 -9 -136
-16 -195 -31 -36 -9 -43 -15 -43 -34 0 -22 -4 -24 -43 -24 -44 0 -76 22 -90
62 -3 9 -18 18 -34 20 -37 4 -40 29 -5 50 27 16 29 16 71 -13 51 -34 66 -36
80 -11 8 14 12 15 22 5 23 -23 39 -15 39 20 1 52 31 79 93 82 70 3 162 52 162
86 0 21 -5 24 -40 27 -22 2 -44 7 -48 11 -4 4 3 27 17 51 28 50 26 64 -9 48
-37 -16 -59 -3 -52 31 6 31 -8 41 -60 41 -23 0 -63 32 -63 49 0 5 12 11 27 13
19 2 29 10 31 23 2 11 10 27 18 35 18 21 7 34 -43 48 -70 21 -56 41 28 44 64
2 89 12 89 37 0 20 -75 71 -104 71 -31 0 -26 23 13 59 23 21 41 43 41 49 0 17
-23 20 -45 6 -11 -7 -50 -15 -87 -19 -64 -7 -68 -6 -92 20 -15 16 -26 32 -26
36 0 5 -7 9 -15 9 -8 0 -15 7 -15 15 0 23 27 18 66 -12 32 -24 39 -25 68 -15
18 7 46 12 63 12 16 0 33 3 37 7 3 4 37 18 74 33 l67 26 0 54 0 55 -40 6 c-22
3 -49 10 -60 16 -11 6 -62 13 -114 16 -51 3 -95 8 -98 11 -9 9 6 51 32 90 14
20 25 50 25 66 0 16 5 32 10 35 15 9 12 35 -5 35 -8 0 -40 -13 -72 -29 -67
-33 -131 -45 -167 -31 l-26 9 23 23 c31 31 73 58 91 58 8 0 30 16 49 35 27 27
42 35 71 35 30 0 38 4 47 27 14 39 8 68 -16 69 -11 0 -28 4 -38 8 -12 6 -22 2
-35 -12 -18 -21 -71 -42 -107 -42 -12 0 -34 -13 -49 -28 l-27 -29 -52 17 c-52
17 -52 17 -58 66 -4 27 -10 58 -14 70 -10 30 57 51 108 35 34 -11 39 -10 96
26 33 21 60 43 61 49 0 7 -9 22 -19 35 -18 22 -21 23 -65 11 -61 -16 -81 -15
-97 4 -11 13 -26 15 -74 12 -79 -6 -85 -4 -85 43 0 37 2 39 30 39 16 0 50 -7
76 -16 26 -9 59 -13 73 -10 94 19 121 26 166 42 62 21 75 31 75 56 0 10 8 21
18 24 37 11 89 40 120 66 18 15 37 28 42 28 6 0 10 9 10 20 0 21 -28 28 -45
11 -6 -5 -27 -12 -47 -15 -42 -8 -47 1 -22 39 18 27 12 45 -16 45 -11 0 -31 5
-45 12 -23 10 -28 10 -36 -5 -14 -23 -30 -21 -58 8 -27 29 -34 30 -51 10 -16
-19 -7 -31 31 -39 31 -6 32 -7 14 -26 -29 -32 -52 -34 -89 -5 -28 21 -42 25
-66 20 -26 -6 -30 -4 -30 15 0 11 8 23 18 26 9 3 24 8 32 11 22 7 -35 53 -66
53 -29 0 -101 39 -109 58 -10 26 6 33 65 26 56 -6 60 -5 90 24 31 32 40 72 16
72 -8 0 -18 -4 -21 -10 -8 -13 -35 -13 -35 1 0 6 16 25 35 42 35 30 48 77 23
77 -7 0 -33 -11 -57 -25 -47 -27 -72 -31 -103 -14 -11 6 -47 12 -81 13 -55 3
-63 6 -88 36 -22 26 -36 33 -64 34 -20 1 -39 7 -43 12 -4 6 -29 14 -56 16 -26
3 -55 13 -64 21 -14 15 -13 18 9 36 13 11 33 21 44 21 11 0 35 9 53 20 41 25
90 26 99 3 3 -10 22 -33 40 -52 32 -31 37 -32 59 -20 21 11 30 11 57 -3 18 -9
51 -19 74 -22 39 -6 44 -4 67 27 37 49 34 57 -24 57 -47 0 -63 11 -40 25 11 7
14 48 4 58 -4 3 -18 -3 -32 -13 -13 -11 -35 -20 -47 -20 -13 0 -25 -7 -29 -15
-8 -23 -25 -18 -62 19 -39 39 -43 61 -14 69 13 3 18 10 14 21 -9 23 -31 20
-39 -5 l-7 -21 -19 21 c-23 25 -29 26 -55 6 -10 -8 -28 -14 -39 -14 -19 -1
-19 0 3 17 20 15 22 22 13 44 -12 33 -43 50 -75 42 -18 -4 -31 2 -55 28 -39
41 -41 63 -6 54 14 -4 46 0 71 9 68 23 87 8 96 -75 4 -37 42 -35 46 3 2 17 -2
27 -10 28 -7 0 0 5 16 9 37 11 42 8 50 -33 3 -19 17 -44 30 -56 23 -21 26 -22
47 -8 15 11 35 14 68 10 41 -5 50 -2 71 21 14 14 28 26 32 26 4 0 30 14 56 30
27 17 56 30 64 30 17 0 58 41 58 58 0 8 -18 12 -51 12 -44 0 -55 4 -79 30 -34
37 -48 38 -60 5 -5 -14 -14 -25 -19 -25 -21 0 -18 16 8 47 20 24 43 36 86 48
57 14 75 27 75 53 0 14 -2 15 -33 3 -20 -8 -30 -6 -49 11 -19 17 -31 19 -76
14 -40 -5 -54 -3 -58 8 -9 24 17 100 44 129 26 27 36 86 18 104 -4 4 -27 0
-52 -9 -24 -8 -47 -12 -50 -7 -3 5 -29 9 -59 9 -47 0 -58 4 -82 29 -39 41 -89
43 -133 6 -8 -7 -37 -15 -65 -19 -28 -3 -55 -13 -62 -22 -16 -22 -31 -10 -25
21 4 23 2 25 -27 19 -25 -5 -31 -3 -31 10 0 9 8 19 18 22 9 3 27 11 39 16 18
9 26 6 47 -18 20 -24 27 -27 38 -16 11 11 10 15 -4 23 -10 6 -18 18 -18 29 0
10 8 32 18 50 16 30 16 32 -1 45 -34 25 -1 24 53 -2 56 -27 117 -27 159 -1 16
10 27 9 57 -5 33 -16 38 -16 60 -2 31 20 22 35 -21 35 -18 0 -40 7 -49 15 -8
8 -19 15 -25 15 -17 0 -13 27 5 34 9 3 29 6 46 6 36 0 128 48 128 66 0 7 -13
15 -30 19 -34 7 -37 11 -44 49 -7 40 -34 77 -54 75 -28 -5 -94 11 -140 33 -52
25 -117 35 -126 19 -10 -16 -46 -13 -46 4 0 11 12 15 51 15 40 0 58 5 82 26
25 21 38 25 69 21 42 -6 76 17 42 29 -11 4 -29 18 -41 32 l-22 26 -35 -19
c-28 -15 -38 -17 -48 -7 -9 9 -5 19 21 46 19 19 47 40 63 47 38 15 63 62 48
89 -13 24 -74 28 -105 7 -11 -7 -39 -19 -63 -26 -34 -10 -46 -19 -57 -45 -12
-28 -23 -36 -72 -50 -32 -10 -64 -20 -72 -22 -19 -6 -6 -64 19 -81 26 -19 17
-33 -22 -33 -28 0 -30 2 -25 27 3 15 1 36 -4 45 -9 16 -12 16 -44 -3 l-35 -21
0 24 c0 13 14 38 30 55 25 26 37 31 63 27 27 -5 39 1 75 35 47 44 47 61 1 61
-22 0 -29 5 -30 20 -1 11 -2 24 -3 30 -1 5 6 19 14 31 8 11 20 28 26 36 20 29
33 5 27 -51 -4 -43 -2 -54 11 -59 9 -4 22 -4 30 -1 13 5 71 83 103 138 20 34
16 74 -9 87 -13 7 -36 23 -51 35 -40 33 -81 31 -108 -5z m101 -69 c0 -13 -49
-56 -56 -49 -10 10 24 57 41 57 8 0 15 -4 15 -8z m-116 -547 c10 -10 24 -13
41 -9 19 5 25 2 25 -9 0 -9 -6 -20 -14 -24 -8 -4 -16 -26 -18 -48 -3 -34 -7
-40 -28 -43 -14 -2 -29 -8 -34 -13 -6 -5 -17 -2 -27 7 -11 10 -25 13 -38 9
-24 -7 -29 -35 -6 -35 9 0 15 -9 15 -24 0 -34 -15 -40 -28 -11 -6 13 -20 29
-31 35 -17 8 -23 7 -33 -9 -9 -15 -19 -18 -39 -14 -17 3 -36 -1 -50 -11 -42
-29 -48 -17 -11 23 47 48 80 67 95 52 17 -17 20 -15 71 54 62 84 82 97 110 70z
m238 -99 c10 -12 18 -25 18 -30 0 -10 -166 -3 -176 7 -15 15 29 46 70 49 53 4
67 0 88 -26z m158 -14 c0 -13 -87 -92 -102 -92 -8 0 -23 6 -33 14 -17 12 -18
18 -7 40 7 17 20 26 34 26 13 0 30 5 38 10 18 12 70 13 70 2z m-752 -124 c-3
-7 -13 -15 -24 -17 -10 -1 -27 -10 -36 -18 -9 -8 -22 -12 -28 -8 -14 9 -5 18
35 39 36 19 58 20 53 4z m230 -80 c-3 -34 -22 -48 -80 -62 -20 -5 -28 -3 -28
8 0 7 -7 19 -15 26 -20 17 -9 30 26 30 16 0 29 4 29 9 0 5 12 12 28 14 15 2
31 5 35 6 5 0 7 -14 5 -31z m-5 -193 c1 -5 -6 -11 -15 -13 -11 -2 -18 3 -18
13 0 17 30 18 33 0z m67 -48 c-7 -51 -16 -67 -36 -67 -22 0 -18 53 6 68 11 7
20 19 20 27 0 8 4 15 8 15 5 0 6 -19 2 -43z m486 -32 c10 -41 -1 -55 -45 -55
-51 0 -57 11 -25 49 32 38 61 40 70 6z m-274 -72 c29 -13 38 -22 36 -38 -5
-34 -46 -31 -81 5 -25 26 -28 33 -16 41 18 11 16 12 61 -8z m321 -98 c17 -23
17 -25 -2 -35 -29 -15 -46 -12 -72 10 -24 20 -24 20 -5 35 28 22 58 18 79 -10z
m-155 -37 c-6 -18 -28 -21 -28 -4 0 9 7 16 16 16 9 0 14 -5 12 -12z m92 -128
c0 -5 -7 -10 -15 -10 -8 0 -15 5 -15 10 0 6 7 10 15 10 8 0 15 -4 15 -10z
m-857 -572 c18 -24 18 -27 2 -52 -13 -20 -25 -26 -54 -26 -20 0 -43 5 -51 10
-13 8 -12 12 7 25 35 25 53 45 53 62 0 20 20 12 43 -19z m546 -135 c1 -13 -3
-23 -9 -23 -5 0 -10 21 -9 48 1 38 2 42 9 22 4 -14 8 -35 9 -47z m-97 -25
c-15 -15 -24 -6 -16 16 5 12 10 14 17 7 8 -8 8 -14 -1 -23z m348 -123 c38 -19
38 -42 3 -49 -100 -19 -115 -19 -111 0 2 10 14 24 26 30 13 6 29 17 35 23 14
14 12 14 47 -4z m-340 -100 c0 -14 -24 -27 -33 -18 -8 8 16 43 25 37 4 -3 8
-11 8 -19z m545 -34 c-21 -42 -35 -47 -35 -13 0 33 6 42 32 42 17 0 17 -2 3
-29z m-765 -121 c0 -5 -9 -10 -21 -10 -11 0 -17 5 -14 10 3 6 13 10 21 10 8 0
14 -4 14 -10z m-192 -67 c-10 -2 -28 -2 -40 0 -13 2 -5 4 17 4 22 1 32 -1 23
-4z m678 -165 c15 -12 48 -25 72 -28 48 -5 70 -26 59 -54 -6 -15 -18 -17 -110
-10 -91 6 -105 4 -110 -10 -14 -35 -24 -13 -23 47 1 61 2 62 29 63 15 1 30 4
34 8 10 10 19 7 49 -16z m-631 -216 c62 -24 67 -29 50 -62 -11 -21 -24 -29
-52 -33 -33 -4 -42 -1 -65 25 -25 29 -30 31 -81 25 -60 -6 -153 -49 -182 -84
-5 -7 -21 -14 -35 -15 -19 -2 -25 2 -25 16 0 14 13 23 45 34 25 8 62 26 82 39
21 12 46 23 56 23 10 0 36 13 58 30 43 32 69 33 149 2z m175 -27 c0 -8 -9 -15
-20 -15 -22 0 -27 15 -7 23 21 9 27 7 27 -8z m130 -29 c19 -1 24 -6 22 -21 -5
-26 -11 -32 -44 -40 -23 -6 -29 -3 -37 18 -5 14 -15 27 -22 29 -26 9 3 30 30
22 14 -4 37 -7 51 -8z m510 -16 c0 -11 -4 -20 -10 -20 -5 0 -10 9 -10 20 0 11
5 20 10 20 6 0 10 -9 10 -20z m-730 -85 c0 -8 -4 -15 -10 -15 -5 0 -10 7 -10
15 0 8 5 15 10 15 6 0 10 -7 10 -15z m-317 -68 c8 -33 6 -43 -19 -79 -57 -82
-129 -111 -122 -49 2 19 13 31 41 44 40 20 44 32 22 61 -13 18 -13 22 7 43 32
34 60 26 71 -20z m1142 11 c-10 -51 -29 -88 -43 -88 -7 0 -14 6 -16 13 -2 6
-7 26 -12 42 -12 38 9 65 49 65 27 0 28 -2 22 -32z m-1295 -69 c0 -5 -7 -9
-15 -9 -15 0 -20 12 -9 23 8 8 24 -1 24 -14z m-32 -51 c-4 -27 -28 -36 -28
-10 0 20 8 32 22 32 5 0 8 -10 6 -22z m427 -24 c-10 -7 -22 -11 -28 -7 -6 3
-3 11 8 19 10 7 22 11 28 7 6 -3 3 -11 -8 -19z m1021 -28 c-4 -11 -9 -33 -12
-48 -6 -27 -28 -43 -45 -32 -5 3 -6 16 -3 29 4 18 1 25 -15 30 -26 8 -28 25
-3 25 10 0 27 6 37 14 26 19 48 9 41 -18z m-1106 -6 c-12 -23 -40 -27 -40 -6
0 13 14 21 43 25 4 0 3 -8 -3 -19z m-433 -30 c-2 -45 -17 -47 -32 -6 -7 21 -6
29 5 36 25 16 30 11 27 -30z m90 -7 c4 -10 17 -31 30 -47 31 -37 17 -56 -44
-56 -24 0 -56 -8 -71 -17 -43 -26 -102 -86 -102 -102 0 -12 -3 -12 -12 -3 -7
7 -25 12 -40 12 -46 0 -36 34 20 67 60 35 178 129 186 148 7 20 25 19 33 -2z
m1194 -52 c23 -17 28 -18 41 -5 13 13 18 12 42 -7 23 -18 27 -28 24 -63 -3
-41 -3 -41 -53 -49 -27 -5 -63 -10 -80 -11 -28 -1 -30 1 -27 35 4 45 -9 54
-47 34 -17 -8 -39 -15 -49 -15 -11 0 -22 -7 -26 -15 -7 -20 -36 -19 -65 4 -30
23 -22 49 18 57 17 4 38 15 47 25 9 11 27 19 40 19 13 0 26 5 30 11 9 16 73 4
105 -20z m-497 -210 c3 -5 0 -14 -8 -20 -10 -9 -15 -8 -19 3 -9 22 15 37 27
17z m-860 -10 c7 -10 -22 -37 -30 -28 -9 8 3 37 15 37 5 0 12 -4 15 -9z m1648
-63 c-7 -7 -12 -22 -12 -35 0 -22 -3 -23 -70 -21 -38 1 -70 4 -70 6 0 3 8 11
17 18 13 9 22 9 31 2 9 -8 18 -5 35 10 28 25 94 45 69 20z m-1415 -9 c14 -14
-12 -59 -34 -59 -8 0 -28 -8 -44 -17 -50 -29 -46 -3 6 43 55 48 56 49 72 33z
m703 -25 c16 -41 13 -49 -40 -107 -27 -30 -54 -66 -59 -81 -14 -34 -37 -33
-46 1 -9 38 -18 41 -94 35 -61 -5 -69 -8 -111 -48 -49 -48 -88 -58 -97 -24 -5
19 -11 20 -104 13 -76 -4 -99 -3 -99 6 0 7 9 15 20 18 11 3 29 20 40 38 14 23
44 44 104 74 90 44 102 47 108 31 5 -15 66 17 81 41 15 25 33 24 40 -1 4 -15
14 -20 39 -20 18 0 44 -9 58 -20 36 -28 45 -25 87 25 43 51 59 56 73 19z m500
16 c0 -5 -7 -10 -15 -10 -8 0 -15 5 -15 10 0 6 7 10 15 10 8 0 15 -4 15 -10z
m-399 -58 c-7 -14 -17 -18 -31 -15 -28 7 -25 20 8 31 33 11 37 9 23 -16z m659
-17 c7 -8 19 -15 28 -15 24 0 82 -23 82 -32 0 -18 -35 -20 -84 -4 -73 23 -83
31 -67 50 17 20 25 20 41 1z m-540 -140 c7 -8 18 -15 26 -15 20 0 28 -21 13
-31 -40 -25 -89 0 -89 45 0 20 34 21 50 1z m111 -63 c69 -45 159 -146 159
-176 0 -36 -107 0 -153 52 -14 15 -57 117 -57 135 0 12 24 8 51 -11z m-221
-42 c-7 -22 -17 -40 -21 -40 -17 0 -20 22 -6 38 7 9 17 26 21 36 13 37 19 5 6
-34z m-195 10 c-3 -5 -13 -10 -21 -10 -8 0 -14 5 -14 10 0 6 9 10 21 10 11 0
17 -4 14 -10z m-115 -29 c19 -36 -22 -97 -57 -84 -6 2 -23 -7 -37 -21 -14 -15
-32 -26 -41 -26 -9 0 -18 -12 -21 -30 -7 -33 -87 -106 -105 -95 -6 4 -7 19 -4
35 7 33 -25 70 -60 70 -34 0 -88 -21 -106 -40 -25 -28 -58 -34 -80 -14 -26 24
-24 41 7 48 36 10 163 28 204 30 39 2 90 24 90 39 0 5 -7 15 -17 22 -19 14
-11 45 12 45 8 0 15 -4 15 -9 0 -5 7 -17 16 -25 14 -15 21 -12 72 29 61 48 95
56 112 26z m320 -58 c0 -25 -1 -26 -16 -11 -9 9 -13 21 -10 27 13 20 26 11 26
-16z m103 -4 c3 -13 0 -22 -10 -26 -18 -7 -48 21 -39 36 12 18 43 12 49 -10z
m373 -30 c10 -12 37 -33 58 -47 34 -21 47 -24 98 -19 90 8 122 -7 81 -39 -45
-35 -125 -75 -140 -71 -10 3 -30 8 -45 11 -34 8 -55 41 -38 61 16 19 6 32 -29
40 -24 5 -30 12 -33 41 -6 51 14 60 48 23z m322 2 c3 -8 -1 -12 -9 -9 -7 2
-15 10 -17 17 -3 8 1 12 9 9 7 -2 15 -10 17 -17z m-918 -83 c0 -13 -7 -18 -26
-18 -22 0 -25 3 -20 23 3 12 6 28 6 36 0 11 5 10 20 -4 11 -10 20 -26 20 -37z
m948 -44 c27 -19 28 -34 3 -34 -18 0 -64 -45 -73 -72 -4 -11 -8 -10 -21 0 -31
26 -30 50 5 86 37 39 54 43 86 20z m-383 -14 c0 -8 -10 -16 -22 -18 -22 -3
-32 16 -16 32 12 11 38 2 38 -14z m-765 -16 c9 -23 12 -24 27 -13 13 11 17 11
21 1 2 -7 10 -19 18 -26 11 -12 11 -16 0 -25 -16 -13 -78 -3 -89 15 -4 7 -21
15 -37 19 -17 4 -30 10 -30 15 0 12 23 28 50 33 14 2 26 5 28 6 1 0 7 -11 12
-25z m660 -73 c0 -5 9 -13 20 -16 21 -7 27 -30 10 -40 -18 -11 -79 33 -80 58
0 4 11 7 25 7 14 0 25 -4 25 -9z m-480 -39 c0 -10 -41 -35 -47 -28 -11 11 7
36 27 36 11 0 20 -3 20 -8z m585 -57 c0 -29 -1 -30 -50 -32 -27 -1 -41 1 -30
4 31 8 47 25 41 45 -3 15 0 19 17 16 17 -2 22 -10 22 -33z m685 21 c0 -8 2
-21 5 -28 4 -10 -4 -14 -30 -15 -41 -1 -43 2 -12 32 26 27 37 30 37 11z
m-2040 -89 c0 -21 -22 -37 -52 -37 -34 0 -37 22 -5 38 31 15 57 14 57 -1z
m765 -145 c1 -73 -1 -135 -5 -137 -4 -2 -16 -1 -28 2 -28 7 -29 30 -2 38 20 7
25 21 14 49 -9 24 -30 19 -56 -14 l-23 -30 -19 35 c-17 32 -18 40 -6 91 11 44
19 58 42 70 15 8 28 19 28 25 0 6 12 9 27 7 l26 -3 2 -133z m347 101 c19 -17
24 -48 8 -58 -6 -3 -6 -13 -1 -23 5 -9 17 -34 27 -54 13 -26 25 -38 40 -38 29
0 36 11 21 29 -19 22 -28 51 -17 51 5 0 40 -20 77 -45 67 -45 91 -53 109 -35
14 14 52 1 59 -21 8 -25 -3 -41 -24 -34 -10 3 -45 -2 -77 -11 -69 -20 -107
-22 -149 -6 -82 30 -116 36 -136 24 -35 -22 -40 -6 -35 116 2 64 4 118 5 120
4 10 78 -1 93 -15z m428 -8 c0 -10 -10 -15 -29 -15 -34 0 -50 16 -24 23 36 9
53 7 53 -8z m252 -75 c12 -11 19 -22 16 -25 -5 -6 -78 33 -78 41 0 12 44 1 62
-16z m-174 -17 c2 -8 -5 -13 -16 -13 -30 0 -53 11 -46 22 8 13 57 6 62 -9z
m-1260 -75 c19 -19 14 -45 -10 -52 -41 -10 -48 -7 -48 23 0 38 33 54 58 29z
m-141 -261 c-2 -7 -13 -13 -25 -15 -16 -3 -22 2 -22 16 0 10 3 22 6 25 10 10
46 -13 41 -26z m1174 -47 c27 0 30 -3 27 -27 -2 -21 -8 -27 -22 -25 -11 2 -37
-4 -58 -14 -43 -19 -58 -13 -40 16 7 11 12 26 12 34 0 16 19 26 38 20 8 -2 27
-4 43 -4z m699 -480 c0 -12 -28 -25 -36 -17 -9 9 6 27 22 27 8 0 14 -5 14 -10z
m-1673 -28 c-10 -10 -17 -25 -18 -33 0 -9 -2 -10 -6 -2 -4 12 28 65 36 57 2
-2 -3 -12 -12 -22z m1789 6 c10 -16 -26 -39 -56 -36 -29 4 -39 34 -13 41 34 9
62 7 69 -5z m-160 -53 c-7 -28 -33 -33 -43 -8 -4 10 2 23 18 35 26 22 35 12
25 -27z m-1296 -135 c12 -7 15 -39 18 -152 l4 -144 -34 -44 c-18 -24 -54 -60
-78 -78 -25 -19 -51 -45 -58 -58 -16 -30 -24 -30 -58 1 -27 25 -27 26 -11 61
24 49 22 56 -15 52 -27 -2 -34 1 -36 19 -2 14 3 23 18 28 15 5 19 12 15 25
-13 41 66 200 100 200 8 0 20 12 27 27 11 24 70 73 87 73 3 0 13 -5 21 -10z
m-1110 -46 c13 -14 11 -19 -24 -48 -51 -43 -76 -38 -76 15 0 26 6 41 18 48 21
13 61 5 82 -15z m537 -33 c9 -38 9 -57 0 -80 -6 -17 -9 -33 -6 -36 3 -3 27 -9
52 -14 51 -9 83 -29 69 -43 -8 -8 -105 -13 -185 -10 -49 3 -60 27 -25 56 22
18 26 30 27 81 2 58 19 95 45 95 6 0 17 -22 23 -49z m743 -112 c0 -5 10 -23
21 -38 25 -34 17 -55 -16 -47 -13 3 -27 2 -30 -4 -21 -34 -47 19 -32 64 6 17
12 37 13 44 3 10 9 10 24 2 11 -6 20 -15 20 -21z m-1270 -10 c0 -11 -4 -17
-10 -14 -5 3 -10 13 -10 21 0 8 5 14 10 14 6 0 10 -9 10 -21z m1355 -88 c7
-12 -32 -34 -45 -26 -6 3 -10 13 -10 21 0 16 45 20 55 5z m-919 -116 c22 -24
22 -25 4 -35 -18 -9 -48 -7 -90 7 -10 3 -4 9 18 18 17 8 32 19 32 25 0 16 11
12 36 -15z m212 -11 c12 -4 22 -13 22 -20 0 -21 18 -17 30 6 6 11 20 20 32 20
16 0 19 -4 14 -22 -4 -13 -8 -32 -10 -43 -11 -62 -42 -66 -75 -9 -11 19 -26
34 -33 34 -22 0 -41 17 -34 29 8 12 21 14 54 5z m462 -54 l0 -50 -25 16 c-31
20 -32 47 -2 67 12 9 23 16 25 16 1 1 2 -22 2 -49z m520 42 c0 -11 -55 -42
-74 -42 -27 0 -18 19 17 34 37 17 57 19 57 8z m315 -15 c24 -18 6 -29 -34 -21
-25 5 -29 9 -20 20 14 18 30 18 54 1z m-1635 -160 c0 -21 -22 -37 -49 -36 -26
2 -26 2 -2 6 13 3 26 13 28 24 6 21 23 26 23 6z m1960 -1 c0 -15 -26 -46 -39
-46 -19 0 -42 27 -35 43 8 22 74 24 74 3z m-1250 -58 c0 -5 -3 -8 -7 -6 -5 3
-22 10 -40 17 -20 8 -30 18 -27 26 4 11 13 9 40 -7 19 -11 34 -24 34 -30z
m1351 36 c11 -14 10 -15 -11 -12 -13 1 -25 9 -28 16 -5 17 23 15 39 -4z m-556
-24 c10 -11 15 -20 11 -20 -14 0 -46 21 -46 30 0 16 16 11 35 -10z m244 -6 c2
-2 -1 -10 -8 -18 -7 -9 -9 -29 -5 -56 l7 -43 -29 7 c-16 4 -46 15 -66 24 -44
20 -49 44 -16 80 20 21 29 23 68 17 25 -4 47 -9 49 -11z m-729 -39 c7 -8 21
-15 31 -15 25 0 34 -19 13 -27 -10 -4 -21 0 -28 8 -6 9 -19 18 -28 22 -10 3
-18 11 -18 17 0 15 16 12 30 -5z m790 -25 c0 -13 -28 -25 -38 -16 -3 4 0 11 8
16 20 13 30 12 30 0z m140 -5 c0 -8 -7 -15 -15 -15 -8 0 -15 7 -15 15 0 8 7
15 15 15 8 0 15 -7 15 -15z m120 -24 c0 -5 -14 -21 -30 -35 -17 -14 -33 -39
-36 -55 -8 -37 -43 -44 -51 -11 -8 30 -38 21 -38 -10 0 -19 6 -26 23 -28 20
-3 23 -8 17 -29 -3 -14 -1 -31 6 -39 16 -20 -3 -18 -40 3 -16 10 -33 28 -36
40 -3 13 -19 38 -35 57 -34 38 -38 56 -12 56 10 0 27 7 39 15 20 14 24 13 49
-10 35 -33 46 -32 69 8 10 17 23 35 29 39 15 11 46 10 46 -1z m-1540 -17 c0
-9 -7 -14 -17 -12 -25 5 -28 28 -4 28 12 0 21 -6 21 -16z m-66 -43 c3 -4 3
-11 0 -14 -8 -7 -44 4 -44 14 0 12 37 12 44 0z m486 -30 c0 -10 -30 -24 -37
-17 -3 3 -2 9 2 15 8 13 35 15 35 2z m-920 -36 c-7 -8 -17 -12 -23 -8 -6 4 -3
11 8 19 23 17 32 10 15 -11z m2090 -21 c0 -16 -16 -19 -25 -4 -8 13 4 32 16
25 5 -4 9 -13 9 -21z m-1387 -65 c-9 -18 -13 -44 -10 -64 5 -31 3 -34 -37 -49
-24 -9 -53 -28 -66 -41 -13 -14 -29 -25 -36 -25 -8 0 -30 -9 -51 -21 -33 -19
-41 -20 -75 -8 -21 7 -38 14 -38 17 0 2 9 16 21 30 11 15 30 43 42 62 25 40
151 117 201 123 70 9 66 10 49 -24z m953 -4 c11 -27 0 -36 -24 -19 -12 8 -20
20 -17 25 9 14 35 11 41 -6z m-1872 -11 c24 -9 19 -41 -9 -60 -14 -9 -25 -25
-25 -36 0 -17 -3 -18 -15 -8 -9 8 -28 10 -49 6 -59 -11 -54 24 5 39 15 4 36
20 48 36 24 32 23 32 45 23z m1066 -103 c0 -21 -13 -41 -26 -41 -14 0 -19 31
-7 43 10 10 33 8 33 -2z m-847 -225 c-26 -35 -73 -43 -73 -12 0 21 23 36 57
36 l34 0 -18 -24z m455 12 c8 -8 15 -8 26 1 10 8 16 9 21 1 3 -5 -2 -13 -12
-17 -10 -4 -21 -11 -25 -16 -3 -6 -23 -10 -43 -9 -26 1 -38 -3 -42 -16 -3 -9
-14 -26 -23 -37 -30 -34 -34 -62 -10 -70 29 -9 25 -29 -9 -41 -36 -14 -78 6
-87 41 -3 14 -12 25 -19 25 -7 0 -23 9 -36 20 l-24 20 24 20 c31 27 39 25 43
-7 2 -16 9 -28 16 -27 6 1 27 2 45 3 26 1 35 7 47 34 7 17 13 42 12 54 -1 15
5 23 21 26 42 8 63 7 75 -5z m292 -57 c0 -6 -10 -21 -23 -35 -16 -18 -30 -23
-45 -19 -32 8 -27 27 11 45 39 19 57 21 57 9z m569 -64 c2 -6 15 -22 28 -35
27 -27 22 -37 -19 -47 -20 -5 -28 -3 -28 6 -1 31 -15 41 -44 28 -42 -20 -52 1
-19 39 22 25 34 31 53 26 14 -3 27 -11 29 -17z m-1439 -111 c0 -13 -49 -56
-63 -56 -32 0 -27 20 10 39 38 20 53 25 53 17z m1490 -61 c-12 -15 -40 -21
-40 -8 0 3 8 15 17 25 21 23 43 7 23 -17z m-990 10 c0 -8 -4 -15 -10 -15 -5 0
-10 7 -10 15 0 8 5 15 10 15 6 0 10 -7 10 -15z m-75 -45 c0 -18 -33 -26 -48
-11 -9 9 -8 14 3 21 21 14 45 8 45 -10z m1288 -48 c19 -17 23 -42 5 -42 -6 0
-8 -3 -4 -7 4 -4 14 -8 22 -8 7 0 15 -4 16 -10 3 -10 -101 -27 -114 -18 -15 8
3 23 27 23 13 0 27 4 30 10 6 9 -16 17 -65 22 -35 4 -37 32 -3 45 32 12 60 7
86 -15z m-1064 5 c14 -18 4 -27 -31 -27 -30 0 -35 9 -16 28 16 16 33 15 47 -1z
m289 -72 c13 -53 23 -230 15 -251 -3 -7 -26 -20 -52 -29 -26 -8 -65 -24 -87
-35 -51 -27 -70 -25 -105 7 -28 27 -28 27 -9 45 22 21 26 48 9 65 -8 8 -7 17
5 34 9 13 16 33 16 45 0 17 8 24 29 29 20 4 37 18 50 41 12 19 34 43 51 52 16
9 30 22 30 28 0 15 23 35 30 27 4 -5 12 -30 18 -58z m-733 45 c3 -5 17 -10 30
-10 52 0 32 -35 -35 -63 -37 -15 -96 -12 -106 5 -4 5 9 25 27 44 32 33 71 44
84 24z m1285 -13 c0 -13 5 -28 12 -35 19 -19 3 -24 -27 -8 -52 27 -61 66 -15
66 25 0 30 -4 30 -23z m51 -87 c16 0 10 -15 -12 -28 -16 -10 -24 -10 -35 -1
-18 15 1 43 23 34 8 -3 19 -5 24 -5z m137 -40 c14 -1 14 -2 -3 -12 -11 -6 -25
-18 -30 -25 -13 -17 -45 -7 -45 13 0 8 7 26 16 40 17 24 17 24 31 4 8 -11 22
-20 31 -20z m157 -30 c10 -11 31 -20 47 -20 33 0 37 -19 10 -44 -18 -15 -21
-15 -47 6 -20 15 -43 23 -74 23 -36 1 -47 5 -49 19 -3 15 1 18 20 13 15 -4 32
-1 44 8 25 19 28 19 49 -5z m-1740 -35 c0 -29 -50 -44 -72 -22 -16 16 -16 18
2 32 28 21 70 15 70 -10z m1465 1 c0 -15 -14 -35 -21 -30 -15 9 -10 34 6 34 8
0 15 -2 15 -4z m160 -28 c0 -7 12 -24 27 -40 23 -24 24 -28 10 -34 -45 -17
-90 27 -73 71 6 18 36 20 36 3z m-1090 -12 c0 -19 -27 -39 -40 -31 -8 5 -6 13
6 26 20 22 34 25 34 5z m1737 -51 c3 -9 3 -19 -1 -22 -7 -7 -36 16 -36 28 0
15 30 10 37 -6z m-2214 -12 c9 -9 -13 -34 -24 -27 -14 8 -11 34 4 34 8 0 17
-3 20 -7z m800 -85 c17 -26 1 -50 -30 -46 -33 4 -41 29 -17 52 18 19 33 17 47
-6z m-1185 -30 c-7 -19 -38 -22 -38 -4 0 10 9 16 21 16 12 0 19 -5 17 -12z
m1040 -43 c20 -6 21 -8 8 -26 -16 -23 -75 -55 -119 -65 -18 -4 -37 -14 -43
-22 -10 -14 -14 -14 -28 -3 -10 8 -28 11 -46 8 -16 -4 -31 -3 -34 2 -6 9 47
51 64 51 6 0 13 7 16 15 7 17 34 21 34 5 0 -20 29 -9 59 21 19 19 38 29 48 25
10 -2 28 -7 41 -11z m362 -4 c0 -5 3 -16 6 -25 9 -22 -19 -21 -39 2 -10 10
-14 22 -10 25 10 10 43 8 43 -2z m-331 -103 c10 -27 4 -53 -15 -69 -8 -6 -14
-20 -14 -30 0 -37 -19 -18 -25 25 -5 33 -3 50 10 70 21 32 33 33 44 4z m339
-9 c2 -13 10 -27 17 -31 7 -5 11 -17 8 -28 -3 -11 0 -27 7 -35 17 -21 30 -128
16 -137 -29 -19 -92 17 -110 63 -14 35 -14 44 -1 82 8 23 15 47 15 54 0 6 5
24 10 38 12 32 34 28 38 -6z m-248 -103 c0 -32 -116 -103 -136 -83 -9 8 8 37
22 37 7 0 16 11 20 24 6 24 19 30 77 35 9 0 17 -5 17 -13z m-380 -7 c0 -17
-20 -49 -30 -49 -6 0 -10 14 -10 30 0 23 4 30 20 30 11 0 20 -5 20 -11z m531
-6 c1 -10 0 -22 -1 -28 -24 -97 -39 -125 -68 -125 -20 0 -7 50 19 72 11 10 15
19 9 23 -5 3 -10 22 -10 41 0 30 3 34 25 34 17 0 25 -6 26 -17z m-416 -54 c8
-35 11 -31 -42 -58 -82 -41 -101 -16 -28 39 25 19 45 37 45 42 0 22 19 4 25
-23z m513 -132 c14 -15 14 -19 1 -32 -16 -16 -105 -42 -114 -33 -3 3 -7 18 -8
34 -2 23 2 29 18 28 11 -1 27 -4 37 -8 12 -6 19 1 30 30 9 27 14 32 17 18 1
-10 10 -27 19 -37z m-628 -47 c0 -5 -6 -10 -14 -10 -8 0 -18 5 -21 10 -3 6 3
10 14 10 12 0 21 -4 21 -10z m-12 -66 c-4 -24 -24 -29 -32 -8 -8 20 13 49 27
35 5 -5 7 -17 5 -27z m-118 -19 c7 -8 23 -15 36 -15 31 0 37 -14 16 -33 -23
-21 -110 -26 -123 -6 -13 21 -11 26 17 48 32 25 38 26 54 6z m-96 -195 c-29
-30 -54 -39 -54 -20 0 6 11 15 24 20 14 5 30 19 37 32 8 15 14 18 17 10 2 -7
-9 -26 -24 -42z m50 -79 c15 -16 16 -23 5 -42 -14 -28 -49 -58 -66 -59 -18 0
-16 15 2 30 20 17 19 38 -2 43 -10 2 -3 2 15 0 24 -3 32 0 32 12 0 8 -4 15
-10 15 -5 0 -10 5 -10 10 0 16 15 12 34 -9z m1391 9 c3 -6 -1 -13 -9 -16 -22
-8 -68 4 -61 16 8 13 62 13 70 0z m-1495 -60 c0 -5 -6 -10 -12 -10 -7 0 -35
-23 -63 -50 -45 -46 -81 -61 -98 -44 -14 14 67 89 107 101 53 14 66 15 66 3z
m1518 -62 c-5 -15 -68 -24 -68 -9 0 12 18 19 48 20 15 1 22 -4 20 -11z m100
-26 c4 -25 -19 -30 -37 -9 -8 10 -7 17 1 25 17 17 32 10 36 -16z m-98 -42 c0
-21 -20 -35 -40 -28 -6 2 -3 12 7 25 22 28 33 29 33 3z m266 -16 c16 -4 20
-11 16 -27 -13 -54 -48 -63 -63 -17 -6 17 -15 30 -21 30 -5 0 -6 5 -3 10 7 11
38 13 71 4z m-836 -880 c0 -25 -4 -43 -9 -40 -11 7 -23 65 -15 77 13 22 24 5
24 -37z m71 -171 c8 -49 4 -115 -8 -124 -7 -6 -13 -15 -13 -20 0 -4 -5 -20
-11 -36 -8 -22 -12 -24 -19 -13 -15 23 -12 76 5 90 8 7 15 27 15 45 0 19 3 40
6 49 6 16 23 22 25 9z m3 -330 c4 -60 2 -94 -5 -99 -6 -3 -13 -4 -16 -1 -7 8
-12 189 -6 200 12 20 21 -14 27 -100z m-4 -148 c18 -22 21 -192 3 -207 -8 -7
-17 -8 -23 -2 -7 8 -13 107 -11 197 1 30 12 35 31 12z m-100 -162 c0 -75 -11
-80 -14 -6 -3 46 1 73 10 73 2 0 4 -30 4 -67z m97 -107 c-4 -9 -11 -16 -17
-16 -11 0 -14 33 -3 44 11 10 26 -11 20 -28z m-177 -116 c0 -11 -4 -20 -10
-20 -5 0 -10 9 -10 20 0 11 5 20 10 20 6 0 10 -9 10 -20z m85 -53 c9 -45 2
-132 -10 -131 -23 2 -27 164 -4 164 4 0 11 -15 14 -33z m-82 -32 c-15 -12 -18
-11 -21 1 -2 9 5 22 15 29 15 12 18 11 21 -1 2 -9 -5 -22 -15 -29z m241 -52
c16 -32 6 -73 -19 -73 -11 0 -15 11 -15 43 0 38 5 57 16 57 2 0 10 -12 18 -27z
m-68 -34 c-2 -22 -6 -42 -9 -45 -8 -8 -20 74 -12 86 13 21 24 -2 21 -41z
m-176 12 c0 -23 -16 -36 -25 -21 -9 14 1 40 15 40 5 0 10 -9 10 -19z m117
-111 c4 -14 7 -45 7 -69 1 -29 6 -46 15 -49 11 -4 13 5 9 40 -5 47 6 83 23 73
11 -7 12 -108 2 -119 -5 -4 -8 -19 -8 -33 0 -32 -28 -52 -52 -37 -13 8 -18 29
-20 93 -2 46 -8 91 -13 101 -6 10 -10 26 -10 34 0 25 39 -3 47 -34z m53 -381
c0 -11 -4 -17 -10 -14 -5 3 -10 13 -10 21 0 8 5 14 10 14 6 0 10 -9 10 -21z
m45 -149 c-3 -5 -13 -10 -21 -10 -8 0 -14 5 -14 10 0 6 9 10 21 10 11 0 17 -4
14 -10z m3 -120 c4 -30 22 -52 22 -26 0 9 5 14 10 11 12 -7 -1 -34 -32 -70
-16 -19 -25 -22 -39 -14 -20 10 -24 42 -13 98 5 25 11 31 28 29 14 -2 22 -12
24 -28z m44 -125 c3 -13 -1 -34 -9 -45 -17 -24 -11 -50 11 -50 19 0 31 -39 17
-53 -8 -8 -11 -8 -11 1 0 7 -11 12 -25 12 -16 0 -28 7 -31 18 -4 9 -15 35 -25
56 -21 44 -11 71 22 61 12 -4 21 -1 25 9 9 24 21 19 26 -9z m-8 -174 c18 -20
19 -52 1 -58 -9 -3 -35 49 -35 70 0 13 17 7 34 -12z m37 -128 c13 -36 -4 -52
-25 -22 -20 29 -21 49 -1 49 9 0 20 -12 26 -27z"/>
<path d="M1905 9005 c-5 -2 -22 -6 -37 -9 -21 -5 -28 -12 -28 -31 0 -33 28
-33 64 0 35 32 35 52 1 40z"/>
<path d="M2880 11840 c0 -11 5 -20 10 -20 6 0 10 9 10 20 0 11 -4 20 -10 20
-5 0 -10 -9 -10 -20z"/>
<path d="M1490 11585 c0 -11 7 -15 23 -13 12 2 22 8 22 13 0 6 -10 11 -22 13
-16 2 -23 -2 -23 -13z"/>
<path d="M1790 11165 c-17 -20 -5 -45 20 -45 11 0 23 7 26 15 6 15 -11 45 -26
45 -4 0 -13 -7 -20 -15z"/>
<path d="M2624 11154 c3 -9 6 -20 6 -25 0 -5 9 -9 20 -9 15 0 20 7 20 25 0 20
-5 25 -26 25 -20 0 -25 -4 -20 -16z"/>
<path d="M1370 10985 c0 -8 7 -15 15 -15 8 0 15 7 15 15 0 8 -7 15 -15 15 -8
0 -15 -7 -15 -15z"/>
<path d="M1490 10755 c0 -16 6 -25 15 -25 9 0 15 9 15 25 0 16 -6 25 -15 25
-9 0 -15 -9 -15 -25z"/>
<path d="M2925 9970 c-3 -6 1 -13 10 -16 19 -8 30 0 20 15 -8 14 -22 14 -30 1z"/>
<path d="M3444 9446 c-10 -27 1 -51 24 -54 28 -4 52 14 52 38 0 30 -66 43 -76
16z"/>
<path d="M3215 8030 c-16 -18 -16 -20 -1 -26 28 -11 66 4 66 26 0 27 -41 27
-65 0z"/>
<path d="M954 7685 c-10 -26 6 -36 31 -19 14 9 22 20 19 25 -8 14 -44 10 -50
-6z"/>
<path d="M1766 7644 c-7 -19 2 -37 15 -29 12 8 12 45 0 45 -5 0 -12 -7 -15
-16z"/>
<path d="M2990 7475 c0 -17 2 -18 24 -9 18 7 12 24 -10 24 -8 0 -14 -7 -14
-15z"/>
<path d="M2888 7235 c-10 -13 -18 -28 -18 -34 0 -20 49 -44 78 -38 17 3 38 -2
58 -14 37 -23 61 -10 66 35 3 25 -1 31 -26 37 -16 5 -32 12 -35 17 -3 5 -28
11 -56 15 -44 5 -52 3 -67 -18z"/>
<path d="M3880 7210 c-8 -5 -11 -12 -8 -16 10 -9 38 3 38 16 0 12 -10 13 -30
0z"/>
<path d="M3870 6143 c0 -16 8 -23 30 -28 32 -7 54 1 45 16 -4 5 -16 9 -29 9
-12 0 -27 5 -34 12 -9 9 -12 7 -12 -9z"/>
<path d="M536 6025 c-7 -19 5 -19 30 0 19 14 19 14 -2 15 -12 0 -24 -7 -28
-15z"/>
<path d="M1055 5820 c3 -5 13 -10 21 -10 8 0 14 5 14 10 0 6 -9 10 -21 10 -11
0 -17 -4 -14 -10z"/>
<path d="M3847 5268 c-10 -11 -17 -22 -14 -24 6 -6 67 29 67 39 0 14 -35 5
-53 -15z"/>
<path d="M3945 5279 c-11 -5 -31 -25 -44 -44 -19 -29 -26 -32 -41 -23 -14 9
-22 9 -34 -1 -17 -14 -12 -36 17 -68 25 -28 43 -29 56 -4 8 13 18 17 37 13 19
-3 31 1 40 13 10 13 21 16 53 11 23 -3 60 -9 84 -12 l42 -6 -22 23 c-15 15
-39 25 -70 29 -49 5 -54 13 -42 60 5 18 -46 24 -76 9z"/>
<path d="M3998 5079 c-21 -13 14 -63 48 -67 27 -4 104 25 104 38 0 27 -119 49
-152 29z"/>
<path d="M4177 4935 c19 -25 47 -33 58 -14 9 14 -24 38 -53 39 -23 0 -23 0 -5
-25z"/>
<path d="M1227 4436 c-6 -16 2 -28 14 -20 12 7 11 34 0 34 -5 0 -11 -6 -14
-14z"/>
<path d="M2846 4243 c-11 -11 -6 -23 9 -23 8 0 15 4 15 9 0 13 -16 22 -24 14z"/>
<path d="M2117 4180 c-9 -14 -17 -37 -17 -53 0 -28 -51 -87 -75 -87 -12 0 -75
-75 -75 -90 0 -6 10 -8 26 -4 23 6 25 4 22 -22 -3 -27 -1 -29 30 -26 27 2 32
-1 32 -19 0 -28 24 -19 28 12 2 13 9 31 15 39 33 42 36 57 25 130 -8 55 -8 77
2 95 18 34 8 54 -13 25z"/>
<path d="M1232 3988 c2 -15 13 -25 36 -32 41 -11 49 -3 28 29 -22 33 -69 36
-64 3z"/>
</g>
</svg>
